<svg width="133" height="53" viewBox="0 0 133 53" fill="none" xmlns="http://www.w3.org/2000/svg">
<path fill-rule="evenodd" clip-rule="evenodd" d="M1.00007 52.833V52.7192C1.00002 52.7382 1 52.7571 1 52.7761C1 52.7951 1.00002 52.814 1.00007 52.833ZM3.41897 42.1895C7.35522 34.0615 15.6829 28.4563 25.3198 28.4563C26.946 28.4563 28.535 28.6159 30.0718 28.9203C34.5015 22.9297 41.6167 19.0452 49.6391 19.0452C55.8488 19.0452 61.515 21.3726 65.8129 25.2026C69.7861 11.2316 82.6414 1 97.8865 1C116.301 1 131.228 15.9276 131.228 34.3417C131.228 37.0448 130.906 39.6728 130.299 42.1895H3.41897Z" fill="white"/>
<path d="M1.00007 52.833L6.77247e-05 52.8353L2.00007 52.833H1.00007ZM1.00007 52.7192H2.00007L6.77247e-05 52.7169L1.00007 52.7192ZM3.41897 42.1895L2.51896 41.7536L1.8236 43.1895H3.41897V42.1895ZM30.0718 28.9203L29.8775 29.9013L30.4991 30.0244L30.8758 29.5149L30.0718 28.9203ZM65.8129 25.2026L65.1476 25.9492L66.3384 27.0104L66.7747 25.4762L65.8129 25.2026ZM130.299 42.1895V43.1895H131.087L131.271 42.424L130.299 42.1895ZM2.00007 52.833V52.7192H6.51042e-05V52.833H2.00007ZM6.77247e-05 52.7169C2.25828e-05 52.7367 0 52.7564 0 52.7761H2C2 52.7579 2.00002 52.7397 2.00006 52.7215L6.77247e-05 52.7169ZM0 52.7761C0 52.7958 2.25828e-05 52.8156 6.77247e-05 52.8353L2.00006 52.8307C2.00002 52.8125 2 52.7943 2 52.7761H0ZM25.3198 27.4563C15.2852 27.4563 6.61591 33.2937 2.51896 41.7536L4.31899 42.6253C8.09453 34.8292 16.0807 29.4563 25.3198 29.4563V27.4563ZM30.2661 27.9394C28.6656 27.6224 27.0116 27.4563 25.3198 27.4563V29.4563C26.8804 29.4563 28.4043 29.6094 29.8775 29.9013L30.2661 27.9394ZM49.6391 18.0452C41.2861 18.0452 33.8779 22.0911 29.2677 28.3258L30.8758 29.5149C35.1251 23.7683 41.9472 20.0452 49.6391 20.0452V18.0452ZM66.4782 24.456C62.0042 20.4691 56.1035 18.0452 49.6391 18.0452V20.0452C55.5941 20.0452 61.0258 22.2761 65.1476 25.9492L66.4782 24.456ZM97.8865 0C82.1827 0 68.9433 10.5396 64.851 24.9291L66.7747 25.4762C70.629 11.9237 83.1001 2 97.8865 2V0ZM132.228 34.3417C132.228 15.3753 116.853 0 97.8865 0V2C115.748 2 130.228 16.4799 130.228 34.3417H132.228ZM131.271 42.424C131.897 39.8311 132.228 37.1244 132.228 34.3417H130.228C130.228 36.9652 129.916 39.5145 129.327 41.9549L131.271 42.424ZM3.41897 43.1895H130.299V41.1895H3.41897V43.1895Z" fill="#004070"/>
</svg>
