<svg width="129" height="125" viewBox="0 0 129 125" fill="none" xmlns="http://www.w3.org/2000/svg">
<path d="M53.3902 20.5197V10.5042C53.3902 8.84733 54.7334 7.50418 56.3902 7.50418H65.0176C66.6744 7.50418 68.0176 8.84733 68.0176 10.5042V20.5197" stroke="#005072" stroke-width="7"/>
<rect x="38.2996" y="16.03" width="49.928" height="26.1537" rx="4" fill="#0081A2"/>
<rect x="114.72" y="7.66062" width="51.2612" height="38.7196" rx="4" transform="rotate(90 114.72 7.66062)" fill="#40CE97"/>
<path d="M57.2162 113.845C57.2162 118.066 53.9068 121.329 50.0174 121.329C46.1279 121.329 42.8185 118.066 42.8185 113.845C42.8185 109.624 46.1279 106.36 50.0174 106.36C53.9068 106.36 57.2162 109.624 57.2162 113.845Z" fill="white" stroke="#005072" stroke-width="7"/>
<path d="M109.182 113.845C109.182 118.066 105.873 121.329 101.983 121.329C98.0938 121.329 94.7844 118.066 94.7844 113.845C94.7844 109.624 98.0938 106.36 101.983 106.36C105.873 106.36 109.182 109.624 109.182 113.845Z" fill="white" stroke="#005072" stroke-width="7"/>
<path d="M124.889 34.7711H31.4751C29.5134 34.7711 28.0796 36.6229 28.5707 38.5221L42.2608 91.4652C42.6225 92.864 43.93 93.8063 45.3715 93.707L116.463 88.8084C117.834 88.7139 118.966 87.6992 119.209 86.346L127.841 38.3016C128.172 36.4619 126.758 34.7711 124.889 34.7711Z" fill="#00B6ED"/>
<path d="M57.6594 49.5074V69.3842" stroke="#005072" stroke-width="7" stroke-linecap="round"/>
<path d="M81.095 49.5074V69.3842" stroke="#005072" stroke-width="7" stroke-linecap="round"/>
<path d="M103.512 49.5074V69.3842" stroke="#005072" stroke-width="7" stroke-linecap="round"/>
<path d="M3.65573 0.5C1.72273 0.5 0.155731 2.067 0.155731 4C0.155731 5.933 1.72273 7.5 3.65573 7.5V0.5ZM42.8848 90.3071V93.8071H47.462L46.2625 89.3899L42.8848 90.3071ZM3.65573 7.5H17.1552V0.5H3.65573V7.5ZM16.6727 7.13102L39.5071 91.2242L46.2625 89.3899L23.4281 5.29669L16.6727 7.13102ZM42.8848 86.8071H41.3126V93.8071H42.8848V86.8071ZM41.3126 110.022H101.983V103.022H41.3126V110.022ZM29.7049 98.4147C29.7049 104.825 34.9018 110.022 41.3126 110.022V103.022C38.7678 103.022 36.7049 100.959 36.7049 98.4147H29.7049ZM41.3126 86.8071C34.9018 86.8071 29.7049 92.004 29.7049 98.4147H36.7049C36.7049 95.87 38.7678 93.8071 41.3126 93.8071V86.8071ZM17.1552 7.5C16.9296 7.5 16.7319 7.34882 16.6727 7.13102L23.4281 5.29669C22.6593 2.46536 20.0891 0.5 17.1552 0.5V7.5Z" fill="#005072"/>
</svg>
