<svg width="62" height="81" viewBox="0 0 62 81" fill="none" xmlns="http://www.w3.org/2000/svg">
<path d="M30.1551 2C24.6886 7.01998 17.0356 19.939 30.1551 31.4554C45.0967 20.6034 35.6215 7.0938 30.1551 2Z" fill="#DFBC40" stroke="#004070" stroke-width="2"/>
<path d="M56.2366 20.5548C48.7419 18.7809 33.3693 19.7499 31.8366 37.817C49.9453 44.3472 55.3533 28.2558 56.2366 20.5548Z" fill="#DFBC40" stroke="#004070" stroke-width="2"/>
<path d="M56.2366 38.7361C48.7419 36.9622 33.3693 37.9311 31.8366 55.9983C49.9453 62.5285 55.3533 46.4371 56.2366 38.7361Z" fill="#DFBC40" stroke="#004070" stroke-width="2"/>
<path d="M56.2366 56.6689C48.7419 54.895 33.3693 55.864 31.8366 73.9311C49.9453 80.4614 55.3533 64.37 56.2366 56.6689Z" fill="#DFBC40" stroke="#004070" stroke-width="2"/>
<path d="M4.90013 20.5548C12.3948 18.7809 27.7674 19.7499 29.3001 37.817C11.1914 44.3472 5.78338 28.2558 4.90013 20.5548Z" fill="#DFBC40" stroke="#004070" stroke-width="2"/>
<path d="M4.90013 38.7361C12.3948 36.9622 27.7674 37.9311 29.3001 55.9983C11.1914 62.5285 5.78338 46.4371 4.90013 38.7361Z" fill="#DFBC40" stroke="#004070" stroke-width="2"/>
<path d="M4.90013 56.6689C12.3948 54.895 27.7674 55.864 29.3001 73.9311C11.1914 80.4614 5.78338 64.37 4.90013 56.6689Z" fill="#DFBC40" stroke="#004070" stroke-width="2"/>
</svg>
