<svg width="116" height="172" viewBox="0 0 116 172" fill="none" xmlns="http://www.w3.org/2000/svg">
<circle cx="56.7646" cy="19.6572" r="17.9819" fill="#40CE97" stroke="#005072" stroke-width="3.35065"/>
<path fill-rule="evenodd" clip-rule="evenodd" d="M39.7949 21.9497C40.5175 30.7069 47.8539 37.5888 56.7976 37.5888C65.7413 37.5888 73.0776 30.7069 73.8002 21.9497H39.7949Z" fill="#1EA9A1"/>
<path fill-rule="evenodd" clip-rule="evenodd" d="M52.1583 6.83105C46.6032 8.31859 42.5127 13.3875 42.5127 19.4118C42.5127 22.5966 43.6559 25.5143 45.5544 27.7771C45.0676 26.0365 44.8059 24.1905 44.8059 22.2785C44.8059 15.9135 47.7061 10.2794 52.1583 6.83105Z" fill="#FFF2D0"/>
<path d="M1.67533 78.7238C1.67533 60.4986 16.4498 45.7242 34.675 45.7242H80.4465C98.6717 45.7242 113.446 60.4986 113.446 78.7239V159.391C113.446 165.43 108.551 170.325 102.512 170.325H12.6091C6.57053 170.325 1.67533 165.43 1.67533 159.391V78.7238Z" stroke="#005072" stroke-width="3.35065"/>
<rect x="15.2295" y="31.1617" width="84.6627" height="15.0272" rx="7.51359" fill="#D9D9D9" stroke="#005072" stroke-width="3.35065"/>
<rect x="27.7251" y="152.176" width="29.8205" height="16.9209" rx="2.56113" fill="#40CE97" stroke="#005072" stroke-width="3.35065"/>
<path d="M64.75 166.696C64.75 167.93 63.7499 168.93 62.5162 168.93L30.7408 168.93C29.5071 168.93 28.507 167.93 28.507 166.696L28.507 161.481L64.75 161.481L64.75 166.696Z" fill="#1EA9A1"/>
<rect x="57.8247" y="129.671" width="37.8067" height="40.04" rx="2.96537" fill="#40CE97" stroke="#005072" stroke-width="3.35065"/>
<path d="M94.8501 143.821L58.6071 143.821L58.6071 136.373L94.8501 136.373L94.8501 143.821Z" fill="#1EA9A1"/>
<path d="M94.8501 156.106L58.6071 156.106L58.6071 148.658L94.8501 148.658L94.8501 156.106Z" fill="#1EA9A1"/>
<path d="M94.8501 166.696C94.8501 167.93 93.85 168.93 92.6163 168.93L60.8409 168.93C59.6072 168.93 58.6071 167.93 58.6071 166.696L58.6071 161.481L94.8501 161.481L94.8501 166.696Z" fill="#1EA9A1"/>
<path d="M57.1074 142.672H96.6695" stroke="#005072" stroke-width="3.35065"/>
<path d="M57.1074 157.03H96.6695" stroke="#005072" stroke-width="3.35065"/>
<rect x="26.4961" y="76.2779" width="65.4496" height="39.9905" rx="3.90909" fill="#00B6ED" stroke="#005072" stroke-width="3.35065"/>
<path d="M37.1836 106.426H81.2588" stroke="#005072" stroke-width="3.35065" stroke-linecap="round"/>
<path d="M37.1836 96.5967H81.2588" stroke="#005072" stroke-width="3.35065" stroke-linecap="round"/>
<path d="M37.1836 86.7686H81.2588" stroke="#005072" stroke-width="3.35065" stroke-linecap="round"/>
</svg>
