<svg width="144" height="612" viewBox="0 0 144 612" fill="none" xmlns="http://www.w3.org/2000/svg">
    <path d="M30.3188 296.302L30.3188 484L123.5 484L123.5 544L1.00002 544L1.00002 111L94.9851 283.936C96.7958 287.267 94.3839 291.323 90.592 291.323L35.3188 291.323C32.5574 291.323 30.3188 293.541 30.3188 296.302Z" fill="white"/>
    <rect x="68.833" y="466.7" width="73.8079" height="78.3004" rx="14" fill="white" stroke="#004070" stroke-width="2"/>
    <path d="M30.5 484.68H141.416" stroke="#004070" stroke-width="2" stroke-linecap="round"/>
    <ellipse cx="81.2948" cy="476.615" rx="2.95061" ry="3.16335" fill="#00B6ED"/>
    <ellipse cx="91.7363" cy="476.615" rx="2.95061" ry="3.16335" fill="#00B6ED"/>
    <ellipse cx="102.176" cy="476.615" rx="2.95061" ry="3.16335" fill="#00B6ED"/>
    <path d="M30.3188 484C30.3188 481.052 30.3188 372.977 30.3188 296.302C30.3188 293.541 32.5574 291.323 35.3188 291.323L90.592 291.323C94.3839 291.323 96.7958 287.267 94.9851 283.936L1 111" stroke="#005072" stroke-width="2" stroke-linecap="round"/>
    <path d="M95.2556 498.792V498.792C91.9237 497.002 87.7647 497.792 85.3478 500.702L84.2259 502.052C82.0075 504.723 82.4046 508.693 85.1082 510.872V510.872M95.2556 498.792L85.1082 510.872M95.2556 498.792L100.591 500.435M85.1082 510.872L90.3911 517.54M100.591 500.435L96.1331 507.863C95.608 508.738 95.6957 509.85 96.3516 510.632V510.632C96.6923 511.038 97.1582 511.319 97.6761 511.432L97.7648 511.451C98.8376 511.684 99.9433 511.234 100.548 510.318L102.39 507.525C103.151 506.371 104.482 505.727 105.858 505.844L106.837 505.928C108.418 506.063 109.91 506.715 111.083 507.781L122.246 517.926M100.591 500.435L107.394 499.011C108.086 498.866 108.794 498.813 109.5 498.855L116.701 499.276M122.246 517.926L125.593 510.195M122.246 517.926L122.317 517.995C122.982 518.637 123.244 519.592 122.998 520.485V520.485C122.732 521.455 121.916 522.174 120.921 522.318L119.212 522.565M125.593 510.195L126.772 509.299C129.038 507.575 129.409 504.31 127.588 502.122L125.078 499.104C123.461 497.161 120.649 496.73 118.524 498.1L116.701 499.276M125.593 510.195L116.701 499.276M105.822 531.117L107.692 532.129C108.427 532.528 109.304 532.57 110.075 532.245V532.245C110.827 531.928 111.4 531.294 111.639 530.513L112.046 529.184M112.046 529.184L108.437 525.56M112.046 529.184V529.184C114.032 529.698 115.969 528.198 115.969 526.147V525.56M115.969 525.56L110.006 520.197M115.969 525.56L116.115 525.597C117.958 526.065 119.641 524.416 119.212 522.565V522.565M119.212 522.565L111.261 514.592" stroke="#005072" stroke-width="2" stroke-linecap="round"/>
    <path d="M91.3647 519.973L94.2367 517.325" stroke="#005072" stroke-width="2" stroke-linecap="round"/>
    <path d="M101.655 530.564L105.006 527.475" stroke="#005072" stroke-width="2" stroke-linecap="round"/>
    <path d="M97.3477 527.917L102.613 523.062" stroke="#005072" stroke-width="2" stroke-linecap="round"/>
    <path d="M93.9976 524.386L99.2627 519.531" stroke="#005072" stroke-width="2" stroke-linecap="round"/>
</svg>