<svg width="768" height="449" viewBox="0 0 768 449" fill="none" xmlns="http://www.w3.org/2000/svg">
<g clip-path="url(#clip0_1321_21186)">
<rect width="768" height="449" fill="white"/>
<path d="M150.137 272.491L152.151 265.668L164.98 250.402L174.308 265.668L167.057 260.405L162.021 268.592L161.014 262.355L150.137 272.491Z" fill="#AAC9E7"/>
<path d="M540.313 218.561L534.524 205.535L562.987 167.906L581.802 191.062L571.189 209.395L560.093 196.369L540.313 218.561Z" fill="#AAC9E7"/>
<path d="M317.964 210.121L308.745 198.781L332.384 168.388L372.908 217.114L348.234 203.544L339.594 214.982L328.951 196.681L317.964 210.121Z" fill="#AAC9E7"/>
<path d="M454.565 309.681L395.244 243.639L441.645 185.809L499.481 250.693L483.043 272.18L454.565 309.681Z" fill="#AAC9E7"/>
<path d="M65.5988 371.354L164.679 250.693L213.05 317.683M171.734 371.354L332.011 168.113L395.244 243.639M454.896 310.048L395.244 243.639M395.244 243.639L441.645 185.809L499.481 250.693M407.731 371.354L483.043 272.18L562.653 168.113L731.604 370.867" stroke="#005072" stroke-width="2" stroke-linecap="round"/>
<ellipse cx="376.074" cy="72.3195" rx="44.8065" ry="44.3195" fill="#E0B701"/>
<path fill-rule="evenodd" clip-rule="evenodd" d="M325.809 118.69H448.232C448.817 116.262 449.128 113.726 449.128 111.118C449.128 93.3509 434.725 78.9478 416.958 78.9478C402.248 78.9478 389.844 88.82 386.011 102.3C381.864 98.6048 376.397 96.3593 370.405 96.3593C362.665 96.3593 355.8 100.107 351.526 105.887C350.043 105.593 348.51 105.439 346.941 105.439C337.642 105.439 329.607 110.848 325.809 118.69Z" fill="white"/>
<path d="M325.809 118.69L324.909 118.254L324.214 119.69H325.809V118.69ZM448.232 118.69V119.69H449.019L449.204 118.925L448.232 118.69ZM386.011 102.3L385.346 103.047L386.536 104.108L386.973 102.574L386.011 102.3ZM351.526 105.887L351.331 106.868L351.953 106.991L352.33 106.482L351.526 105.887ZM325.809 119.69H448.232V117.69H325.809V119.69ZM449.204 118.925C449.808 116.42 450.128 113.806 450.128 111.118H448.128C448.128 113.647 447.827 116.104 447.259 118.456L449.204 118.925ZM450.128 111.118C450.128 92.7986 435.277 77.9478 416.958 77.9478V79.9478C434.172 79.9478 448.128 93.9032 448.128 111.118H450.128ZM416.958 77.9478C401.789 77.9478 389.002 88.1279 385.049 102.027L386.973 102.574C390.687 89.512 402.707 79.9478 416.958 79.9478V77.9478ZM386.676 101.554C382.353 97.7013 376.652 95.3593 370.405 95.3593V97.3593C376.142 97.3593 381.375 99.5083 385.346 103.047L386.676 101.554ZM370.405 95.3593C362.334 95.3593 355.176 99.2685 350.722 105.293L352.33 106.482C356.423 100.946 362.996 97.3593 370.405 97.3593V95.3593ZM351.72 104.906C350.174 104.6 348.575 104.439 346.941 104.439V106.439C348.444 106.439 349.912 106.587 351.331 106.868L351.72 104.906ZM346.941 104.439C337.245 104.439 328.868 110.08 324.909 118.254L326.709 119.126C330.346 111.615 338.04 106.439 346.941 106.439V104.439Z" fill="#004070"/>
<path d="M211.022 356.293V369.505" stroke="#004070" stroke-width="2" stroke-linecap="round"/>
<path d="M716.665 129.659V209.929" stroke="#00B6ED" stroke-width="2" stroke-dasharray="6 6"/>
<path d="M728.797 129.659V217.114" stroke="#00B6ED" stroke-width="2" stroke-dasharray="6 6"/>
<path d="M756.702 129.659V217.114" stroke="#00B6ED" stroke-width="2" stroke-dasharray="6 6"/>
<path d="M742.144 129.659V217.114" stroke="#00B6ED" stroke-width="2" stroke-dasharray="6 6"/>
<path d="M690.297 68.1319L690.297 353.794" stroke="#005072" stroke-width="2"/>
<ellipse cx="689.197" cy="96.1505" rx="20.8753" ry="21.4247" stroke="#005072" stroke-width="2" stroke-linecap="round"/>
<path d="M984.023 362.502C998.2 362.502 1006.1 368.495 1008.27 371.492H756.443C767.014 366.248 794.87 357.107 821.732 362.502C855.31 369.245 893.55 352.013 920.599 351.264C947.647 350.514 966.301 362.502 984.023 362.502Z" fill="#1EA9A1"/>
<path d="M669.42 96.6971C673.237 96.6971 742.324 96.6971 839.719 96.6971" stroke="#005072" stroke-width="2" stroke-linecap="round"/>
<path fill-rule="evenodd" clip-rule="evenodd" d="M192.878 152.239H230.488C228.205 147.525 223.374 144.274 217.784 144.274C216.842 144.274 215.921 144.367 215.03 144.543C212.461 141.067 208.333 138.812 203.678 138.812C200.075 138.812 196.788 140.162 194.295 142.385C191.989 134.281 184.532 128.346 175.689 128.346C175.419 128.346 175.15 128.351 174.882 128.362C174.614 128.351 174.346 128.346 174.076 128.346C165.233 128.346 157.776 134.28 155.47 142.384C152.977 140.162 149.69 138.812 146.088 138.812C141.433 138.812 137.305 141.067 134.735 144.543C133.844 144.367 132.923 144.274 131.98 144.274C126.39 144.274 121.56 147.525 119.276 152.239H156.886H192.878ZM117.872 158.244V158.521C117.872 158.475 117.872 158.429 117.872 158.382C117.872 158.336 117.872 158.29 117.872 158.244Z" fill="#B1E7F8"/>
<path d="M438.446 200.763L434.178 196.852L441.414 186.72L453.475 200.229L450.543 206.57L442.415 195.583L438.446 200.763Z" fill="white"/>
<path d="M19.3908 335.726L42.2194 184.594L67.7337 335.726H42.2194H19.3908Z" fill="#40CE97"/>
<path d="M42.9243 336.275V371.01" stroke="#005072" stroke-width="2"/>
<path d="M86.4111 347.076L100.938 247.221L117.175 347.076H100.938H86.4111Z" fill="#1EA9A1"/>
<path d="M676.013 342.799L690.54 258.208L706.777 342.799H690.54H676.013Z" fill="#40CE97"/>
<path d="M690.54 370.867V342.799M690.54 342.799H676.013L690.54 258.208L706.777 342.799H690.54Z" stroke="#005072" stroke-width="2" stroke-linecap="round"/>
<path d="M583.743 315.138C583.743 316.292 582.006 318.062 580.403 317.831C578.399 317.542 577.254 316.004 577.159 314.465M577.159 314.465C577.063 312.926 578.208 308.406 583.552 308.214C588.896 308.022 591.531 314.753 588.705 318.119C588.506 318.42 588.245 318.721 587.942 319.006M577.159 314.465C576.395 314.305 574.239 314.369 573.628 315.907M583.743 320.716C585.027 320.944 586.789 320.088 587.942 319.006M573.628 315.907C572.865 317.831 569.754 318.119 568.57 315.138C566.777 310.618 571.529 306.483 576.109 308.214M573.628 315.907L571.916 321.082C571.341 322.823 570.892 324.604 570.575 326.41V326.41C570.022 329.549 570.522 333.979 573.707 333.827C575.617 333.736 577.198 332.173 577.54 331.679M585.079 324.947C585.111 325.3 584.888 326.178 583.743 326.871C582.312 327.736 578.208 330.718 577.54 331.679M577.54 331.679C577.413 333.538 577.369 338.565 578.208 343.796C579.048 349.028 583.647 351.234 585.842 351.682M598.742 325.084C596.528 324.641 592.675 324.331 587.942 319.006" stroke="#005072" stroke-width="2" stroke-linecap="round"/>
<path d="M597.634 324.863C607.17 326.959 616.613 324.872 621.647 325.253C627.941 325.73 629.181 329.35 629.181 331.731C629.181 332.83 629.519 334.678 629.903 336.399M614.591 341.353C615.023 345.242 616.764 348.232 618.613 350.307M628.983 330.112C631.939 331.953 638.583 336.551 636.523 337.923C634.464 339.295 631.252 337.479 629.903 336.399M629.903 336.399C630.185 337.663 630.491 338.858 630.707 339.638C631.152 340.94 631.908 345.525 631.374 353.451C630.978 359.334 631.748 364.637 632.522 367.979C632.833 369.322 631.838 370.693 630.46 370.693H629.464C628.36 370.693 627.464 369.798 627.464 368.693V366.788C627.588 365.698 627.148 362.645 624.883 357.881C623.473 354.914 620.799 352.76 618.613 350.307V350.307M618.613 350.307C617.343 351.196 614.924 352.554 611.921 353.451M599.143 354.118C603.975 354.984 608.375 354.51 611.921 353.451M600.096 342.972C600.351 343.893 600.268 347.583 597.903 354.975V368.217C597.903 369.322 597.008 370.217 595.903 370.217H594.111C592.926 370.217 592.001 369.192 592.122 368.013L592.277 366.502C591.546 362.691 590.141 353.965 590.37 349.545M588.749 354.118C588.208 355.261 587.032 358.1 586.651 360.31C586.35 362.054 585.989 365.734 585.757 368.378C585.666 369.417 584.798 370.217 583.756 370.217H582.168C580.957 370.217 580.024 369.15 580.186 367.95L581.215 360.31L582.932 351.546M621.647 353.26V364.12C622.136 365.213 622.921 367.279 623.127 368.816C623.24 369.656 622.511 370.217 621.663 370.217H619.452C618.347 370.217 617.452 369.322 617.452 368.217V365.454C617.388 364.022 616.117 359.735 611.921 353.451" stroke="#005072" stroke-width="2" stroke-linecap="round"/>
<path d="M556.05 327.376C556.05 328.276 557.404 329.656 558.654 329.476C560.217 329.251 561.11 328.051 561.184 326.852M561.184 326.852C561.258 325.652 560.366 322.128 556.199 321.978C552.032 321.828 549.978 327.076 552.181 329.701C552.336 329.935 552.54 330.17 552.776 330.392M561.184 326.852C561.779 326.727 563.461 326.777 563.937 327.976M556.05 331.725C555.049 331.904 553.675 331.236 552.776 330.392M563.937 327.976C564.532 329.476 566.958 329.701 567.88 327.376C569.279 323.852 565.574 320.628 562.002 321.978M563.937 327.976L565.271 332.011C565.72 333.369 566.07 334.757 566.318 336.165V336.165C566.748 338.613 566.358 342.067 563.876 341.948C562.386 341.877 561.154 340.658 560.886 340.274M555.008 335.025C554.984 335.3 555.157 335.985 556.05 336.524C557.166 337.199 560.366 339.524 560.886 340.274M560.886 340.274C560.986 341.723 561.02 345.642 560.366 349.722C559.711 353.801 556.125 355.52 554.413 355.87M543.098 335.236C544.884 335.1 549.086 334.544 552.776 330.392" stroke="#005072" stroke-width="2" stroke-linecap="round"/>
<path d="M545.894 334.967C538.458 336.602 530.42 334.967 526.494 335.265C521.586 335.636 520.62 338.458 520.62 340.315C520.62 341.172 520.356 342.613 520.057 343.955M531.996 347.817C531.659 350.85 530.301 353.181 528.859 354.799M520.775 339.053C518.47 340.489 513.289 344.074 514.895 345.143C516.501 346.213 519.005 344.797 520.057 343.955M520.057 343.955C519.837 344.94 519.598 345.872 519.43 346.48C519.083 347.495 518.493 351.071 518.91 357.25C519.202 361.586 518.682 365.517 518.114 368.135C517.839 369.403 518.78 370.694 520.077 370.694V370.694C521.116 370.694 521.958 369.852 521.958 368.813V367.649C521.862 366.799 522.205 364.419 523.971 360.705C525.07 358.392 527.155 356.712 528.859 354.799V354.799M528.859 354.799C529.85 355.492 531.736 356.551 534.078 357.25M544.041 357.77C540.273 358.446 536.843 358.076 534.078 357.25M543.297 349.08C543.099 349.798 543.164 352.675 545.007 358.439V368.323C545.007 369.428 545.903 370.323 547.007 370.323H547.476C548.661 370.323 549.586 369.298 549.465 368.119L549.394 367.426C549.964 364.455 551.06 357.652 550.881 354.205M552.145 357.77C552.567 358.662 553.484 360.875 553.781 362.598C554.001 363.872 554.261 366.467 554.442 368.484C554.535 369.523 555.403 370.323 556.445 370.323H556.772C557.983 370.323 558.916 369.256 558.755 368.056L558.019 362.598L556.681 355.765M526.494 357.102V365.569C526.145 366.35 525.601 367.769 525.389 368.923C525.236 369.757 525.945 370.323 526.793 370.323H527.765C528.87 370.323 529.765 369.428 529.765 368.323V366.609C529.815 365.493 530.806 362.15 534.078 357.25" stroke="#005072" stroke-width="2" stroke-linecap="round"/>
<path d="M131.698 340.185C131.004 339.512 130.108 338.348 129.926 337.109C129.559 334.619 133.547 332.643 135.097 334.627C135.74 335.45 136.019 336.884 135.521 339.162" stroke="#004070" stroke-width="2" stroke-linecap="round"/>
<path d="M135.58 339.078C136.161 338.331 137.148 337.423 138.288 337.171C140.746 336.627 143.026 340.474 141.13 342.129C140.368 342.794 139.032 343.063 136.969 342.433" stroke="#004070" stroke-width="2" stroke-linecap="round"/>
<path d="M134.863 344.567C135.194 345.441 135.479 346.719 135.147 347.801C134.41 350.207 130.18 349.995 129.445 347.588C129.06 346.328 129.546 344.715 131.923 343.242" stroke="#004070" stroke-width="2" stroke-linecap="round"/>
<path d="M131.531 343.132C130.703 343.474 129.394 344.077 128.228 344.129C125.714 344.241 125.185 339.366 127.656 338.891C128.577 338.714 129.879 339.071 131.654 340.351" stroke="#004070" stroke-width="2" stroke-linecap="round"/>
<path d="M137.122 342.447C137.657 342.691 138.371 342.911 139.04 343.198C142.411 344.642 137.203 350.006 135.561 346.726C135.27 346.146 135.051 345.407 134.933 344.493" stroke="#004070" stroke-width="2" stroke-linecap="round"/>
<circle cx="134.206" cy="341.618" r="3.02484" transform="rotate(19.5393 134.206 341.618)" fill="#DFBC40" stroke="#004070" stroke-width="2" stroke-linecap="round"/>
<path d="M135.812 348.429C135.864 353.08 138.602 363.714 149.13 369.041" stroke="#004070" stroke-width="2" stroke-linecap="round"/>
<path d="M147.861 369.038L143.739 330.668M143.739 330.668L145.483 325.911M143.739 330.668L142.946 325.911M143.739 330.668L140.885 327.655M143.739 330.668L147.227 328.29M143.739 330.668L140.251 330.351" stroke="#004070" stroke-width="2" stroke-linecap="round"/>
<path d="M153.28 341.642C153.093 341.147 152.916 340.447 152.929 339.751C152.973 337.235 157.887 337.235 157.508 339.723C157.406 340.395 157.039 341.213 156.292 342.185" stroke="#004070" stroke-width="2" stroke-linecap="round"/>
<path d="M156.361 342.147C156.807 341.92 157.412 341.703 158.032 341.653C160.54 341.449 160.877 346.541 158.39 346.153C157.774 346.057 157.048 345.695 156.227 344.952" stroke="#004070" stroke-width="2" stroke-linecap="round"/>
<path d="M154.05 345.753C154.012 346.239 153.898 346.848 153.647 347.392C152.591 349.676 148.227 347.42 149.554 345.282C149.977 344.6 150.864 344.037 152.429 343.856" stroke="#004070" stroke-width="2" stroke-linecap="round"/>
<path d="M152.193 343.65C151.712 343.627 151.028 343.615 150.376 343.494C147.902 343.034 149.619 338.286 151.64 339.786C152.135 340.153 152.659 340.778 153.195 341.745" stroke="#004070" stroke-width="2" stroke-linecap="round"/>
<path d="M156.329 345.012C156.399 345.094 156.476 345.179 156.559 345.266C159.078 347.93 153.119 349.82 153.974 346.253C154.015 346.083 154.064 345.906 154.124 345.722" stroke="#004070" stroke-width="2" stroke-linecap="round"/>
<circle cx="154.563" cy="343.472" r="2.33929" transform="rotate(44.7516 154.563 343.472)" fill="#DFBC40" stroke="#004070" stroke-width="2" stroke-linecap="round"/>
<path d="M148.043 368.574V368.574C151.863 363.133 153.913 356.646 153.913 349.997V347.833" stroke="#004070" stroke-width="2" stroke-linecap="round"/>
<path d="M276.068 362.502C261.891 362.502 253.994 368.495 251.818 371.492H503.648C493.077 366.248 465.22 357.107 438.359 362.502C404.781 369.245 366.54 352.013 339.492 351.264C312.444 350.514 293.79 362.502 276.068 362.502Z" fill="#40CE97"/>
<path d="M742.452 323.53C740.113 325.678 736.838 331.206 742.452 336.135C748.846 331.491 744.792 325.71 742.452 323.53Z" fill="#DFBC40" stroke="#004070" stroke-width="2"/>
<path d="M753.613 331.472C750.406 330.713 743.828 331.128 743.172 338.859C750.921 341.654 753.235 334.768 753.613 331.472Z" fill="#DFBC40" stroke="#004070" stroke-width="2"/>
<path d="M753.613 339.252C750.406 338.492 743.828 338.907 743.172 346.638C750.921 349.433 753.235 342.547 753.613 339.252Z" fill="#DFBC40" stroke="#004070" stroke-width="2"/>
<path d="M753.613 346.924C750.406 346.165 743.828 346.579 743.172 354.311C750.921 357.105 753.235 350.219 753.613 346.924Z" fill="#DFBC40" stroke="#004070" stroke-width="2"/>
<path d="M731.646 331.472C734.853 330.713 741.431 331.128 742.087 338.859C734.338 341.654 732.024 334.768 731.646 331.472Z" fill="#DFBC40" stroke="#004070" stroke-width="2"/>
<path d="M731.646 339.252C734.853 338.492 741.431 338.907 742.087 346.638C734.338 349.433 732.024 342.547 731.646 339.252Z" fill="#DFBC40" stroke="#004070" stroke-width="2"/>
<path d="M731.646 346.924C734.853 346.165 741.431 346.579 742.087 354.311C734.338 357.105 732.024 350.219 731.646 346.924Z" fill="#DFBC40" stroke="#004070" stroke-width="2"/>
<rect x="742.504" y="336.02" width="0.700249" height="33.8454" fill="#DFBC40" stroke="#004070" stroke-width="0.700249"/>
<ellipse cx="211.501" cy="340.611" rx="13.7338" ry="15.3818" fill="#1EA9A1" stroke="#004070" stroke-width="2" stroke-linecap="round"/>
<path d="M836.582 371.492L-621.33 371.492" stroke="#005072" stroke-width="2" stroke-linecap="round"/>
<path d="M-4.78082 388.954H53.8264M68.6736 388.954H85.865M102.275 388.954H144.472M157.757 388.954H167.134M178.855 388.954H287.474" stroke="#00B6ED" stroke-width="3" stroke-linecap="round"/>
<path d="M361.087 404.335H302.259M287.356 404.335H270.1M253.629 404.335H211.273M197.939 404.335H188.526M176.761 404.335H67.7336" stroke="#00B6ED" stroke-width="3" stroke-linecap="round"/>
<path d="M380.863 404.335H488.736M516.064 404.335H547.706M577.91 404.335H655.579M680.03 404.335H697.289" stroke="#00B6ED" stroke-width="3" stroke-linecap="round"/>
<path d="M168.814 419.718H109.634M94.6419 419.718H77.2824M60.712 419.718H18.1023M4.68815 419.718H-4.78066" stroke="#00B6ED" stroke-width="3" stroke-linecap="round"/>
<path d="M185.295 419.718H216.524M233.17 419.718H309.822M325.375 419.718H342.409" stroke="#00B6ED" stroke-width="3" stroke-linecap="round"/>
<path d="M361.087 419.718H419.915M434.818 419.718H452.074M468.545 419.718H510.901M524.235 419.718H533.648M545.413 419.718H654.44" stroke="#00B6ED" stroke-width="3" stroke-linecap="round"/>
<path d="M22.6866 434H81.2938M96.141 434H113.332M129.742 434H171.94M185.224 434H194.601M206.323 434H314.941" stroke="#00B6ED" stroke-width="3" stroke-linecap="round"/>
<path d="M836.824 434H664.913M650.008 434H632.749M616.275 434H573.912M560.576 434H551.162" stroke="#00B6ED" stroke-width="3" stroke-linecap="round"/>
<path fill-rule="evenodd" clip-rule="evenodd" d="M579.726 116.713H538.279C538.081 115.892 537.976 115.034 537.976 114.151C537.976 108.136 542.853 103.26 548.868 103.26C553.848 103.26 558.047 106.601 559.345 111.164C560.749 109.913 562.6 109.153 564.628 109.153C567.25 109.153 569.574 110.423 571.021 112.381C571.523 112.282 572.042 112.229 572.573 112.229C575.72 112.229 578.44 114.059 579.726 116.713Z" fill="#B1E7F8"/>
<path d="M186.065 348.953V370.974" stroke="#004070" stroke-width="2" stroke-linecap="round"/>
<ellipse cx="186.78" cy="307.65" rx="14.2831" ry="41.7507" fill="#40CE97" stroke="#004070" stroke-width="2" stroke-linecap="round"/>
<path d="M101.299 346.406V371.01" stroke="#005072" stroke-width="2"/>
</g>
<defs>
<clipPath id="clip0_1321_21186">
<rect width="768" height="449" fill="white"/>
</clipPath>
</defs>
</svg>
