<svg width="149" height="128" viewBox="0 0 149 128" fill="none" xmlns="http://www.w3.org/2000/svg">
<path d="M0 32.5454C0 21.4997 8.95431 12.5454 20 12.5454H128.054C139.099 12.5454 148.053 21.4997 148.053 32.5454V108C148.053 119.046 139.099 128 128.053 128H20C8.95428 128 0 119.046 0 108V32.5454Z" fill="#40CE97"/>
<path fill-rule="evenodd" clip-rule="evenodd" d="M128.054 15.5454H20C10.6112 15.5454 3 23.1566 3 32.5454V108C3 117.389 10.6111 125 20 125H128.053C137.442 125 145.053 117.389 145.053 108V32.5454C145.053 23.1566 137.442 15.5454 128.054 15.5454ZM20 12.5454C8.95431 12.5454 0 21.4997 0 32.5454V108C0 119.046 8.95428 128 20 128H128.053C139.099 128 148.053 119.046 148.053 108V32.5454C148.053 21.4997 139.099 12.5454 128.054 12.5454H20Z" fill="#005072"/>
<path d="M63.1604 23.0572V2.71289C63.1604 1.94738 63.9854 1.46574 64.652 1.84206L82.6713 12.0142C83.3491 12.3969 83.3491 13.3732 82.6713 13.7559L64.652 23.9281C63.9854 24.3044 63.1604 23.8227 63.1604 23.0572Z" fill="white"/>
<path fill-rule="evenodd" clip-rule="evenodd" d="M64.6604 3.56931V22.2008L81.1626 12.8851L64.6604 3.56931ZM65.3894 0.53582L83.4087 10.708C85.1033 11.6647 85.1034 14.1054 83.4087 15.0621L65.3894 25.2343C63.7228 26.1751 61.6604 24.971 61.6604 23.0572V2.71288C61.6604 0.799125 63.7228 -0.404977 65.3894 0.53582Z" fill="#005072"/>
<path fill-rule="evenodd" clip-rule="evenodd" d="M16.1577 51.1428C16.1577 47.0016 19.5148 43.6445 23.656 43.6445H24.2588C28.0671 43.6445 31.1543 46.7318 31.1543 50.54C31.1543 51.3685 30.4827 52.04 29.6543 52.04C28.8259 52.04 28.1543 51.3685 28.1543 50.54C28.1543 48.3886 26.4102 46.6445 24.2588 46.6445H23.656C21.1717 46.6445 19.1577 48.6585 19.1577 51.1428V60.4585C19.1577 62.9429 21.1717 64.9568 23.656 64.9568H25.6076C27.0141 64.9568 28.1543 63.8166 28.1543 62.4102C28.1543 61.5817 28.8259 60.9102 29.6543 60.9102C30.4827 60.9102 31.1543 61.5817 31.1543 62.4102C31.1543 65.4735 28.671 67.9568 25.6076 67.9568H23.656C19.5148 67.9568 16.1577 64.5997 16.1577 60.4585V51.1428ZM36.6064 51.2791C36.6064 47.0627 40.0245 43.6445 44.241 43.6445C48.4575 43.6445 51.8756 47.0627 51.8756 51.2791V60.3222C51.8756 64.5387 48.4575 67.9568 44.241 67.9568C40.0245 67.9568 36.6064 64.5387 36.6064 60.3222V51.2791ZM44.241 46.6445C41.6814 46.6445 39.6064 48.7195 39.6064 51.2791V60.3222C39.6064 62.8818 41.6814 64.9568 44.241 64.9568C46.8006 64.9568 48.8756 62.8818 48.8756 60.3222V51.2791C48.8756 48.7195 46.8006 46.6445 44.241 46.6445ZM86.9106 43.6445C87.739 43.6445 88.4106 44.3161 88.4106 45.1445V66.4568C88.4106 67.2852 87.739 67.9568 86.9106 67.9568C86.0822 67.9568 85.4106 67.2852 85.4106 66.4568V45.1445C85.4106 44.3161 86.0822 43.6445 86.9106 43.6445ZM109.813 43.6445C110.642 43.6445 111.313 44.3161 111.313 45.1445V64.8025C111.313 66.7823 108.745 67.5586 107.648 65.9102L97.1354 50.1075V66.4568C97.1354 67.2852 96.4638 67.9568 95.6354 67.9568C94.807 67.9568 94.1354 67.2852 94.1354 66.4568V46.7989C94.1354 44.819 96.704 44.0427 97.8006 45.6911L108.313 61.4938V45.1445C108.313 44.3161 108.985 43.6445 109.813 43.6445ZM124.809 46.6445C122.927 46.6445 121.401 48.1702 121.401 50.0522V61.5491C121.401 63.4311 122.927 64.9568 124.809 64.9568H125.13C126.835 64.9568 128.217 63.5751 128.217 61.8706V60.5562C128.217 59.5777 127.423 58.7844 126.445 58.7844C125.616 58.7844 124.945 58.1129 124.945 57.2844C124.945 56.456 125.616 55.7844 126.445 55.7844C129.08 55.7844 131.217 57.9208 131.217 60.5562V61.8706C131.217 65.2319 128.492 67.9568 125.13 67.9568H124.809C121.27 67.9568 118.401 65.088 118.401 61.5491V50.0522C118.401 46.5134 121.27 43.6445 124.809 43.6445C128.348 43.6445 131.217 46.5133 131.217 50.0522V50.54C131.217 51.3685 130.545 52.04 129.717 52.04C128.888 52.04 128.217 51.3685 128.217 50.54V50.0522C128.217 48.1702 126.691 46.6445 124.809 46.6445ZM73.9844 51.5069L76.7093 66.7213C76.8554 67.5367 77.6348 68.0794 78.4503 67.9333C79.2657 67.7873 79.8084 67.0078 79.6623 66.1924L76.2093 46.9127C75.8394 44.8475 72.9445 44.6727 72.3287 46.6783L67.796 61.4414L63.0678 46.6578C62.4284 44.6586 59.5342 44.8685 59.1899 46.9389L55.9848 66.2107C55.8489 67.0279 56.4012 67.8006 57.2184 67.9365C58.0356 68.0724 58.8083 67.5201 58.9442 66.7029L61.4706 51.512L65.9105 65.3943C66.5072 67.2599 69.1524 67.2445 69.7273 65.372L73.9844 51.5069ZM39.4106 83.334C37.8624 83.334 36.6073 84.5891 36.6073 86.1374C36.6073 87.2165 37.2267 88.1998 38.2 88.6659L45.659 92.237C47.8751 93.298 49.2855 95.5369 49.2855 97.9939C49.2855 101.519 46.4278 104.377 42.9028 104.377H39.8447C37.0995 104.377 34.4816 103.219 32.6344 101.188C32.077 100.575 32.1219 99.6265 32.7347 99.0691C33.3475 98.5117 34.2962 98.5566 34.8537 99.1694C36.1323 100.575 37.9444 101.377 39.8447 101.377H42.9028C44.771 101.377 46.2855 99.862 46.2855 97.9939C46.2855 96.6917 45.538 95.5052 44.3635 94.9429L36.9046 91.3717C34.8896 90.407 33.6073 88.3714 33.6073 86.1374C33.6073 82.9323 36.2055 80.334 39.4106 80.334H41.4524C44.0469 80.334 46.5583 81.2497 48.544 82.9197L48.6146 82.9791C49.2486 83.5124 49.3303 84.4586 48.7971 85.0926C48.2639 85.7266 47.3176 85.8083 46.6836 85.2751L46.613 85.2157C45.168 84.0004 43.3405 83.334 41.4524 83.334H39.4106ZM62.1677 83.334C59.8716 83.334 58.0102 85.1954 58.0102 87.4915V97.219C58.0102 99.5151 59.8716 101.377 62.1677 101.377C64.4638 101.377 66.3252 99.5151 66.3252 97.219V87.4915C66.3252 85.1954 64.4638 83.334 62.1677 83.334ZM55.0102 87.4915C55.0102 83.5385 58.2147 80.334 62.1677 80.334C66.1207 80.334 69.3252 83.5385 69.3252 87.4915V97.219C69.3252 101.172 66.1207 104.377 62.1677 104.377C58.2147 104.377 55.0102 101.172 55.0102 97.219V87.4915ZM83.1617 83.334C80.8656 83.334 79.0042 85.1954 79.0042 87.4915V97.219C79.0042 99.5151 80.8656 101.377 83.1617 101.377C85.4578 101.377 87.3192 99.5151 87.3192 97.219V87.4915C87.3192 85.1954 85.4578 83.334 83.1617 83.334ZM76.0042 87.4915C76.0042 83.5385 79.2087 80.334 83.1617 80.334C87.1146 80.334 90.3192 83.5385 90.3192 87.4915V97.219C90.3192 101.172 87.1146 104.377 83.1617 104.377C79.2087 104.377 76.0042 101.172 76.0042 97.219V87.4915ZM114.176 80.334C115.004 80.334 115.676 81.0056 115.676 81.834V101.906C115.676 103.882 113.114 104.661 112.014 103.019L100.68 86.095V102.877C100.68 103.705 100.008 104.377 99.1798 104.377C98.3514 104.377 97.6798 103.705 97.6798 102.877V82.8047C97.6798 80.8281 100.242 80.0495 101.342 81.6918L112.676 98.6155V81.834C112.676 81.0056 113.347 80.334 114.176 80.334Z" fill="#005072"/>
</svg>
