<svg width="132" height="88" viewBox="0 0 132 88" fill="none" xmlns="http://www.w3.org/2000/svg">
<path fill-rule="evenodd" clip-rule="evenodd" d="M130.378 74.6226C130.413 52.5945 112.551 34.5811 90.3774 34.5811H84.6842C62.3851 34.5811 44.6282 52.7407 44.6815 74.6226H130.378Z" fill="#1EA9A1"/>
<path fill-rule="evenodd" clip-rule="evenodd" d="M43.6815 74.625C43.6268 52.1948 61.827 33.5811 84.6842 33.5811H90.3774C113.106 33.5811 131.414 52.0448 131.378 74.6242L131.376 75.6226H43.684L43.6815 74.625ZM45.6917 73.6226H129.367C128.87 52.6025 111.661 35.5811 90.3774 35.5811H84.6842C63.283 35.5811 46.1718 52.7375 45.6917 73.6226Z" fill="#005072"/>
<path fill-rule="evenodd" clip-rule="evenodd" d="M86.6964 74.6226C86.7319 52.5945 68.87 34.5811 46.696 34.5811H41.0029C18.7037 34.5811 0.94677 52.7407 1.00012 74.6226H86.6964Z" fill="#00B6ED"/>
<path fill-rule="evenodd" clip-rule="evenodd" d="M0.000122919 74.625C-0.0545645 52.1948 18.1456 33.5811 41.0029 33.5811H46.696C69.4245 33.5811 87.7327 52.0448 87.6964 74.6242L87.6947 75.6226H0.00255509L0.000122919 74.625ZM2.01035 73.6226H85.6854C85.1887 52.6025 67.9795 35.5811 46.696 35.5811H41.0029C19.6016 35.5811 2.49038 52.7375 2.01035 73.6226Z" fill="#005072"/>
<path d="M65.0166 20.9307C65.0166 32.4903 55.6456 41.8613 44.0859 41.8613C32.5262 41.8613 23.1553 32.4903 23.1553 20.9307C23.1553 9.37097 32.5262 0 44.0859 0C55.6456 0 65.0166 9.37097 65.0166 20.9307Z" fill="white"/>
<path fill-rule="evenodd" clip-rule="evenodd" d="M44.0859 39.8613C54.541 39.8613 63.0166 31.3858 63.0166 20.9307C63.0166 10.4755 54.541 2 44.0859 2C33.6308 2 25.1553 10.4755 25.1553 20.9307C25.1553 31.3858 33.6308 39.8613 44.0859 39.8613ZM44.0859 41.8613C55.6456 41.8613 65.0166 32.4903 65.0166 20.9307C65.0166 9.37097 55.6456 0 44.0859 0C32.5262 0 23.1553 9.37097 23.1553 20.9307C23.1553 32.4903 32.5262 41.8613 44.0859 41.8613Z" fill="#005072"/>
<path d="M105.058 25.4808C105.058 34.5275 97.724 41.8613 88.6773 41.8613C79.6306 41.8613 72.2968 34.5275 72.2968 25.4808C72.2968 16.4341 79.6306 9.10026 88.6773 9.10026C97.724 9.10026 105.058 16.4341 105.058 25.4808Z" fill="white"/>
<path fill-rule="evenodd" clip-rule="evenodd" d="M88.6773 39.8613C96.6194 39.8613 103.058 33.4229 103.058 25.4808C103.058 17.5386 96.6194 11.1003 88.6773 11.1003C80.7352 11.1003 74.2968 17.5386 74.2968 25.4808C74.2968 33.4229 80.7352 39.8613 88.6773 39.8613ZM88.6773 41.8613C97.724 41.8613 105.058 34.5275 105.058 25.4808C105.058 16.4341 97.724 9.10026 88.6773 9.10026C79.6306 9.10026 72.2968 16.4341 72.2968 25.4808C72.2968 34.5275 79.6306 41.8613 88.6773 41.8613Z" fill="#005072"/>
<path d="M99.5977 72.8023C99.5977 80.8438 93.0787 87.3628 85.0372 87.3628C76.9957 87.3628 70.4768 80.8438 70.4768 72.8023C70.4768 64.7608 76.9957 58.2419 85.0372 58.2419C93.0787 58.2419 99.5977 64.7608 99.5977 72.8023Z" fill="white"/>
<path fill-rule="evenodd" clip-rule="evenodd" d="M85.0372 85.3628C91.9742 85.3628 97.5977 79.7393 97.5977 72.8023C97.5977 65.8654 91.9742 60.2419 85.0372 60.2419C78.1003 60.2419 72.4768 65.8654 72.4768 72.8023C72.4768 79.7393 78.1003 85.3628 85.0372 85.3628ZM85.0372 87.3628C93.0787 87.3628 99.5977 80.8438 99.5977 72.8023C99.5977 64.7608 93.0787 58.2419 85.0372 58.2419C76.9957 58.2419 70.4768 64.7608 70.4768 72.8023C70.4768 80.8438 76.9957 87.3628 85.0372 87.3628Z" fill="#005072"/>
<path fill-rule="evenodd" clip-rule="evenodd" d="M85.0372 64.522C85.5895 64.522 86.0372 64.9697 86.0372 65.522V80.0824C86.0372 80.6347 85.5895 81.0824 85.0372 81.0824C84.4849 81.0824 84.0372 80.6347 84.0372 80.0824V65.522C84.0372 64.9697 84.4849 64.522 85.0372 64.522Z" fill="#005072"/>
<path fill-rule="evenodd" clip-rule="evenodd" d="M93.3174 72.8023C93.3174 73.3546 92.8697 73.8023 92.3174 73.8023H77.757C77.2047 73.8023 76.757 73.3546 76.757 72.8023C76.757 72.25 77.2047 71.8023 77.757 71.8023H92.3174C92.8697 71.8023 93.3174 72.25 93.3174 72.8023Z" fill="#005072"/>
</svg>
