<svg width="117" height="108" viewBox="0 0 117 108" fill="none" xmlns="http://www.w3.org/2000/svg">
<path fill-rule="evenodd" clip-rule="evenodd" d="M62 95V6.5C62 4.567 60.433 3 58.5 3C56.567 3 55 4.567 55 6.5V95H62ZM58.5 0C54.9101 0 52 2.91015 52 6.5V98H65V6.5C65 2.91015 62.0899 0 58.5 0Z" fill="#005072"/>
<path fill-rule="evenodd" clip-rule="evenodd" d="M36.594 98L32.9667 105H84.9123L80.9032 98H36.594ZM34.0702 96.3498C34.4999 95.5206 35.356 95 36.2899 95H81.1931C82.0893 95 82.917 95.4798 83.3625 96.2575L87.9443 104.258C88.8988 105.924 87.6955 108 85.7749 108H32.1445C30.2702 108 29.0625 106.014 29.9248 104.35L34.0702 96.3498Z" fill="#005072"/>
<path d="M64 30V9C64 8.44772 64.4477 8 65 8H102.275C102.523 8 102.761 8.09175 102.945 8.2575L115.138 19.2571C115.592 19.6666 115.575 20.384 115.103 20.7722L102.936 30.7725C102.758 30.9196 102.533 31 102.301 31H65C64.4477 31 64 30.5523 64 30Z" fill="#40CE97"/>
<path fill-rule="evenodd" clip-rule="evenodd" d="M65 9V29H101.622L113.202 19.482L101.583 9H65ZM101.441 8.87184L101.44 8.87125L101.775 8.49999L101.44 8.87125C101.441 8.87145 101.441 8.87164 101.441 8.87184ZM113.651 19.1134L113.65 19.1139L113.651 19.1134ZM62 8.5C62 7.11929 63.1193 6 64.5 6H101.775C102.394 6 102.991 6.22936 103.45 6.64375L102.445 7.7575L103.45 6.64375L115.643 17.6434L114.638 18.7571L115.643 17.6434C116.777 18.6671 116.736 20.4605 115.555 21.431L103.389 31.4313C102.942 31.799 102.38 32 101.801 32H64.5C63.1193 32 62 30.8807 62 29.5V8.5Z" fill="#005072"/>
<path d="M64 79V58C64 57.4477 64.4477 57 65 57H102.275C102.523 57 102.761 57.0917 102.945 57.2575L115.138 68.2571C115.592 68.6666 115.575 69.384 115.103 69.7722L102.936 79.7725C102.758 79.9196 102.533 80 102.301 80H65C64.4477 80 64 79.5523 64 79Z" fill="#1EA9A1"/>
<path fill-rule="evenodd" clip-rule="evenodd" d="M65 58V78H101.622L113.202 68.482L101.583 58H65ZM101.441 57.8718L101.44 57.8713L101.775 57.5L101.44 57.8712C101.441 57.8714 101.441 57.8716 101.441 57.8718ZM113.651 68.1134L113.65 68.1139L113.651 68.1134ZM62 57.5C62 56.1193 63.1193 55 64.5 55H101.775C102.394 55 102.991 55.2294 103.45 55.6437L102.445 56.7575L103.45 55.6437L115.643 66.6434L114.638 67.7571L115.643 66.6434C116.777 67.6671 116.736 69.4605 115.555 70.431L103.389 80.4313C102.942 80.799 102.38 81 101.801 81H64.5C63.1193 81 62 79.8807 62 78.5V57.5Z" fill="#005072"/>
<path d="M53 55V33C53 32.4477 52.5523 32 52 32H14.7369C14.4822 32 14.237 32.0972 14.0515 32.2719L1.81023 43.7954C1.37742 44.2028 1.39345 44.8956 1.84464 45.2826L14.0594 55.7591C14.2407 55.9145 14.4716 56 14.7104 56H52C52.5523 56 53 55.5523 53 55Z" fill="#00B6ED"/>
<path fill-rule="evenodd" clip-rule="evenodd" d="M51.5043 34V55H14.8998L3.24785 45.0062L14.9396 34H51.5043ZM15.0832 33.8648L15.084 33.8641L14.7413 33.5L15.084 33.8641C15.0837 33.8643 15.0835 33.8646 15.0832 33.8648ZM2.84273 45.3876C2.84294 45.3874 2.84314 45.3872 2.84335 45.387L2.84273 45.3876ZM2.82618 44.6446C2.82596 44.6444 2.82574 44.6442 2.82553 44.644L2.82618 44.6446ZM15.0397 55.12C15.0399 55.1201 15.0401 55.1203 15.0403 55.1205L14.7147 55.5L15.0403 55.1205L15.0397 55.12ZM54.5043 33.5C54.5043 32.1193 53.385 31 52.0043 31H14.7413C14.1044 31 13.4915 31.2431 13.0277 31.6797L14.0558 32.7719L13.0277 31.6797L0.786419 43.2032C-0.295597 44.2218 -0.255539 45.9537 0.872433 46.9212L13.0872 57.3976C13.5404 57.7863 14.1177 58 14.7147 58H52.0043C53.385 58 54.5043 56.8807 54.5043 55.5V33.5Z" fill="#005072"/>
<path fill-rule="evenodd" clip-rule="evenodd" d="M70.985 20C70.985 19.1716 71.6566 18.5 72.485 18.5H99.1856C100.014 18.5 100.686 19.1716 100.686 20C100.686 20.8284 100.014 21.5 99.1856 21.5H72.485C71.6566 21.5 70.985 20.8284 70.985 20ZM10.5 44.03C10.5 43.2016 11.1716 42.53 12 42.53H17.994C18.8224 42.53 19.494 43.2016 19.494 44.03C19.494 44.8584 18.8224 45.53 17.994 45.53H12C11.1716 45.53 10.5 44.8584 10.5 44.03ZM21.6707 44.03C21.6707 43.2016 22.3422 42.53 23.1707 42.53H42.5C43.3284 42.53 44 43.2016 44 44.03C44 44.8584 43.3284 45.53 42.5 45.53H23.1707C22.3422 45.53 21.6707 44.8584 21.6707 44.03ZM70.985 69C70.985 68.1716 71.6566 67.5 72.485 67.5H79.2964C80.1248 67.5 80.7964 68.1716 80.7964 69C80.7964 69.8284 80.1248 70.5 79.2964 70.5H72.485C71.6566 70.5 70.985 69.8284 70.985 69ZM84.0629 69C84.0629 68.1716 84.7344 67.5 85.5629 67.5H103C103.828 67.5 104.5 68.1716 104.5 69C104.5 69.8284 103.828 70.5 103 70.5H85.5629C84.7344 70.5 84.0629 69.8284 84.0629 69Z" fill="#005072"/>
<path fill-rule="evenodd" clip-rule="evenodd" d="M19 106.5C19 105.672 19.6716 105 20.5 105H99C99.8284 105 100.5 105.672 100.5 106.5C100.5 107.328 99.8284 108 99 108H20.5C19.6716 108 19 107.328 19 106.5Z" fill="#005072"/>
</svg>
