<svg width="123" height="114" viewBox="0 0 123 114" fill="none" xmlns="http://www.w3.org/2000/svg">
<path d="M0 12C0 9.79086 1.79086 8 4 8H112C114.209 8 116 9.79086 116 12V32H0V12Z" fill="#00B6ED"/>
<path fill-rule="evenodd" clip-rule="evenodd" d="M112 11H4C3.44772 11 3 11.4477 3 12V29H113V12C113 11.4477 112.552 11 112 11ZM4 8C1.79086 8 0 9.79086 0 12V32H116V12C116 9.79086 114.209 8 112 8H4Z" fill="#005072"/>
<path fill-rule="evenodd" clip-rule="evenodd" d="M110 11H6C4.34315 11 3 12.3431 3 14V96C3 97.6569 4.34315 99 6 99H110C111.657 99 113 97.6569 113 96V14C113 12.3431 111.657 11 110 11ZM6 8C2.68629 8 0 10.6863 0 14V96C0 99.3137 2.68629 102 6 102H110C113.314 102 116 99.3137 116 96V14C116 10.6863 113.314 8 110 8H6Z" fill="#005072"/>
<path d="M17 47C17 43.6863 19.6863 41 23 41H31C34.3137 41 37 43.6863 37 47V54C37 57.3137 34.3137 60 31 60H23C19.6863 60 17 57.3137 17 54V47Z" fill="#40CE97"/>
<path fill-rule="evenodd" clip-rule="evenodd" d="M31 44H23C21.3431 44 20 45.3431 20 47V54C20 55.6569 21.3431 57 23 57H31C32.6569 57 34 55.6569 34 54V47C34 45.3431 32.6569 44 31 44ZM23 41C19.6863 41 17 43.6863 17 47V54C17 57.3137 19.6863 60 23 60H31C34.3137 60 37 57.3137 37 54V47C37 43.6863 34.3137 41 31 41H23Z" fill="#005072"/>
<path d="M17 77C17 73.6863 19.6863 71 23 71H31C34.3137 71 37 73.6863 37 77V84C37 87.3137 34.3137 90 31 90H23C19.6863 90 17 87.3137 17 84V77Z" fill="#40CE97"/>
<path fill-rule="evenodd" clip-rule="evenodd" d="M31 74H23C21.3431 74 20 75.3431 20 77V84C20 85.6569 21.3431 87 23 87H31C32.6569 87 34 85.6569 34 84V77C34 75.3431 32.6569 74 31 74ZM23 71C19.6863 71 17 73.6863 17 77V84C17 87.3137 19.6863 90 23 90H31C34.3137 90 37 87.3137 37 84V77C37 73.6863 34.3137 71 31 71H23Z" fill="#005072"/>
<path d="M49 77C49 73.6863 51.6863 71 55 71H63C66.3137 71 69 73.6863 69 77V84C69 87.3137 66.3137 90 63 90H55C51.6863 90 49 87.3137 49 84V77Z" fill="#40CE97"/>
<path fill-rule="evenodd" clip-rule="evenodd" d="M63 74H55C53.3431 74 52 75.3431 52 77V84C52 85.6569 53.3431 87 55 87H63C64.6569 87 66 85.6569 66 84V77C66 75.3431 64.6569 74 63 74ZM55 71C51.6863 71 49 73.6863 49 77V84C49 87.3137 51.6863 90 55 90H63C66.3137 90 69 87.3137 69 84V77C69 73.6863 66.3137 71 63 71H55Z" fill="#005072"/>
<path d="M50 47C50 43.6863 52.6863 41 56 41H64C67.3137 41 70 43.6863 70 47V54C70 57.3137 67.3137 60 64 60H56C52.6863 60 50 57.3137 50 54V47Z" fill="#40CE97"/>
<path fill-rule="evenodd" clip-rule="evenodd" d="M64 44H56C54.3431 44 53 45.3431 53 47V54C53 55.6569 54.3431 57 56 57H64C65.6569 57 67 55.6569 67 54V47C67 45.3431 65.6569 44 64 44ZM56 41C52.6863 41 50 43.6863 50 47V54C50 57.3137 52.6863 60 56 60H64C67.3137 60 70 57.3137 70 54V47C70 43.6863 67.3137 41 64 41H56Z" fill="#005072"/>
<path d="M82 47C82 43.6863 84.6863 41 88 41H96C99.3137 41 102 43.6863 102 47V54C102 57.3137 99.3137 60 96 60H88C84.6863 60 82 57.3137 82 54V47Z" fill="#40CE97"/>
<path fill-rule="evenodd" clip-rule="evenodd" d="M96 44H88C86.3431 44 85 45.3431 85 47V54C85 55.6569 86.3431 57 88 57H96C97.6569 57 99 55.6569 99 54V47C99 45.3431 97.6569 44 96 44ZM88 41C84.6863 41 82 43.6863 82 47V54C82 57.3137 84.6863 60 88 60H96C99.3137 60 102 57.3137 102 54V47C102 43.6863 99.3137 41 96 41H88Z" fill="#005072"/>
<path d="M123 89.5C123 103.031 112.031 114 98.5 114C84.969 114 74 103.031 74 89.5C74 75.969 84.969 65 98.5 65C112.031 65 123 75.969 123 89.5Z" fill="white"/>
<path fill-rule="evenodd" clip-rule="evenodd" d="M98.5 111C110.374 111 120 101.374 120 89.5C120 77.6259 110.374 68 98.5 68C86.6259 68 77 77.6259 77 89.5C77 101.374 86.6259 111 98.5 111ZM98.5 114C112.031 114 123 103.031 123 89.5C123 75.969 112.031 65 98.5 65C84.969 65 74 75.969 74 89.5C74 103.031 84.969 114 98.5 114Z" fill="#005072"/>
<path fill-rule="evenodd" clip-rule="evenodd" d="M98.5 77C99.3284 77 100 77.6716 100 78.5V92.4845L106.557 95.1073C107.326 95.415 107.7 96.2879 107.393 97.0571C107.085 97.8263 106.212 98.2004 105.443 97.8927L98.5715 95.1442C97.6224 94.7645 97 93.8452 97 92.823V78.5C97 77.6716 97.6716 77 98.5 77Z" fill="#37B183"/>
<path d="M19 7.5C19 3.35786 22.3579 0 26.5 0C30.6421 0 34 3.35786 34 7.5V15.5C34 19.6421 30.6421 23 26.5 23C22.3579 23 19 19.6421 19 15.5V7.5Z" fill="white"/>
<path fill-rule="evenodd" clip-rule="evenodd" d="M31 15.5V7.5C31 5.01472 28.9853 3 26.5 3C24.0147 3 22 5.01472 22 7.5V15.5C22 17.9853 24.0147 20 26.5 20C28.9853 20 31 17.9853 31 15.5ZM26.5 0C22.3579 0 19 3.35786 19 7.5V15.5C19 19.6421 22.3579 23 26.5 23C30.6421 23 34 19.6421 34 15.5V7.5C34 3.35786 30.6421 0 26.5 0Z" fill="#005072"/>
<path d="M79 7.5C79 3.35786 82.3579 0 86.5 0C90.6421 0 94 3.35786 94 7.5V15.5C94 19.6421 90.6421 23 86.5 23C82.3579 23 79 19.6421 79 15.5V7.5Z" fill="white"/>
<path fill-rule="evenodd" clip-rule="evenodd" d="M91 15.5V7.5C91 5.01472 88.9853 3 86.5 3C84.0147 3 82 5.01472 82 7.5V15.5C82 17.9853 84.0147 20 86.5 20C88.9853 20 91 17.9853 91 15.5ZM86.5 0C82.3579 0 79 3.35786 79 7.5V15.5C79 19.6421 82.3579 23 86.5 23C90.6421 23 94 19.6421 94 15.5V7.5C94 3.35786 90.6421 0 86.5 0Z" fill="#005072"/>
</svg>
