<svg width="131" height="99" viewBox="0 0 131 99" fill="none" xmlns="http://www.w3.org/2000/svg">
<path d="M117.328 38L95 10.6875L104.185 3.61441C106.787 1.61084 110.517 2.07127 112.553 4.64753L126.491 22.2793C128.461 24.772 128.147 28.3688 125.773 30.4815L117.328 38Z" fill="#40CE97"/>
<path d="M10.7419 41L37 9.87302L25.8137 5.46951C23.5543 4.58009 20.9815 5.14015 19.2963 6.88829L3.57304 23.1984C1.51749 25.3306 1.32531 28.6438 3.12053 30.9994L10.7419 41Z" fill="#AAC9E7"/>
<path fill-rule="evenodd" clip-rule="evenodd" d="M103.531 2.71683C106.688 0.719249 110.834 1.35301 113.25 4.20244L128.704 22.4284C131.497 25.7232 130.933 30.6916 127.471 33.2756L118.796 39.7509L110.518 58.5098C112.256 60.5313 112.889 63.3054 112.16 65.9072C111.301 68.9735 108.71 71.2418 105.557 71.6883L102.398 72.1357C102.561 76.9101 98.4441 80.8605 93.6382 80.439C93.3686 86.1147 88.3459 90.3138 82.8214 89.7293L82.1634 91.8367C81.383 94.3359 79.5332 96.3595 77.1139 97.3606C74.6805 98.3675 71.9246 98.235 69.5991 96.9994L64.6301 94.3592C63.8985 93.9704 63.6206 93.0623 64.0093 92.3307C64.398 91.5991 65.3062 91.3212 66.0378 91.7099L71.0067 94.3501C72.5417 95.1657 74.3607 95.2532 75.9668 94.5886C77.5637 93.9278 78.7846 92.5921 79.2997 90.9425L80.0782 88.4493L71.1924 79.6949C70.6023 79.1135 70.5952 78.1638 71.1767 77.5736C71.7581 76.9835 72.7078 76.9764 73.2979 77.5579L82.5307 86.6542C86.7042 87.4709 90.6496 84.2751 90.6496 79.9585V79.3032L75.3994 65.844C74.7783 65.2958 74.7191 64.3479 75.2673 63.7268C75.8155 63.1057 76.7634 63.0466 77.3845 63.5947L92.8677 77.2595L93.0772 77.3117C96.6415 78.2001 99.8933 75.1469 99.3384 71.6039L78.6573 51.2552C78.0668 50.6741 78.0591 49.7244 78.6401 49.1339C79.2212 48.5434 80.1709 48.5357 80.7614 49.1167L101.243 69.2694L105.137 68.718C107.111 68.4383 108.733 67.0179 109.271 65.0978C109.774 63.3026 109.242 61.3763 107.889 60.0939L107.721 59.9353L78.2776 33.6777C75.3923 31.1046 71.7492 29.5385 67.8968 29.2152L65.2367 28.9919C62.1778 28.7352 59.2197 30.1553 57.5071 32.7028L52.6709 39.8963C50.7106 42.8122 47.174 44.2428 43.7377 43.5099L43.4357 43.4455C41.7831 43.093 40.2925 42.2061 39.1944 40.9218C37.0297 38.3901 36.7409 34.7527 38.4788 31.911L49.2185 14.3507L37.9154 10.9356L12.5474 40.5668L25.7246 56.8862C26.245 57.5307 26.1444 58.4751 25.4999 58.9956C24.8553 59.516 23.9109 59.4154 23.3905 58.7709L9.53498 41.6114L6.39103 39.1255C0.412121 34.398 -0.461795 25.6579 4.4627 19.8402L14.8434 7.5766C18.9308 2.74776 25.8262 1.41069 31.4222 4.36184L37.9845 7.82253L51.5816 11.9307L70.7161 7.99949C71.6583 7.80592 72.6216 7.7358 73.5819 7.79089L93.6897 8.94443L103.531 2.71683ZM93.3473 11.9297L115.836 39.0283L108.197 56.3394L80.2743 31.4387C76.9038 28.4329 72.648 26.6034 68.1477 26.2257L65.4876 26.0025C61.3441 25.6547 57.3373 27.5783 55.0174 31.029L50.1813 38.2225C48.9046 40.1215 46.6013 41.0532 44.3634 40.5759L44.0615 40.5115C43.0535 40.2965 42.1443 39.7556 41.4746 38.9722C40.1543 37.428 39.9781 35.2095 41.0381 33.4763L52.4513 14.8147L71.3198 10.9381C72.007 10.7969 72.7097 10.7458 73.4101 10.786L93.3473 11.9297ZM117.827 36.7304L125.677 30.8715C127.752 29.3224 128.09 26.3438 126.416 24.3685L110.962 6.14256L112.106 5.1725L110.962 6.14256C109.514 4.43431 107.028 4.05436 105.136 5.25193L96.3287 10.8247L117.827 36.7304ZM35.0518 9.66756L30.0228 7.01545C25.6721 4.72101 20.3111 5.76054 17.1332 9.51484L6.7525 21.7784C2.92384 26.3016 3.60329 33.0968 8.25173 36.7723L10.3955 38.4674L35.0518 9.66756Z" fill="#005072"/>
<path fill-rule="evenodd" clip-rule="evenodd" d="M33.5003 56.2659C34.0561 56.8802 34.0086 57.8288 33.3943 58.3846L25.8049 65.2507C25.1906 65.8065 24.242 65.759 23.6863 65.1447C23.1305 64.5304 23.1779 63.5818 23.7923 63.026L31.3816 56.1599C31.9959 55.6041 32.9445 55.6516 33.5003 56.2659Z" fill="#005072"/>
<path fill-rule="evenodd" clip-rule="evenodd" d="M61.9604 82.585C62.5161 83.1993 62.4687 84.1479 61.8544 84.7037L53.0001 92.7141C52.3858 93.2699 51.4372 93.2225 50.8815 92.6081C50.3257 91.9938 50.3731 91.0453 50.9874 90.4895L59.8417 82.479C60.456 81.9232 61.4046 81.9707 61.9604 82.585Z" fill="#005072"/>
<path fill-rule="evenodd" clip-rule="evenodd" d="M55.636 71.1431C56.1918 71.7574 56.1443 72.706 55.53 73.2618L41.6162 85.8497C41.0019 86.4054 40.0533 86.358 39.4975 85.7437C38.9418 85.1293 38.9892 84.1808 39.6035 83.625L53.5173 71.0371C54.1317 70.4813 55.0802 70.5288 55.636 71.1431Z" fill="#005072"/>
<path fill-rule="evenodd" clip-rule="evenodd" d="M46.7818 61.9868C47.3375 62.6012 47.2901 63.5497 46.6758 64.1055L32.762 76.6934C32.1476 77.2492 31.1991 77.2017 30.6433 76.5874C30.0875 75.9731 30.135 75.0245 30.7493 74.4687L44.6631 61.8808C45.2774 61.3251 46.226 61.3725 46.7818 61.9868Z" fill="#005072"/>
</svg>
