<svg width="101" height="98" viewBox="0 0 101 98" fill="none" xmlns="http://www.w3.org/2000/svg">
<g clip-path="url(#clip0_5327_36994)">
<path d="M47.7481 73.898C44.6848 75.8251 41.2496 74.9485 39.9918 74.0245C39.8959 73.9541 39.8748 73.8226 39.9371 73.7213C40.6465 72.5683 41.3362 72.5657 41.6026 72.719C42.4965 70.4896 44.0236 69.5749 44.6754 69.3963L45.0944 68.2709L51.333 65.8057C51.6124 69.9858 50.9513 71.8829 47.7481 73.898Z" fill="white"/>
<path fill-rule="evenodd" clip-rule="evenodd" d="M51.5613 65.4453L51.5843 65.7893C51.7246 67.8882 51.6332 69.4572 51.0783 70.7626C50.5198 72.0766 49.5071 73.0893 47.8823 74.1114C46.2984 75.1079 44.619 75.3786 43.1762 75.2819C41.7401 75.1857 40.5182 74.7238 39.8429 74.2278C39.6342 74.0744 39.5968 73.7948 39.7229 73.5899C40.3319 72.6 40.9976 72.3298 41.4605 72.407C42.3396 70.3864 43.7324 69.4551 44.4826 69.1935L44.8978 68.0784L51.5613 65.4453ZM45.2913 68.4642L44.8664 69.6054L44.742 69.6394C44.1718 69.7957 42.7032 70.6511 41.8364 72.8131L41.7285 73.0821L41.4772 72.9375C41.3868 72.8855 40.836 72.7515 40.1618 73.8372C40.7501 74.2603 41.8641 74.6895 43.2099 74.7797C44.565 74.8705 46.1349 74.616 47.6143 73.6854C49.1926 72.6924 50.1121 71.7491 50.615 70.5657C51.0932 69.4407 51.2087 68.0682 51.1032 66.1676L45.2913 68.4642Z" fill="#004070"/>
<path d="M76.0817 30.0957C75.7649 27.7876 77.3074 23.2882 78.1183 21.3271L70.4246 17.3105C69.0291 17.8763 66.2496 20.2636 66.2949 25.2871C66.3514 31.5665 76.4777 32.9808 76.0817 30.0957Z" fill="white"/>
<path fill-rule="evenodd" clip-rule="evenodd" d="M70.438 17.0342L78.4389 21.2111L78.351 21.4239C77.949 22.3961 77.3644 24.001 76.9202 25.6474C76.473 27.3053 76.1804 28.9632 76.3312 30.062C76.3919 30.5048 76.2471 30.8788 75.9499 31.1588C75.6631 31.4288 75.2484 31.5997 74.776 31.6921C73.829 31.8774 72.5548 31.7663 71.283 31.3689C68.7487 30.577 66.073 28.5902 66.0433 25.29C65.9971 20.1633 68.8388 17.6825 70.3301 17.0779L70.438 17.0342ZM70.4141 17.5895C69.0789 18.1934 66.5035 20.4942 66.5466 25.2854C66.5735 28.2646 68.9892 30.1247 71.4332 30.8885C72.6506 31.2689 73.8372 31.3629 74.6793 31.1981C75.1014 31.1156 75.4133 30.9727 75.6048 30.7923C75.7857 30.6219 75.8707 30.409 75.8325 30.1305C75.6665 28.9212 75.9867 27.1754 76.4342 25.5163C76.8538 23.9609 77.396 22.4446 77.7988 21.4448L70.4141 17.5895Z" fill="#005072"/>
<path fill-rule="evenodd" clip-rule="evenodd" d="M67.5792 53.457C59.1821 49.414 50.0437 49.0423 41.6797 50.0351C31.0184 51.3005 26.9736 46.764 26.2839 44.3376C25.0585 46.4181 28.1493 49.1954 29.8478 50.3239C28.7504 50.3632 25.0511 48.2732 23.3386 47.2233C22.9385 48.84 27.3129 53.9152 45.9468 55.075C53.3404 55.5352 59.1347 56.9094 63.6867 58.6958L67.5792 53.457Z" fill="#40CE97"/>
<path d="M50.2157 95.1194C52.0779 87.7452 57.1371 78.6847 59.434 75.0762L77.8706 82.1503C76.8774 84.3296 73.0845 90.3819 65.8589 97.1559C56.8268 105.623 47.8878 104.337 50.2157 95.1194Z" fill="#0081A2"/>
<path fill-rule="evenodd" clip-rule="evenodd" d="M59.3323 74.7666L78.2108 82.0102L78.0998 82.2537C77.0901 84.4692 73.2752 90.5474 66.0312 97.3386C61.4934 101.593 56.9276 103.448 53.7438 103.018C52.1382 102.801 50.8782 101.999 50.1835 100.63C49.4942 99.2717 49.3814 97.3947 49.9718 95.0569C51.8441 87.643 56.9209 78.5551 59.2218 74.9401L59.3323 74.7666ZM59.5365 75.3841C57.1962 79.0957 52.283 87.9608 50.4599 95.1801C49.8863 97.4512 50.018 99.1916 50.6323 100.402C51.2412 101.602 52.344 102.321 53.8112 102.519C56.7729 102.92 61.1926 101.185 65.6869 96.9714C72.6389 90.4539 76.3936 84.616 77.5274 82.2872L59.5365 75.3841Z" fill="#005072"/>
<path d="M58.6891 75.2904C58.0931 73.8327 58.0683 68.0377 58.1304 65.3224L80.8503 62.3212C81.9988 59.9275 84.4259 56.8763 84.9474 63.8218C85.5992 72.5036 85.3198 70.7887 82.992 78.0772C80.6641 85.3656 59.434 77.1125 58.6891 75.2904Z" fill="#AAC9E7"/>
<path fill-rule="evenodd" clip-rule="evenodd" d="M84.4748 60.2099C84.8153 60.9077 85.0673 62.0589 85.1982 63.8027C85.5232 68.1316 85.6209 69.9099 85.3347 71.5159C85.1913 72.3203 84.9529 73.0763 84.6091 74.0773C84.5299 74.3081 84.4449 74.5522 84.354 74.8134C84.0497 75.6875 83.6788 76.7532 83.2316 78.1534C82.6026 80.1226 80.7034 80.9971 78.3411 81.223C75.9708 81.4497 73.0437 81.0371 70.1875 80.3445C67.3271 79.651 64.5174 78.6717 62.3738 77.7504C61.3024 77.2899 60.3926 76.8419 59.724 76.4489C59.3902 76.2527 59.1113 76.0671 58.9011 75.8977C58.7008 75.7363 58.5286 75.5631 58.4559 75.3853C58.292 74.9843 58.1763 74.3161 58.0912 73.5264C58.0052 72.7275 57.9479 71.7751 57.9113 70.787C57.8381 68.8103 57.8475 66.6776 57.8786 65.3163L57.8835 65.1008L80.6831 62.0892C80.9658 61.516 81.3186 60.9117 81.7023 60.415C81.908 60.1487 82.1265 59.9082 82.3522 59.7194C82.5762 59.532 82.8198 59.385 83.0756 59.3242C83.3399 59.2613 83.6091 59.2932 83.8587 59.4504C84.1003 59.6025 84.3036 59.8593 84.4748 60.2099ZM82.1007 60.7227C81.7176 61.2186 81.3593 61.8416 81.0771 62.4298L81.0182 62.5526L58.3772 65.5433C58.3501 66.9004 58.3454 68.9056 58.4143 70.7684C58.4507 71.7507 58.5074 72.69 58.5917 73.4725C58.677 74.2643 58.7879 74.8671 58.9219 75.1949C58.9423 75.2448 59.0233 75.3497 59.217 75.5058C59.4007 75.6539 59.6566 75.8254 59.9791 76.015C60.6233 76.3936 61.5125 76.8323 62.5725 77.2879C64.6918 78.1988 67.4748 79.1689 70.3061 79.8553C73.1414 80.5428 76.0049 80.9408 78.2932 80.7219C80.5896 80.5023 82.2171 79.6753 82.7521 78.0003C83.2015 76.5932 83.5752 75.5194 83.8797 74.6448C83.9702 74.3847 84.0546 74.1422 84.133 73.9138C84.476 72.9152 84.7031 72.1907 84.8391 71.4275C85.1116 69.8984 85.0231 68.1933 84.6963 63.8404C84.5664 62.1114 84.3195 61.0394 84.0224 60.4307C83.8747 60.1281 83.7245 59.9607 83.5905 59.8763C83.4643 59.7969 83.3355 59.7798 83.192 59.8139C83.0401 59.85 82.8661 59.9458 82.6752 60.1055C82.486 60.2638 82.2922 60.4748 82.1007 60.7227Z" fill="#005072"/>
<path d="M60.3649 55.4621L57.2456 46.6731C57.2581 46.5427 57.2711 46.4092 57.2844 46.2727C54.2565 47.9474 50.6296 49.3992 48.2599 50.2102L51.9845 64.5727C50.4016 68.2169 47.2358 68.7885 45.1872 68.2169C41.9282 63.215 36.6962 51.429 39.1347 43.4576C41.3562 36.1957 57.5682 29.9098 59.8555 29.6294C60.6779 29.1592 63.2062 29.0772 64.3688 29.0951C63.6984 28.109 63.748 26.7549 63.8567 26.2011C68.2889 27.0586 70.5764 25.3794 71.1661 24.4326L75.496 28.8271L76.4737 26.2011L78.01 28.6664C82.4795 28.3234 84.6522 28.9164 85.1798 29.2559C85.348 29.5333 85.4961 29.8652 85.6259 30.2442L90.1615 38.3128L90.9995 33.5968L97.7037 30.81C99.4892 36.5778 101.504 49.0257 96.491 55.7238C95.7128 56.7635 94.5609 57.443 93.3863 57.2078C92.003 56.9308 90.4018 55.9446 88.2992 53.8544C87.1495 52.7114 86.2741 51.6657 85.7281 51.0136C85.6678 50.9414 85.6114 50.8741 85.5592 50.812C85.382 52.4111 85.2203 53.6954 85.1236 54.4637C85.0834 54.7836 85.0544 55.0141 85.0402 55.1406C84.8912 56.4696 84.6988 60.4104 84.6212 62.2146L58.5492 64.1439C58.456 63.608 58.3909 62.0432 58.8751 60.071C59.3592 58.0988 60.07 56.1767 60.3649 55.4621Z" fill="#AAC9E7"/>
<path fill-rule="evenodd" clip-rule="evenodd" d="M71.1215 24.0283L75.3981 28.3688L76.4166 25.6333L78.1433 28.4038C80.3153 28.2455 81.9442 28.3084 83.1049 28.4553C84.2806 28.6041 85.0029 28.8424 85.3162 29.044L85.3651 29.0754L85.3953 29.1252C85.5718 29.4165 85.7244 29.7582 85.8567 30.1406L90.0368 37.5768L90.776 33.417L97.8626 30.4713L97.9443 30.7354C98.8428 33.6379 99.7978 38.2152 99.8987 42.9125C99.9995 47.6019 99.25 52.4577 96.6927 55.8744C95.8833 56.9558 94.6441 57.7161 93.337 57.4543C91.8801 57.1626 90.2353 56.1336 88.1219 54.0326C87.1009 53.0176 86.2949 52.079 85.7439 51.4237C85.5928 52.7527 85.4583 53.8212 85.3737 54.4939L85.3735 54.495C85.3331 54.8159 85.3044 55.0441 85.2905 55.1684C85.1427 56.4868 84.9506 60.4171 84.8728 62.2252L84.8632 62.4489L58.3404 64.4116L58.3014 64.1868C58.2016 63.6128 58.1393 62.0126 58.6308 60.0108C59.0998 58.1008 59.7787 56.2396 60.0958 55.4556L56.9944 46.7173C54.1325 48.2553 50.8314 49.5834 48.5621 50.372L52.25 64.5932L52.2155 64.6727C50.575 68.4498 47.2699 69.0591 45.1198 68.4591L45.0284 68.4336L44.9766 68.3541C43.3347 65.8341 41.2018 61.6159 39.7841 57.0249C38.3686 52.4408 37.6527 47.4421 38.8942 43.3838C39.47 41.5017 40.9414 39.7092 42.8235 38.0821C44.7098 36.4514 47.0329 34.9663 49.3502 33.7042C51.6687 32.4415 53.9885 31.3983 55.873 30.6529C56.8152 30.2801 57.6502 29.9812 58.3232 29.7663C58.9566 29.564 59.4601 29.4315 59.776 29.386C60.015 29.2602 60.3412 29.1682 60.6954 29.098C61.0784 29.022 61.5176 28.9673 61.9628 28.9283C62.6553 28.8677 63.3726 28.8444 63.9338 28.8413C63.7232 28.4046 63.6168 27.9376 63.5706 27.513C63.51 26.9567 63.5507 26.4542 63.6099 26.1525L63.6582 25.9061L63.9047 25.9538C68.2624 26.7969 70.4317 25.1358 70.9527 24.2993L71.1215 24.0283ZM71.1957 24.8208C70.3548 25.8478 68.0657 27.1948 64.0677 26.4957C64.0404 26.7504 64.0309 27.0901 64.071 27.4585C64.1261 27.9645 64.2726 28.5055 64.5771 28.9534L64.8495 29.354L64.3651 29.3465C63.7904 29.3377 62.8765 29.3536 62.0067 29.4297C61.5717 29.4678 61.152 29.5206 60.7933 29.5917C60.4287 29.664 60.1496 29.7511 59.9807 29.8477L59.9367 29.8728L59.8864 29.879C59.626 29.9109 59.1422 30.0331 58.4764 30.2458C57.8163 30.4566 56.9921 30.7515 56.0581 31.1209C54.1901 31.8599 51.8892 32.8946 49.591 34.1462C47.2918 35.3984 45.0023 36.8639 43.1526 38.4629C41.2987 40.0657 39.9105 41.7822 39.3755 43.531C38.1785 47.4441 38.8594 52.3241 40.2651 56.8764C41.6535 61.3727 43.7359 65.5075 45.346 67.9986C47.2801 68.4965 50.207 67.9381 51.7191 64.551L47.9579 50.0474L48.1786 49.9718C50.5395 49.1639 54.1517 47.7176 57.1628 46.0522L57.5817 45.8205L57.5351 46.297C57.5236 46.414 57.5125 46.5289 57.5016 46.6414L60.6345 55.4687L60.5977 55.5579C60.3065 56.2637 59.6002 58.1736 59.1197 60.1308C58.7006 61.8378 58.7023 63.2259 58.7676 63.8752L84.3796 61.98C84.4625 60.0945 84.646 56.399 84.7903 55.1123C84.8046 54.9842 84.8338 54.7525 84.8737 54.4354L84.8741 54.4321C84.9708 53.664 85.1323 52.3812 85.3092 50.7841L85.3739 50.2004L85.7519 50.6498C85.8044 50.7121 85.8609 50.7796 85.9212 50.8516L85.9213 50.8518C86.4668 51.5033 87.3359 52.5414 88.4768 53.6757C90.5686 55.7552 92.1262 56.6985 93.4359 56.9608C94.478 57.1695 95.5426 56.5709 96.2897 55.5728C98.7457 52.2914 99.4954 47.5743 99.3955 42.9233C99.2988 38.4205 98.4069 34.0237 97.5441 31.1488L91.2234 33.7761L90.2865 39.0484L85.3954 30.3473L85.388 30.3255C85.2708 29.9833 85.1402 29.6868 84.9962 29.439C84.7447 29.2998 84.1254 29.0919 83.0417 28.9547C81.8938 28.8094 80.2507 28.7466 78.0295 28.9171L77.8774 28.9288L76.5311 26.7686L75.5942 29.285L71.1957 24.8208Z" fill="#005072"/>
<path d="M90.9066 74.4334C70.4215 63.7151 61.079 69.0385 58.9684 73.04C56.0819 87.9385 97.0522 97.1562 99.8456 88.4744C102.08 81.5289 94.8174 76.2198 90.9066 74.4334Z" fill="#0081A2"/>
<path fill-rule="evenodd" clip-rule="evenodd" d="M59.2084 73.1234C58.533 76.6999 60.4672 79.972 63.9034 82.7612C67.3477 85.5568 72.2521 87.8222 77.3495 89.3576C82.4458 90.8925 87.7112 91.6906 91.8666 91.5677C93.9456 91.5062 95.7314 91.2145 97.0757 90.6798C98.4211 90.1446 99.2889 89.3815 99.6059 88.3961C100.688 85.034 99.4798 82.0588 97.4877 79.6796C95.4925 77.2967 92.7329 75.5431 90.802 74.6611L90.7959 74.6583L90.7899 74.6552C80.5733 69.3096 73.1662 67.981 68.0708 68.4661C63.0043 68.9484 60.2299 71.2205 59.2084 73.1234ZM91.0173 74.206C80.7517 68.8359 73.247 67.4677 68.0231 67.965C62.7986 68.4624 59.8492 70.8294 58.7457 72.9214L58.7283 72.9543L58.7213 72.9909C57.9737 76.8493 60.0768 80.3035 63.5862 83.152C67.0993 86.0035 72.0709 88.2934 77.2044 89.8396C82.3391 91.3861 87.6596 92.1957 91.8815 92.0708C93.9913 92.0084 95.842 91.7123 97.2617 91.1475C98.6802 90.5833 99.7038 89.7352 100.085 88.5502C101.238 84.9668 99.932 81.8148 97.8736 79.3564C95.8204 76.9043 92.9968 75.1113 91.0173 74.206Z" fill="#005072"/>
<path d="M88.113 107.339L73.2147 101.658C75.5984 94.5409 80.9122 89.046 83.2711 87.1882C87.8337 83.4368 97.5548 77.5417 99.9385 83.9727C102.322 90.4037 93.0481 102.23 88.113 107.339Z" fill="#0081A2"/>
<path fill-rule="evenodd" clip-rule="evenodd" d="M59.9371 29.3697C60.0042 29.3662 60.0905 29.3667 60.1678 29.3934C60.2991 29.4387 60.3689 29.582 60.3235 29.7134C60.2792 29.8416 60.1419 29.9111 60.0132 29.8723C60.0106 29.8722 59.9958 29.8707 59.9633 29.8724C59.9166 29.8748 59.8514 29.8827 59.7663 29.8978C59.5966 29.9278 59.3667 29.9828 59.0819 30.0631C58.5134 30.2235 57.744 30.4797 56.8352 30.8214C55.0184 31.5047 52.6565 32.5254 50.2514 33.7929C47.8453 35.0609 45.4033 36.5721 43.4214 38.2346C41.4343 39.9014 39.9363 41.6983 39.3755 43.5315C38.1785 47.4445 38.8594 52.3245 40.2651 56.8768C41.6535 61.3732 43.7359 65.508 45.346 67.9991C47.2801 68.497 50.207 67.9385 51.7191 64.5515L47.9579 50.0478L48.1786 49.9723C50.4666 49.1893 53.9306 47.8065 56.8836 46.2056C58.3607 45.4048 59.7008 44.5542 60.7004 43.7024C61.7105 42.8418 62.3285 42.0169 62.4441 41.2754C62.4655 41.1381 62.5942 41.0441 62.7316 41.0655C62.8689 41.087 62.9629 41.2157 62.9415 41.353C62.7964 42.2836 62.0542 43.2103 61.0269 44.0855C59.9893 44.9696 58.6151 45.8394 57.1235 46.6481C54.2325 48.2155 50.8659 49.5718 48.5621 50.3725L52.25 64.5937L52.2155 64.6732C50.575 68.4502 47.2699 69.0596 45.1198 68.4596L45.0284 68.4341L44.9766 68.3545C43.3347 65.8345 41.2018 61.6164 39.7841 57.0253C38.3686 52.4413 37.6527 47.4426 38.8942 43.3843C39.4974 41.4125 41.0839 39.5383 43.0979 37.8489C45.1169 36.1553 47.5926 34.6251 50.0168 33.3476C52.442 32.0695 54.8232 31.0403 56.6581 30.3503C57.5752 30.0054 58.3589 29.7441 58.9452 29.5787C59.2379 29.4962 59.4857 29.4362 59.6786 29.4021C59.7748 29.3851 59.8621 29.3736 59.9371 29.3697Z" fill="#004070"/>
<path d="M91.01 27.1152C89.5093 31.3501 90.9567 33.8792 91.8678 34.4847C92.6183 35.1075 96.0697 34.5781 93.7971 33.9138C91.5246 33.2495 90.9922 29.1046 91.01 27.1152Z" fill="white"/>
<path fill-rule="evenodd" clip-rule="evenodd" d="M90.833 28.635C90.1133 31.9158 91.3181 33.8163 92.0071 34.2742L92.0182 34.2816L92.0285 34.2901C92.0829 34.3353 92.1799 34.383 92.3251 34.4224C92.4669 34.4608 92.6374 34.4867 92.823 34.4996C93.1952 34.5257 93.603 34.4983 93.9156 34.4344C94.0458 34.4078 94.1507 34.3766 94.2263 34.3448C94.1287 34.2906 93.9693 34.2255 93.7264 34.1545C92.4572 33.7835 91.7221 32.4629 91.3037 31.0836C91.0587 30.2757 90.9117 29.414 90.833 28.635ZM94.3246 34.4147C94.3244 34.4147 94.3231 34.4133 94.3213 34.4105C94.3239 34.4133 94.3248 34.4147 94.3246 34.4147ZM91.7179 34.6864C90.6805 33.9855 89.2526 31.3199 90.7727 27.0303L91.2617 27.1166C91.2529 28.0935 91.3799 29.6004 91.7855 30.9375C92.197 32.2941 92.8644 33.378 93.8677 33.6713C94.1597 33.7567 94.3807 33.8454 94.5318 33.9409C94.6643 34.0246 94.8364 34.1744 94.8098 34.3994C94.7972 34.5063 94.7415 34.5875 94.6854 34.6434C94.6298 34.6988 94.5624 34.7413 94.4962 34.7746C94.3638 34.8411 94.1951 34.8911 94.0164 34.9276C93.6564 35.0012 93.2027 35.0309 92.7878 35.0018C92.5798 34.9873 92.3753 34.9575 92.1935 34.9083C92.0201 34.8613 91.8496 34.7919 91.7179 34.6864Z" fill="#005072"/>
<path d="M15.2599 76.268C7.999 87.0642 2.46021 85.2648 0.598429 83.0156C0.8378 86.5306 4.68769 87.0955 6.58272 86.9386C5.78481 87.9429 3.79005 90.0771 0 88.9786C0.598429 91.2278 7.16429 94.4773 21.2442 78.4649C36.3016 61.3409 48.2281 67.4292 64.3311 71.4034C68.1524 71.9627 92.9243 72.7731 90.263 56.0251C89.6247 52.0079 87.1021 51.8928 85.6393 52.102L84.9962 56.2822C79.9428 59.6821 66.679 63.5945 53.2602 59.1635C37.1026 53.8282 24.3361 62.7727 15.2599 76.268Z" fill="#40CE97"/>
<path d="M70.0283 14.0289C69.5305 9.05063 71.9706 6.52378 73.2528 5.88263C76.466 1.8095 80.362 5.20378 81.9083 7.41006C84.5672 17.3666 80.3663 21.6926 79.1929 22.2317C77.0998 23.1935 70.594 20.5912 69.7455 16.3483C68.6637 10.9389 70.6506 20.2518 70.0283 14.0289Z" fill="white"/>
<path fill-rule="evenodd" clip-rule="evenodd" d="M78.2976 4.05798C79.9307 4.69838 81.3266 6.14228 82.1144 7.26633L82.14 7.30281L82.1515 7.34585C83.4921 12.3661 83.1089 15.9899 82.2244 18.4387C81.7826 19.6618 81.2167 20.589 80.6815 21.2479C80.151 21.9012 79.6395 22.3042 79.298 22.4612C78.7029 22.7346 77.8403 22.741 76.9059 22.5628C75.9609 22.3825 74.9012 22.0055 73.8843 21.4647C71.862 20.389 69.9446 18.6279 69.4987 16.3984C69.3635 15.7224 69.2759 15.2744 69.225 14.9969C69.1998 14.859 69.1829 14.7593 69.1739 14.6938C69.1697 14.6631 69.1658 14.6304 69.1651 14.6025L69.1651 14.6016C69.1648 14.5924 69.1638 14.5573 69.1741 14.5183L69.1742 14.5175C69.1779 14.5036 69.1968 14.4309 69.2689 14.3774C69.3138 14.3441 69.3711 14.3248 69.4323 14.3279C69.488 14.3307 69.5296 14.3509 69.5535 14.3658C69.5969 14.3927 69.621 14.4261 69.6275 14.4351C69.6376 14.449 69.6446 14.4615 69.6486 14.4691C69.6569 14.4845 69.6633 14.4996 69.6677 14.5103C69.6768 14.5327 69.6864 14.5597 69.6956 14.5872C69.7145 14.6433 69.7381 14.7194 69.7644 14.8052C69.775 14.84 69.7862 14.8767 69.7978 14.9149C69.8213 14.9922 69.8466 15.0754 69.8732 15.1612C69.8536 14.867 69.8226 14.5022 69.7779 14.0547C69.2764 9.04041 71.6991 6.41297 73.0897 5.68419C73.9096 4.65949 74.7873 4.08338 75.6797 3.84992C76.5837 3.6134 77.4756 3.73566 78.2976 4.05798ZM70.0417 16.5184C70.5235 18.4333 72.2264 20.0127 74.1207 21.0203C75.098 21.5401 76.1101 21.8985 77.0002 22.0683C77.9009 22.2401 78.6364 22.2112 79.0879 22.0038C79.333 21.8911 79.7867 21.5513 80.2908 20.9306C80.7902 20.3157 81.3283 19.438 81.751 18.2677C82.5931 15.9363 82.9811 12.4326 81.6767 7.519C80.9142 6.44291 79.6017 5.11006 78.1138 4.5266C77.3668 4.23371 76.5856 4.13322 75.8071 4.33689C75.0294 4.54036 74.2273 5.05447 73.4505 6.03924L73.4157 6.08335L73.3654 6.10847C72.1822 6.70006 69.7906 9.12374 70.2787 14.0046C70.3567 14.7844 70.3945 15.3273 70.4021 15.6888C70.4058 15.8687 70.4023 16.0108 70.3908 16.1177C70.3851 16.1709 70.3768 16.2223 70.3637 16.2685C70.3524 16.3083 70.3297 16.3742 70.2773 16.4296C70.2482 16.4604 70.2054 16.4924 70.1478 16.509C70.1109 16.5196 70.0749 16.5218 70.0417 16.5184Z" fill="#005072"/>
<path d="M82.3614 9.33428C81.0953 4.90297 77.6296 4.87089 75.7932 5.40911C75.7087 5.43386 75.624 5.45462 75.5371 5.46864L73.9942 5.71747L68.5959 1.39891L69.8484 0.319235C70.0517 0.14393 70.3101 0.0364373 70.5782 0.0223878C79.2504 -0.432036 82.5739 6.14598 82.3614 9.33428Z" fill="#005072"/>
<path d="M61.4866 31.9064C55.5118 29.6147 56.2254 16.7583 62.5656 5.11537C63.878 2.70531 66.2331 1.08545 68.887 0.387058C69.0025 0.35665 69.1243 0.37268 69.2271 0.433617C72.3121 2.26281 76.6335 5.49479 74.4983 6.56241C71.7829 7.92012 71.6697 19.7435 72.0092 26.4189C72.3486 33.0944 69.746 35.0744 61.4866 31.9064Z" fill="#005072"/>
<path d="M75.6423 6.22369L72.0045 2.77246L75.9688 5.94386L75.6423 6.22369Z" fill="white"/>
<path fill-rule="evenodd" clip-rule="evenodd" d="M86.1588 45.7248C86.297 45.7401 86.3966 45.8645 86.3814 46.0026L85.6396 52.7076C85.6243 52.8458 85.4999 52.9454 85.3618 52.9301C85.2236 52.9148 85.124 52.7904 85.1393 52.6522L85.881 45.9473C85.8963 45.8091 86.0207 45.7095 86.1588 45.7248Z" fill="#004070"/>
<path fill-rule="evenodd" clip-rule="evenodd" d="M86.3133 86.2399C86.3592 86.3711 86.2901 86.5147 86.1588 86.5606C85.1835 86.902 83.9677 87.6107 82.8333 88.3697C81.7031 89.126 80.6716 89.92 80.0693 90.4185C79.9622 90.5071 79.8035 90.4921 79.7149 90.385C79.6263 90.2779 79.6412 90.1193 79.7483 90.0306C80.3626 89.5223 81.4077 88.7179 82.5534 87.9513C83.6948 87.1876 84.9542 86.4489 85.9925 86.0855C86.1237 86.0396 86.2673 86.1087 86.3133 86.2399Z" fill="#005072"/>
<path d="M91.0645 29.3326C90.5152 28.933 90.539 28.165 90.6619 27.6494C90.708 27.4558 90.854 27.307 91.034 27.2222C92.5714 26.4976 94.9894 25.1885 95.9352 26.0669C96.9537 27.0128 97.9223 30.749 97.7296 32.4965C97.5368 34.2441 94.4263 34.8126 92.9875 34.1029C91.8364 33.5351 92.1767 33.0859 92.4907 32.9323C91.2337 32.8808 91.2911 31.9247 91.4769 31.4531C90.6593 31.02 90.8613 29.859 91.0645 29.3326Z" fill="white"/>
<path fill-rule="evenodd" clip-rule="evenodd" d="M94.9796 25.5228C95.3995 25.5113 95.8035 25.6007 96.1064 25.882C96.3985 26.1533 96.6667 26.6015 96.9016 27.1206C97.1394 27.6462 97.3541 28.2697 97.5294 28.9146C97.8778 30.1963 98.0812 31.6032 97.9797 32.5236C97.8656 33.5577 96.9019 34.1838 95.8929 34.4632C94.8723 34.7459 93.6674 34.7185 92.876 34.3281C92.5744 34.1793 92.3538 34.0304 92.2025 33.88C92.0506 33.729 91.9562 33.5634 91.939 33.386C91.9289 33.2812 91.9457 33.188 91.9791 33.1063C91.8536 33.0695 91.7418 33.0203 91.6433 32.9593C91.4259 32.8248 91.2868 32.6415 91.2084 32.4417C91.0904 32.1413 91.1129 31.8159 91.1783 31.5603C90.8011 31.2756 90.6623 30.8439 90.6366 30.4434C90.6126 30.0698 90.6831 29.694 90.7704 29.4125C90.5267 29.1742 90.4082 28.8698 90.3623 28.5724C90.3084 28.2238 90.3507 27.8685 90.4169 27.5905C90.4849 27.3052 90.6952 27.103 90.9266 26.994C91.0731 26.9249 91.2291 26.8498 91.3922 26.7712C92.0712 26.4442 92.8737 26.0577 93.626 25.8044C94.0937 25.6469 94.5598 25.5343 94.9796 25.5228ZM91.6616 31.7019C91.6183 31.8811 91.6103 32.088 91.6769 32.2577C91.718 32.3623 91.7887 32.4572 91.9082 32.5312C92.0296 32.6063 92.2145 32.6677 92.4939 32.68C92.7872 32.6751 93.246 32.6406 93.6707 32.5542C93.8848 32.5107 94.0827 32.4555 94.2436 32.3879C94.4094 32.3183 94.5106 32.2459 94.5598 32.1827C94.6451 32.073 94.8033 32.0532 94.913 32.1385C95.0227 32.2239 95.0425 32.382 94.9572 32.4918C94.8301 32.6551 94.6359 32.7691 94.4386 32.852C94.2364 32.9369 94.0036 33.0003 93.771 33.0476C93.3351 33.1362 92.8735 33.1737 92.557 33.1822C92.463 33.2401 92.4368 33.3032 92.4401 33.3375C92.4425 33.3626 92.4592 33.4253 92.5575 33.523C92.6563 33.6213 92.8248 33.7415 93.0987 33.8766C93.7462 34.196 94.8159 34.2391 95.7585 33.9781C96.7126 33.7138 97.4006 33.1819 97.4793 32.4684C97.5705 31.6412 97.386 30.3063 97.0436 29.0466C96.8735 28.4208 96.6671 27.8237 96.4429 27.3281C96.2157 26.826 95.9809 26.4525 95.7638 26.2508C95.5937 26.0929 95.3408 26.0165 94.9934 26.0261C94.6457 26.0356 94.2339 26.1309 93.7867 26.2815C93.0672 26.5237 92.3022 26.892 91.6244 27.2183C91.4574 27.2987 91.2957 27.3765 91.1412 27.4493C91.0125 27.51 90.9309 27.6053 90.9066 27.7072C90.85 27.9448 90.8189 28.2313 90.8598 28.4955C90.9001 28.7568 91.0072 28.9792 91.2125 29.1286L91.3689 29.2424L91.2992 29.4228C91.2069 29.6619 91.1156 30.0467 91.139 30.4112C91.1608 30.7515 91.2772 31.0348 91.5432 31.2006C91.8703 31.1973 92.3566 31.1658 92.8222 31.0813C93.071 31.0362 93.3079 30.9769 93.5088 30.9016C93.7131 30.825 93.8617 30.7385 93.9512 30.649C94.0495 30.5507 94.2089 30.5507 94.3072 30.649C94.4055 30.7473 94.4055 30.9067 94.3072 31.005C94.145 31.1671 93.9205 31.2849 93.6856 31.373C93.4474 31.4623 93.1791 31.5282 92.9121 31.5767C92.465 31.6578 92.0046 31.693 91.6616 31.7019Z" fill="#005072"/>
<path fill-rule="evenodd" clip-rule="evenodd" d="M93.709 28.3582C93.7861 28.4739 93.7549 28.6302 93.6392 28.7073C92.8279 29.2482 91.6618 29.4197 91.1827 29.4415C91.0438 29.4478 90.9261 29.3403 90.9198 29.2015C90.9135 29.0626 91.021 28.9449 91.1598 28.9386C91.6037 28.9184 92.661 28.7543 93.36 28.2884C93.4756 28.2113 93.6319 28.2425 93.709 28.3582Z" fill="#005072"/>
</g>
<defs>
<clipPath id="clip0_5327_36994">
<rect width="101" height="98" fill="white"/>
</clipPath>
</defs>
</svg>
