<svg width="642" height="258" viewBox="0 0 642 258" fill="none" xmlns="http://www.w3.org/2000/svg">
<path fill-rule="evenodd" clip-rule="evenodd" d="M73.6532 37.4706C73.6532 37.431 73.6533 37.3913 73.6536 37.3518V37.5895C73.6533 37.5499 73.6532 37.5103 73.6532 37.4706ZM90.7746 20.3493C83.991 20.3493 78.1289 24.2943 75.3573 30.0152H210.324C207.552 24.2943 201.69 20.3493 194.906 20.3493C193.762 20.3493 192.645 20.4614 191.564 20.6753C188.446 16.4563 183.436 13.7205 177.786 13.7205C173.414 13.7205 169.425 15.3593 166.399 18.0562C163.601 8.22113 154.551 1.01855 143.819 1.01855C143.491 1.01855 143.165 1.02528 142.84 1.03861C142.515 1.02528 142.189 1.01855 141.861 1.01855C131.13 1.01855 122.08 8.22017 119.282 18.0542C116.256 15.3585 112.268 13.7205 107.897 13.7205C102.247 13.7205 97.2372 16.4565 94.1188 20.6757C93.0372 20.4615 91.919 20.3493 90.7746 20.3493Z" fill="#B1E7F8"/>
<path fill-rule="evenodd" clip-rule="evenodd" d="M289.667 103.774H239.368C239.127 102.777 239 101.736 239 100.665C239 93.3648 244.918 87.4468 252.218 87.4468C258.262 87.4468 263.358 91.5025 264.933 97.0406C266.637 95.5223 268.884 94.5997 271.345 94.5997C274.527 94.5997 277.348 96.1405 279.104 98.5167C279.713 98.3962 280.343 98.333 280.987 98.333C284.806 98.333 288.106 100.554 289.667 103.774Z" fill="#B1E7F8"/>
<path fill-rule="evenodd" clip-rule="evenodd" d="M409.83 39.622H477.253C477.575 38.2856 477.745 36.8902 477.745 35.4548C477.745 25.6694 469.813 17.7368 460.027 17.7368C451.927 17.7368 445.096 23.1726 442.984 30.5953C440.7 28.5607 437.69 27.3245 434.391 27.3245C430.126 27.3245 426.344 29.3898 423.99 32.5748C423.174 32.4133 422.33 32.3285 421.467 32.3285C416.347 32.3285 411.923 35.3051 409.83 39.622Z" fill="#B1E7F8"/>
<path fill-rule="evenodd" clip-rule="evenodd" d="M595.017 239.042H597.991V237.042H595.017V239.042ZM583.123 239.042H589.07V237.042H583.123V239.042ZM571.228 239.042H577.175V237.042H571.228V239.042ZM559.333 239.042H565.28V237.042H559.333V239.042ZM547.438 239.042H553.386V237.042H547.438V239.042ZM535.544 239.042H541.491V237.042H535.544V239.042ZM523.649 239.042H529.596V237.042H523.649V239.042ZM511.754 239.042L517.701 239.042V237.042L511.754 237.042V239.042ZM499.859 239.042H505.807V237.042H499.859V239.042ZM487.964 239.042H493.912V237.042H487.964V239.042ZM476.07 239.042H482.017V237.042H476.07V239.042ZM464.175 239.042H470.122V237.042H464.175V239.042ZM452.28 239.042H458.228V237.042H452.28V239.042ZM440.385 239.042H446.333V237.042H440.385V239.042ZM431.464 239.042H434.438V237.042H431.464V239.042Z" fill="#00B6ED"/>
<path fill-rule="evenodd" clip-rule="evenodd" d="M596.036 224.968H599.06V222.968H596.036V224.968ZM583.941 224.968H589.989L589.989 222.968H583.941V224.968ZM571.845 224.968H577.893V222.968H571.845V224.968ZM559.75 224.968H565.798V222.968H559.75V224.968ZM547.654 224.968H553.702V222.968H547.654L547.654 224.968ZM535.559 224.968H541.607L541.607 222.968H535.559V224.968ZM523.464 224.968H529.511V222.968H523.464V224.968ZM511.368 224.968H517.416V222.968H511.368V224.968ZM499.273 224.968H505.32V222.968H499.273V224.968ZM487.177 224.968H493.225V222.968H487.177V224.968ZM475.082 224.968H481.129V222.968H475.082V224.968ZM462.986 224.968H469.034V222.968H462.986V224.968ZM450.891 224.968H456.938V222.968H450.891V224.968ZM438.795 224.968H444.843V222.968H438.795V224.968ZM426.7 224.968H432.748V222.968H426.7V224.968ZM417.628 224.968H420.652V222.968H417.628L417.628 224.968Z" fill="#00B6ED"/>
<path fill-rule="evenodd" clip-rule="evenodd" d="M604.59 192.594H607.614V190.594H604.59V192.594ZM592.495 192.594H598.543V190.594H592.495V192.594ZM580.399 192.594H586.447V190.594H580.399V192.594ZM568.304 192.594H574.352V190.594H568.304V192.594ZM556.208 192.594H562.256V190.594H556.208V192.594ZM544.113 192.594H550.161V190.594H544.113V192.594ZM532.017 192.594H538.065V190.594H532.017V192.594ZM519.922 192.594H525.97V190.594H519.922V192.594ZM507.827 192.594L513.874 192.594V190.594H507.827V192.594ZM495.731 192.594H501.779V190.594H495.731V192.594ZM483.636 192.594H489.683V190.594H483.636V192.594ZM471.54 192.594H477.588V190.594H471.54V192.594ZM459.445 192.594H465.492V190.594H459.445V192.594ZM447.349 192.594H453.397V190.594H447.349V192.594ZM435.254 192.594H441.302V190.594H435.254V192.594ZM426.182 192.594H429.206L429.206 190.594H426.182L426.182 192.594Z" fill="#00B6ED"/>
<path fill-rule="evenodd" clip-rule="evenodd" d="M601.383 209.484H604.407V207.484H601.383V209.484ZM589.287 209.484H595.335V207.484H589.287V209.484ZM577.192 209.484H583.24V207.484H577.192V209.484ZM565.096 209.484H571.144V207.484H565.096V209.484ZM553.001 209.484H559.049V207.484H553.001V209.484ZM540.905 209.484H546.953V207.484H540.905V209.484ZM528.81 209.484H534.858V207.484H528.81V209.484ZM516.715 209.484H522.762V207.484H516.715V209.484ZM504.619 209.484H510.667V207.484H504.619V209.484ZM492.524 209.484H498.571V207.484H492.524V209.484ZM480.428 209.484H486.476V207.484H480.428V209.484ZM468.333 209.484H474.38V207.484H468.333V209.484ZM456.237 209.484H462.285V207.484H456.237V209.484ZM444.142 209.484H450.189V207.484H444.142V209.484ZM432.046 209.484H438.094V207.484H432.046V209.484ZM422.975 209.484H425.999V207.484H422.975L422.975 209.484Z" fill="#00B6ED"/>
<path fill-rule="evenodd" clip-rule="evenodd" d="M618.507 175.236H621.515V173.236H618.507V175.236ZM606.478 175.236H612.493V173.236H606.478V175.236ZM594.449 175.236H600.464V173.236H594.449V175.236ZM582.42 175.236H588.435V173.236H582.42V175.236ZM570.391 175.236H576.406V173.236H570.391V175.236ZM558.362 175.236H564.377V173.236H558.362V175.236ZM546.333 175.236H552.348V173.236H546.333V175.236ZM534.304 175.236H540.319V173.236H534.304V175.236ZM522.275 175.236H528.29V173.236H522.275V175.236ZM510.247 175.236H516.261V173.236H510.247V175.236ZM498.218 175.236H504.232V173.236H498.218V175.236ZM486.189 175.236H492.203V173.236H486.189V175.236ZM474.16 175.236H480.174V173.236H474.16V175.236ZM462.131 175.236H468.145V173.236H462.131V175.236ZM450.102 175.236H456.116V173.236H450.102V175.236ZM438.073 175.236H444.087V173.236H438.073V175.236ZM429.051 175.236H432.058V173.236H429.051V175.236Z" fill="#00B6ED"/>
<path fill-rule="evenodd" clip-rule="evenodd" d="M629.2 161.336H632.207V159.336H629.2V161.336ZM617.171 161.336H623.185V159.336H617.171V161.336ZM605.142 161.336H611.156V159.336H605.142V161.336ZM593.113 161.336H599.127L599.127 159.336H593.113V161.336ZM581.084 161.336H587.098V159.336H581.084L581.084 161.336ZM569.055 161.336H575.069V159.336H569.055L569.055 161.336ZM557.026 161.336H563.04V159.336H557.026L557.026 161.336ZM544.997 161.336H551.011V159.336H544.997V161.336ZM532.968 161.336H538.982V159.336H532.968V161.336ZM520.939 161.336H526.953V159.336H520.939V161.336ZM508.91 161.336H514.924V159.336H508.91V161.336ZM496.881 161.336H502.895V159.336H496.881V161.336ZM484.852 161.336H490.866V159.336H484.852V161.336ZM472.823 161.336H478.837V159.336H472.823V161.336ZM460.794 161.336H466.808V159.336H460.794V161.336ZM448.765 161.336H454.779V159.336H448.765V161.336ZM439.743 161.336H442.75V159.336H439.743V161.336Z" fill="#00B6ED"/>
<path fill-rule="evenodd" clip-rule="evenodd" d="M614.23 129.259H617.238V127.259L614.23 127.259V129.259ZM602.202 129.259L608.216 129.259V127.259L602.202 127.259V129.259ZM590.173 129.259L596.187 129.259V127.259L590.173 127.259V129.259ZM578.144 129.259L584.158 129.259V127.259L578.144 127.259V129.259ZM566.115 129.259L572.129 129.259V127.259L566.115 127.259V129.259ZM554.086 129.259L560.1 129.259V127.259L554.086 127.259V129.259ZM542.057 129.259L548.071 129.259V127.259L542.057 127.259V129.259ZM530.028 129.259L536.042 129.259V127.259L530.028 127.259V129.259ZM517.999 129.259L524.013 129.259V127.259L517.999 127.259V129.259ZM505.97 129.259L511.984 129.259V127.259L505.97 127.259V129.259ZM493.941 129.259L499.955 129.259V127.259L493.941 127.259V129.259ZM481.912 129.259L487.926 129.259V127.259L481.912 127.259V129.259ZM469.883 129.259L475.897 129.259V127.259L469.883 127.259V129.259ZM457.854 129.259L463.868 129.259V127.259L457.854 127.259V129.259ZM445.825 129.259L451.839 129.259V127.259L445.825 127.259V129.259ZM433.796 129.259L439.81 129.259V127.259L433.796 127.259V129.259ZM424.774 129.259L427.781 129.259V127.259L424.774 127.259V129.259Z" fill="#00B6ED"/>
<path fill-rule="evenodd" clip-rule="evenodd" d="M638.823 144.228H641.83V142.228H638.823V144.228ZM626.794 144.228H632.809V142.228L626.794 142.228V144.228ZM614.765 144.228H620.78V142.228H614.765V144.228ZM602.736 144.228H608.751V142.228H602.736V144.228ZM590.707 144.228H596.722V142.228H590.707V144.228ZM578.678 144.228H584.693V142.228H578.678V144.228ZM566.649 144.228H572.664V142.228H566.649V144.228ZM554.62 144.228H560.635V142.228H554.62V144.228ZM542.591 144.228H548.606V142.228L542.591 142.228V144.228ZM530.562 144.228L536.577 144.228V142.228H530.562V144.228ZM518.533 144.228H524.548V142.228L518.533 142.228V144.228ZM506.504 144.228H512.519V142.228H506.504V144.228ZM494.475 144.228H500.49V142.228H494.475V144.228ZM482.446 144.228H488.461V142.228H482.446V144.228ZM470.417 144.228H476.432V142.228H470.417V144.228ZM458.388 144.228H464.403V142.228H458.388V144.228ZM449.367 144.228H452.374V142.228H449.367V144.228Z" fill="#00B6ED"/>
<path d="M354.835 65.9895C358.978 84.5822 327 27.098 371.532 17.7066C397.861 12.1538 414.501 23.8956 421.507 43.4066C423.434 48.7713 424.282 54.4522 423.661 59.9954C423.431 72.3773 419.766 89.9275 408.672 116.179C389.117 162.453 381.491 110.066 380.122 78.0874L354.835 65.9895Z" fill="#005072"/>
<path d="M501.468 237.537L467.633 173.479L450.782 187.167L487.036 237.811L501.468 237.537Z" fill="white"/>
<path fill-rule="evenodd" clip-rule="evenodd" d="M467.948 171.934L449.421 186.983L486.529 238.82L503.111 238.505L467.948 171.934ZM467.318 175.023L499.825 236.567L487.543 236.801L452.143 187.349L467.318 175.023Z" fill="#005072"/>
<path d="M323.431 238.78L330.037 164.329L345.711 175.792L333.587 238.587L323.431 238.78Z" fill="white"/>
<path fill-rule="evenodd" clip-rule="evenodd" d="M329.198 162.476L346.813 175.36L334.415 239.572L322.336 239.801L329.198 162.476ZM324.525 237.759L332.759 237.603L344.608 176.226L330.877 166.182L324.525 237.759Z" fill="#005072"/>
<path d="M455.387 148.042C446.719 126.727 426.569 122.923 400.864 109.072C397.203 109.26 383.162 101.815 368.914 110.708C349.566 122.784 338.27 119.256 333.351 141.807L328.242 168.455C328.095 169.223 328.408 170.006 329.044 170.46L345.753 182.386C346.334 182.801 347.149 182.491 347.309 181.796L350.347 168.58C350.482 167.995 351.345 168.101 351.334 168.701L350.136 237.195L436.246 238.241L434.917 168.276C434.897 167.248 436.255 166.863 436.777 167.748L448.616 187.793C448.928 188.322 449.637 188.447 450.112 188.058L468.566 172.911C468.942 172.602 469.041 172.067 468.801 171.644L455.387 148.042Z" fill="#AAC9E7"/>
<path fill-rule="evenodd" clip-rule="evenodd" d="M388.734 107.617C383.133 106.91 376.313 107.268 369.443 111.556C364.549 114.611 360.167 116.676 356.294 118.404C355.597 118.715 354.919 119.014 354.259 119.304C351.229 120.64 348.582 121.807 346.229 123.191C343.396 124.858 341.041 126.814 339.09 129.693C337.132 132.582 335.543 136.456 334.331 142.008L329.224 168.644C329.15 169.027 329.307 169.419 329.625 169.646L346.334 181.572L349.372 168.356C349.776 166.6 352.366 166.917 352.334 168.719L351.153 236.207L435.226 237.229L433.917 168.294C433.878 166.239 436.593 165.469 437.638 167.239L449.477 187.285L467.931 172.138L454.485 148.479L454.46 148.419C450.239 138.038 443.235 131.906 434.017 126.626C429.393 123.977 424.232 121.554 418.585 118.913L418.279 118.77C412.794 116.205 406.871 113.435 400.616 110.074C400.075 110.061 399.453 109.95 398.809 109.808C398.141 109.66 397.369 109.459 396.529 109.241C396.381 109.202 396.232 109.163 396.08 109.124C394.032 108.593 391.54 107.972 388.734 107.617ZM399.24 107.855C399.998 108.022 400.502 108.089 400.813 108.073L401.092 108.059L401.338 108.192C407.626 111.58 413.582 114.365 419.142 116.966L419.432 117.101C425.064 119.735 430.302 122.193 435.011 124.89C444.444 130.294 451.839 136.707 456.288 147.605L469.67 171.15C470.151 171.996 469.953 173.066 469.2 173.684L450.746 188.831C449.798 189.609 448.379 189.358 447.755 188.302L435.916 168.256L437.265 239.254L349.119 238.183L350.251 173.462L348.283 182.02C347.963 183.411 346.333 184.029 345.172 183.2L328.463 171.274C327.509 170.593 327.039 169.418 327.26 168.267L332.371 141.607L332.374 141.594C333.621 135.877 335.288 131.738 337.434 128.571C339.589 125.392 342.19 123.247 345.215 121.467C347.678 120.018 350.457 118.794 353.491 117.457C354.142 117.17 354.805 116.878 355.479 116.577C359.319 114.865 363.605 112.843 368.384 109.859C375.763 105.254 383.087 104.888 388.984 105.633C391.926 106.005 394.522 106.654 396.582 107.188C396.738 107.229 396.891 107.268 397.04 107.307C397.883 107.527 398.612 107.716 399.24 107.855ZM351.322 168.804C351.321 168.805 351.321 168.805 351.321 168.805L351.322 168.804Z" fill="#004070"/>
<path d="M377.474 99.317C376.116 110.716 364.938 110.505 366.279 119.787C367.173 125.966 373.677 129.649 379.915 129.408C396.866 128.752 398.19 118.96 402.808 111.817L400.926 108.537C394.091 95.6063 401.329 80.1062 405.803 73.9725C421.649 73.7325 415.226 49.8667 406.594 57.6175C399.688 63.8181 396.289 62.4525 395.453 60.9946C395.27 45.4765 386.685 60.7589 385.188 45.7402C366.652 64.3859 387.058 46.6317 367.159 56.939C360.561 60.3564 357.148 56.75 355.199 52.8257C352.75 47.8919 352.034 49.9938 352.581 55.475C356.033 90.0216 366.413 97.6979 377.474 99.317Z" fill="white"/>
<path fill-rule="evenodd" clip-rule="evenodd" d="M385.972 43.5324L386.183 45.6411C386.552 49.3481 387.342 50.8787 388.069 51.5362C388.758 52.1604 389.57 52.1821 390.812 52.1803C390.834 52.1802 390.856 52.1802 390.878 52.1801C391.995 52.1779 393.569 52.1748 394.738 53.5212C395.818 54.767 396.376 56.969 396.448 60.6703C396.729 60.9816 397.367 61.3595 398.61 61.1875C400.143 60.9754 402.539 59.9143 405.925 56.8735C407.12 55.8008 408.359 55.2025 409.597 55.0893C410.845 54.9753 411.98 55.3649 412.932 56.0633C414.792 57.4284 415.993 59.986 416.368 62.6599C416.746 65.3581 416.315 68.3912 414.647 70.7958C413.018 73.144 410.293 74.7717 406.328 74.9568C404.199 77.9902 401.512 83.0873 400.095 88.9412C398.617 95.049 398.544 101.88 401.802 108.055L403.978 111.849L403.648 112.36C402.813 113.651 402.096 115.018 401.347 116.447C401.087 116.944 400.822 117.449 400.547 117.96C399.499 119.91 398.327 121.907 396.735 123.707C393.497 127.369 388.653 130.07 379.954 130.407C373.414 130.66 366.283 126.799 365.29 119.93C364.922 117.385 365.413 115.425 366.414 113.76C367.384 112.148 368.816 110.852 370.193 109.605L370.224 109.576C372.832 107.215 375.501 104.799 376.34 100.145C370.933 99.1697 365.68 96.6345 361.349 90.3089C356.8 83.6648 353.318 72.9117 351.586 55.5745C351.447 54.183 351.385 52.9755 351.415 52.0231C351.43 51.5476 351.469 51.1127 351.541 50.739C351.608 50.3865 351.722 49.9916 351.948 49.6704C352.208 49.2989 352.673 48.9736 353.289 49.0605C353.775 49.1288 354.147 49.4352 354.394 49.6875C354.916 50.2198 355.478 51.1377 356.095 52.3811C357.035 54.2751 358.253 55.9226 359.884 56.742C361.448 57.5269 363.604 57.654 366.699 56.0512C369.204 54.7536 371.096 53.8863 372.524 53.3313C373.934 52.7832 374.957 52.5133 375.699 52.4651C376.152 52.4357 376.659 52.4859 377.064 52.7317C378.238 51.4443 380.438 49.1 384.478 45.0353L385.972 43.5324ZM373.249 55.1954C371.911 55.7152 370.088 56.5478 367.619 57.8271C364.116 59.6416 361.267 59.6742 358.987 58.5293C356.775 57.4187 355.312 55.3009 354.304 53.2706C353.963 52.584 353.673 52.072 353.434 51.7035C353.425 51.8211 353.419 51.9488 353.414 52.0869C353.388 52.9159 353.441 54.0266 353.576 55.3757C355.295 72.5851 358.73 82.9434 362.999 89.179C367.223 95.3478 372.311 97.5508 377.619 98.3277L378.582 98.4687L378.467 99.4355C377.749 105.463 374.418 108.478 371.632 111L371.535 111.087C370.116 112.373 368.919 113.476 368.128 114.791C367.369 116.054 366.966 117.548 367.269 119.644C368.062 125.132 373.94 128.638 379.877 128.408C388.128 128.089 392.421 125.567 395.237 122.383C396.672 120.76 397.756 118.929 398.785 117.014C399.038 116.544 399.289 116.065 399.541 115.583C400.207 114.313 400.886 113.018 401.641 111.793L400.05 109.02L400.042 109.005C396.473 102.253 396.602 94.8741 398.151 88.4708C399.7 82.0705 402.69 76.5435 404.995 73.3833L405.289 72.9802L405.788 72.9727C409.469 72.9169 411.719 71.5086 413.004 69.656C414.319 67.7605 414.713 65.2666 414.387 62.9373C414.058 60.5836 413.025 58.613 411.748 57.6756C411.131 57.2228 410.472 57.0176 409.779 57.081C409.075 57.1453 408.225 57.4967 407.261 58.3617C403.742 61.5215 400.986 62.8779 398.884 63.1687C396.74 63.4653 395.242 62.6381 394.585 61.4923L394.456 61.2666L394.453 61.0065C394.407 57.1381 393.824 55.5198 393.227 54.8319C392.711 54.2369 392.051 54.1784 390.815 54.1802C390.77 54.1803 390.725 54.1805 390.679 54.1806C389.571 54.1844 388.02 54.1896 386.726 53.019C385.672 52.0648 384.919 50.4598 384.468 47.8884C380.808 51.6011 378.976 53.5924 378.093 54.5749C377.877 54.8157 377.718 54.9964 377.599 55.1302C377.582 55.1498 377.566 55.1684 377.55 55.186C377.542 55.1956 377.533 55.2056 377.524 55.2159C377.438 55.3129 377.325 55.4411 377.24 55.5154C377.22 55.5326 377.182 55.5646 377.131 55.5985L377.13 55.5991C377.098 55.6207 376.969 55.7069 376.78 55.7478C376.675 55.7705 376.495 55.7919 376.283 55.7294C376.05 55.6604 375.858 55.5118 375.733 55.324C375.536 55.0283 375.564 54.7321 375.568 54.6805C375.568 54.6791 375.569 54.6779 375.569 54.6769C375.575 54.6019 375.59 54.5346 375.604 54.4852C375.14 54.5523 374.396 54.7496 373.249 55.1954ZM376.08 54.4666C376.079 54.4669 376.073 54.466 376.063 54.4625C376.075 54.4645 376.08 54.4662 376.08 54.4666Z" fill="#004070"/>
<path d="M500.57 235.812C529.112 235.812 537.619 246.794 542 256.019H35C56.2815 239.876 118.074 204.197 169.83 226.592C255.094 263.485 315.791 210.451 370.246 208.145C424.702 205.839 464.892 235.812 500.57 235.812Z" fill="#40CE97"/>
<path fill-rule="evenodd" clip-rule="evenodd" d="M57 245.019V93.0186C57 90.2571 59.2386 88.0186 62 88.0186C64.7614 88.0186 67 90.2571 67 93.0186V245.019H57ZM62 86.0186C65.866 86.0186 69 89.1526 69 93.0186V247.019H55V93.0186C55 89.1526 58.134 86.0186 62 86.0186Z" fill="#005072"/>
<path d="M91.1765 254.534L86.7401 246.534C86.5638 246.216 86.229 246.019 85.8656 246.019H37.6891C37.3412 246.019 37.0183 246.199 36.8365 246.496L31.9332 254.496C31.5248 255.162 32.0042 256.019 32.7858 256.019H90.3019C91.0641 256.019 91.5461 255.2 91.1765 254.534Z" fill="white"/>
<path fill-rule="evenodd" clip-rule="evenodd" d="M87.6146 246.049C87.2621 245.413 86.5925 245.019 85.8656 245.019H37.6891C36.9933 245.019 36.3475 245.38 35.9839 245.973L31.0806 253.973C30.2638 255.306 31.2227 257.019 32.7858 257.019H90.3019C91.8262 257.019 92.7902 255.382 92.051 254.049L87.6146 246.049ZM85.8656 247.019L90.3019 255.019L32.7858 255.019L37.6891 247.019L85.8656 247.019Z" fill="#005072"/>
<path d="M56 118.019V96.0186C56 95.4663 55.5523 95.0186 55 95.0186H15.4905C15.2454 95.0186 15.0088 95.1086 14.8257 95.2716L1.87911 106.794C1.41842 107.204 1.43507 107.93 1.9141 108.318L14.8346 118.795C15.0127 118.94 15.2351 119.019 15.4644 119.019H55C55.5523 119.019 56 118.571 56 118.019Z" fill="#40CE97"/>
<path fill-rule="evenodd" clip-rule="evenodd" d="M57 96.0186C57 94.914 56.1046 94.0186 55 94.0186H15.4905C15.0002 94.0186 14.5271 94.1986 14.1608 94.5246L1.21429 106.047C0.292908 106.867 0.326221 108.318 1.28427 109.095L14.2048 119.572C14.561 119.861 15.0058 120.019 15.4644 120.019H55C56.1046 120.019 57 119.123 57 118.019V96.0186ZM15.4905 96.0186H55V118.019L15.4645 118.019L2.54397 107.541L15.4905 96.0186Z" fill="#005072"/>
<path d="M56 171.019V148.019C56 147.466 55.5523 147.019 55 147.019H15.5022C15.25 147.019 15.0072 147.114 14.8223 147.285L1.82855 159.332C1.38821 159.74 1.40441 160.442 1.86313 160.829L14.8305 171.782C15.0109 171.935 15.2395 172.019 15.4758 172.019H55C55.5523 172.019 56 171.571 56 171.019Z" fill="#1EA9A1"/>
<path fill-rule="evenodd" clip-rule="evenodd" d="M55 146.019L55 171.019L15.4758 171.019L2.50844 160.065L15.5022 148.019H55L55 146.019ZM57 148.019C57 146.914 56.1046 146.019 55 146.019H15.5022C14.9979 146.019 14.5122 146.209 14.1424 146.552L1.14869 158.598C0.268005 159.415 0.300404 160.818 1.21786 161.593L14.1852 172.546C14.5461 172.851 15.0033 173.019 15.4758 173.019H55C56.1046 173.019 57 172.123 57 171.019V148.019Z" fill="#005072"/>
<path d="M67 145.019V121.019C67 120.466 67.4477 120.019 68 120.019H108.984C109.236 120.019 109.48 120.114 109.665 120.286L123.176 132.856C123.614 133.264 123.598 133.964 123.141 134.351L109.657 145.781C109.476 145.935 109.247 146.019 109.01 146.019H68C67.4477 146.019 67 145.571 67 145.019Z" fill="#00B6ED"/>
<path fill-rule="evenodd" clip-rule="evenodd" d="M67 121.019C67 119.914 67.8954 119.019 69 119.019H109.984C110.489 119.019 110.976 119.21 111.346 119.554L124.857 132.124C125.734 132.94 125.702 134.339 124.788 135.114L111.303 146.544C110.942 146.85 110.484 147.019 110.01 147.019H69C67.8954 147.019 67 146.123 67 145.019V121.019ZM109.984 121.019H69V145.019L110.01 145.019L123.495 133.588L109.984 121.019Z" fill="#005072"/>
<path fill-rule="evenodd" clip-rule="evenodd" d="M47.8623 107.019C47.8623 106.466 47.4146 106.019 46.8623 106.019H18.1078C17.5555 106.019 17.1078 106.466 17.1078 107.019C17.1078 107.571 17.5555 108.019 18.1078 108.019H46.8623C47.4146 108.019 47.8623 107.571 47.8623 107.019ZM113 132.52C113 131.967 112.552 131.52 112 131.52H105.545C104.993 131.52 104.545 131.967 104.545 132.52C104.545 133.072 104.993 133.52 105.545 133.52H112C112.552 133.52 113 133.072 113 132.52ZM100.97 132.52C100.97 131.967 100.522 131.52 99.9701 131.52H79.1538C78.6016 131.52 78.1538 131.967 78.1538 132.52C78.1538 133.072 78.6016 133.52 79.1538 133.52H99.9701C100.522 133.52 100.97 133.072 100.97 132.52ZM47.8623 159.019C47.8623 158.466 47.4146 158.019 46.8623 158.019H39.5269C38.9747 158.019 38.5269 158.466 38.5269 159.019C38.5269 159.571 38.9747 160.019 39.5269 160.019H46.8623C47.4146 160.019 47.8623 159.571 47.8623 159.019ZM33.7784 159.019C33.7784 158.466 33.3307 158.019 32.7784 158.019H14C13.4477 158.019 13 158.466 13 159.019C13 159.571 13.4477 160.019 14 160.019H32.7784C33.3307 160.019 33.7784 159.571 33.7784 159.019Z" fill="#005072"/>
<path fill-rule="evenodd" clip-rule="evenodd" d="M104 256.019C104 255.466 103.552 255.019 103 255.019H20C19.4477 255.019 19 255.466 19 256.019C19 256.571 19.4477 257.019 20 257.019H103C103.552 257.019 104 256.571 104 256.019Z" fill="#005072"/>
<path fill-rule="evenodd" clip-rule="evenodd" d="M104.379 225.06C103.85 224.903 103.293 225.205 103.136 225.734L95.2213 252.366L85.8868 234.452C85.6316 233.962 85.0276 233.772 84.5379 234.027C84.0481 234.282 83.8579 234.886 84.1131 235.376L95.1474 256.552L107.619 246.712C108.053 246.37 108.127 245.741 107.785 245.308C107.443 244.874 106.814 244.8 106.381 245.142L97.3333 252.28L105.053 226.304C105.21 225.774 104.909 225.218 104.379 225.06Z" fill="#005072"/>
<path fill-rule="evenodd" clip-rule="evenodd" d="M442.63 2.1745C439.236 2.23897 436.538 5.04241 436.602 8.43615C436.612 8.98834 436.173 9.44448 435.621 9.45497C435.069 9.46546 434.613 9.02633 434.602 8.47414C434.517 3.97603 438.094 0.260316 442.592 0.174861L444.849 0.131993C448.692 0.0589821 451.866 3.11528 451.939 6.95841C451.973 8.73939 451.282 10.3454 450.367 11.7373C449.455 13.1262 448.269 14.379 447.214 15.4542C445.717 16.9818 444.615 19.2794 445.131 22.4255C445.221 22.9705 444.851 23.4848 444.306 23.5743C443.761 23.6637 443.247 23.2945 443.158 22.7495C442.526 18.9029 443.896 15.9822 445.786 14.0542C446.839 12.9805 447.901 11.8492 448.696 10.6392C449.489 9.43205 449.963 8.22415 449.94 6.9964C449.888 4.25763 447.625 2.0796 444.887 2.13163L442.63 2.1745ZM444.215 26.3082C444.767 26.2977 445.223 26.7368 445.234 27.289L445.253 28.3097C445.264 28.8619 444.825 29.318 444.272 29.3285C443.72 29.339 443.264 28.8999 443.254 28.3477L443.234 27.327C443.224 26.7748 443.663 26.3187 444.215 26.3082Z" fill="#005072"/>
<path fill-rule="evenodd" clip-rule="evenodd" d="M455.689 58.928C454.575 58.0944 452.996 58.322 452.162 59.4365C451.831 59.8787 451.204 59.9691 450.762 59.6382C450.32 59.3074 450.23 58.6807 450.56 58.2385C452.056 56.2396 454.888 55.8313 456.887 57.3265L457.777 57.9924C459.518 59.2943 459.873 61.7608 458.571 63.5013C457.962 64.3163 457.102 64.7773 456.272 65.0599C455.446 65.3413 454.562 65.4745 453.826 65.5738C452.923 65.6956 451.95 66.1724 451.286 67.3935C451.021 67.8785 450.414 68.0577 449.929 67.7936C449.444 67.5296 449.265 66.9223 449.529 66.4372C450.533 64.5927 452.1 63.7886 453.559 63.5917C454.292 63.4928 455.003 63.3792 455.627 63.1667C456.247 62.9554 456.692 62.6752 456.97 62.3033C457.61 61.4473 457.435 60.2342 456.579 59.5939L455.689 58.928ZM449.026 68.4762C449.468 68.807 449.558 69.4337 449.227 69.8759L448.926 70.2786C448.595 70.7208 447.969 70.8111 447.527 70.4803C447.084 70.1495 446.994 69.5228 447.325 69.0806L447.626 68.6779C447.957 68.2357 448.583 68.1454 449.026 68.4762Z" fill="#005072"/>
</svg>
