<svg width="614" height="282" viewBox="0 0 614 282" fill="none" xmlns="http://www.w3.org/2000/svg">
<path fill-rule="evenodd" clip-rule="evenodd" d="M566.389 259.023L569.363 259.023L569.363 257.023L566.389 257.023L566.389 259.023ZM554.495 259.023L560.442 259.023L560.442 257.023L554.495 257.023L554.495 259.023ZM542.6 259.023L548.547 259.023L548.547 257.023L542.6 257.023L542.6 259.023ZM530.705 259.023L536.652 259.023L536.652 257.023L530.705 257.023L530.705 259.023ZM518.81 259.023L524.758 259.023L524.758 257.023L518.81 257.023L518.81 259.023ZM506.915 259.023L512.863 259.023L512.863 257.023L506.915 257.023L506.915 259.023ZM495.021 259.023L500.968 259.023L500.968 257.023L495.021 257.023L495.021 259.023ZM483.126 259.023L489.073 259.023L489.073 257.023L483.126 257.023L483.126 259.023ZM471.231 259.023L477.178 259.023L477.178 257.023L471.231 257.023L471.231 259.023ZM459.336 259.023L465.284 259.023L465.284 257.023L459.336 257.023L459.336 259.023ZM447.442 259.023L453.389 259.023L453.389 257.023L447.442 257.023L447.442 259.023ZM435.547 259.023L441.494 259.023L441.494 257.023L435.547 257.023L435.547 259.023ZM423.652 259.023L429.599 259.023L429.599 257.023L423.652 257.023L423.652 259.023ZM411.757 259.023L417.705 259.023L417.705 257.023L411.757 257.023L411.757 259.023ZM402.836 259.023L405.81 259.023L405.81 257.023L402.836 257.023L402.836 259.023Z" fill="#00B6ED"/>
<path fill-rule="evenodd" clip-rule="evenodd" d="M567.408 244.95L570.432 244.95L570.432 242.95L567.408 242.95L567.408 244.95ZM555.313 244.95L561.36 244.95L561.36 242.95L555.313 242.95L555.313 244.95ZM543.217 244.95L549.265 244.95L549.265 242.95L543.217 242.95L543.217 244.95ZM531.122 244.95L537.17 244.95L537.17 242.95L531.122 242.95L531.122 244.95ZM519.026 244.95L525.074 244.95L525.074 242.95L519.026 242.95L519.026 244.95ZM506.931 244.95L512.979 244.95L512.979 242.95L506.931 242.95L506.931 244.95ZM494.835 244.95L500.883 244.95L500.883 242.95L494.835 242.95L494.835 244.95ZM482.74 244.95L488.788 244.95L488.788 242.95L482.74 242.95L482.74 244.95ZM470.644 244.95L476.692 244.95L476.692 242.95L470.644 242.95L470.644 244.95ZM458.549 244.95L464.597 244.95L464.597 242.95L458.549 242.95L458.549 244.95ZM446.453 244.95L452.501 244.95L452.501 242.95L446.453 242.95L446.453 244.95ZM434.358 244.95L440.406 244.95L440.406 242.95L434.358 242.95L434.358 244.95ZM422.263 244.95L428.31 244.95L428.31 242.95L422.263 242.95L422.263 244.95ZM410.167 244.95L416.215 244.95L416.215 242.95L410.167 242.95L410.167 244.95ZM398.072 244.95L404.119 244.95L404.119 242.95L398.072 242.95L398.072 244.95ZM389 244.95L392.024 244.95L392.024 242.95L389 242.95L389 244.95Z" fill="#00B6ED"/>
<path fill-rule="evenodd" clip-rule="evenodd" d="M575.962 212.576L578.986 212.576L578.986 210.576L575.962 210.576L575.962 212.576ZM563.867 212.576L569.914 212.576L569.914 210.576L563.867 210.576L563.867 212.576ZM551.771 212.576L557.819 212.576L557.819 210.576L551.771 210.576L551.771 212.576ZM539.676 212.576L545.723 212.576L545.723 210.576L539.676 210.576L539.676 212.576ZM527.58 212.576L533.628 212.576L533.628 210.576L527.58 210.576L527.58 212.576ZM515.485 212.576L521.533 212.576L521.533 210.576L515.485 210.576L515.485 212.576ZM503.389 212.576L509.437 212.576L509.437 210.576L503.389 210.576L503.389 212.576ZM491.294 212.576L497.342 212.576L497.342 210.576L491.294 210.576L491.294 212.576ZM479.198 212.576L485.246 212.576L485.246 210.576L479.198 210.576L479.198 212.576ZM467.103 212.576L473.151 212.576L473.151 210.576L467.103 210.576L467.103 212.576ZM455.007 212.576L461.055 212.576L461.055 210.576L455.007 210.576L455.007 212.576ZM442.912 212.576L448.96 212.576L448.96 210.576L442.912 210.576L442.912 212.576ZM430.817 212.576L436.864 212.576L436.864 210.576L430.817 210.576L430.817 212.576ZM418.721 212.576L424.769 212.576L424.769 210.576L418.721 210.576L418.721 212.576ZM406.626 212.576L412.673 212.576L412.673 210.576L406.626 210.576L406.626 212.576ZM397.554 212.576L400.578 212.576L400.578 210.576L397.554 210.576L397.554 212.576Z" fill="#00B6ED"/>
<path fill-rule="evenodd" clip-rule="evenodd" d="M572.755 229.465L575.779 229.465L575.779 227.465L572.755 227.465L572.755 229.465ZM560.659 229.465L566.707 229.465L566.707 227.465L560.659 227.465L560.659 229.465ZM548.564 229.465L554.611 229.465L554.611 227.465L548.564 227.465L548.564 229.465ZM536.468 229.465L542.516 229.465L542.516 227.465L536.468 227.465L536.468 229.465ZM524.373 229.465L530.421 229.465L530.421 227.465L524.373 227.465L524.373 229.465ZM512.277 229.465L518.325 229.465L518.325 227.465L512.277 227.465L512.277 229.465ZM500.182 229.465L506.23 229.465L506.23 227.465L500.182 227.465L500.182 229.465ZM488.086 229.465L494.134 229.465L494.134 227.465L488.086 227.465L488.086 229.465ZM475.991 229.465L482.039 229.465L482.039 227.465L475.991 227.465L475.991 229.465ZM463.895 229.465L469.943 229.465L469.943 227.465L463.895 227.465L463.895 229.465ZM451.8 229.465L457.848 229.465L457.848 227.465L451.8 227.465L451.8 229.465ZM439.704 229.465L445.752 229.465L445.752 227.465L439.704 227.465L439.704 229.465ZM427.609 229.465L433.657 229.465L433.657 227.465L427.609 227.465L427.609 229.465ZM415.514 229.465L421.561 229.465L421.561 227.465L415.514 227.465L415.514 229.465ZM403.418 229.465L409.466 229.465L409.466 227.465L403.418 227.465L403.418 229.465ZM394.346 229.465L397.37 229.465L397.37 227.465L394.346 227.465L394.346 229.465Z" fill="#00B6ED"/>
<path fill-rule="evenodd" clip-rule="evenodd" d="M589.879 195.217L592.886 195.217L592.886 193.217L589.879 193.217L589.879 195.217ZM577.85 195.217L583.865 195.217L583.865 193.217L577.85 193.217L577.85 195.217ZM565.821 195.217L571.836 195.217L571.836 193.217L565.821 193.217L565.821 195.217ZM553.792 195.217L559.807 195.217L559.807 193.217L553.792 193.217L553.792 195.217ZM541.763 195.217L547.778 195.217L547.778 193.217L541.763 193.217L541.763 195.217ZM529.734 195.217L535.749 195.217L535.749 193.217L529.734 193.217L529.734 195.217ZM517.705 195.217L523.72 195.217L523.72 193.217L517.705 193.217L517.705 195.217ZM505.676 195.217L511.691 195.217L511.691 193.217L505.676 193.217L505.676 195.217ZM493.647 195.217L499.662 195.217L499.662 193.217L493.647 193.217L493.647 195.217ZM481.618 195.217L487.633 195.217L487.633 193.217L481.618 193.217L481.618 195.217ZM469.589 195.217L475.604 195.217L475.604 193.217L469.589 193.217L469.589 195.217ZM457.56 195.217L463.575 195.217L463.575 193.217L457.56 193.217L457.56 195.217ZM445.531 195.217L451.546 195.217L451.546 193.217L445.531 193.217L445.531 195.217ZM433.502 195.217L439.517 195.217L439.517 193.217L433.502 193.217L433.502 195.217ZM421.473 195.217L427.488 195.217L427.488 193.217L421.473 193.217L421.473 195.217ZM409.444 195.217L415.459 195.217L415.459 193.217L409.444 193.217L409.444 195.217ZM400.423 195.217L403.43 195.217L403.43 193.217L400.423 193.217L400.423 195.217Z" fill="#00B6ED"/>
<path fill-rule="evenodd" clip-rule="evenodd" d="M600.572 181.317L603.579 181.317L603.579 179.317L600.572 179.317L600.572 181.317ZM588.543 181.317L594.557 181.317L594.557 179.317L588.543 179.317L588.543 181.317ZM576.514 181.317L582.528 181.317L582.528 179.317L576.514 179.317L576.514 181.317ZM564.485 181.317L570.499 181.317L570.499 179.317L564.485 179.317L564.485 181.317ZM552.456 181.317L558.47 181.317L558.47 179.317L552.456 179.317L552.456 181.317ZM540.427 181.317L546.441 181.317L546.441 179.317L540.427 179.317L540.427 181.317ZM528.398 181.317L534.412 181.317L534.412 179.317L528.398 179.317L528.398 181.317ZM516.369 181.317L522.383 181.317L522.383 179.317L516.369 179.317L516.369 181.317ZM504.34 181.317L510.354 181.317L510.354 179.317L504.34 179.317L504.34 181.317ZM492.311 181.317L498.325 181.317L498.325 179.317L492.311 179.317L492.311 181.317ZM480.282 181.317L486.296 181.317L486.296 179.317L480.282 179.317L480.282 181.317ZM468.253 181.317L474.267 181.317L474.267 179.317L468.253 179.317L468.253 181.317ZM456.224 181.317L462.238 181.317L462.238 179.317L456.224 179.317L456.224 181.317ZM444.195 181.317L450.209 181.317L450.209 179.317L444.195 179.317L444.195 181.317ZM432.166 181.317L438.18 181.317L438.18 179.317L432.166 179.317L432.166 181.317ZM420.137 181.317L426.151 181.317L426.151 179.317L420.137 179.317L420.137 181.317ZM411.115 181.317L414.122 181.317L414.122 179.317L411.115 179.317L411.115 181.317Z" fill="#00B6ED"/>
<path fill-rule="evenodd" clip-rule="evenodd" d="M585.602 149.24L588.61 149.24L588.61 147.24L585.602 147.24L585.602 149.24ZM573.573 149.24L579.588 149.24L579.588 147.24L573.573 147.24L573.573 149.24ZM561.544 149.24L567.559 149.24L567.559 147.24L561.544 147.24L561.544 149.24ZM549.515 149.24L555.53 149.24L555.53 147.24L549.515 147.24L549.515 149.24ZM537.486 149.24L543.501 149.24L543.501 147.24L537.486 147.24L537.486 149.24ZM525.457 149.24L531.472 149.24L531.472 147.24L525.457 147.24L525.457 149.24ZM513.428 149.24L519.443 149.24L519.443 147.24L513.428 147.24L513.428 149.24ZM501.399 149.24L507.414 149.24L507.414 147.24L501.399 147.24L501.399 149.24ZM489.37 149.24L495.385 149.24L495.385 147.24L489.37 147.24L489.37 149.24ZM477.342 149.24L483.356 149.24L483.356 147.24L477.342 147.24L477.342 149.24ZM465.313 149.24L471.327 149.24L471.327 147.24L465.313 147.24L465.313 149.24ZM453.284 149.24L459.298 149.24L459.298 147.24L453.284 147.24L453.284 149.24ZM441.255 149.24L447.269 149.24L447.269 147.24L441.255 147.24L441.255 149.24ZM429.226 149.24L435.24 149.24L435.24 147.24L429.226 147.24L429.226 149.24ZM417.197 149.24L423.211 149.24L423.211 147.24L417.197 147.24L417.197 149.24ZM405.168 149.24L411.182 149.24L411.182 147.24L405.168 147.24L405.168 149.24ZM396.146 149.24L399.153 149.24L399.153 147.24L396.146 147.24L396.146 149.24Z" fill="#00B6ED"/>
<path fill-rule="evenodd" clip-rule="evenodd" d="M610.195 164.209L613.202 164.209L613.202 162.209L610.195 162.209L610.195 164.209ZM598.166 164.209L604.18 164.209L604.18 162.209L598.166 162.209L598.166 164.209ZM586.137 164.209L592.151 164.209L592.151 162.209L586.137 162.209L586.137 164.209ZM574.108 164.209L580.122 164.209L580.122 162.209L574.108 162.209L574.108 164.209ZM562.079 164.209L568.093 164.209L568.093 162.209L562.079 162.209L562.079 164.209ZM550.05 164.209L556.064 164.209L556.064 162.209L550.05 162.209L550.05 164.209ZM538.021 164.209L544.035 164.209L544.035 162.209L538.021 162.209L538.021 164.209ZM525.992 164.209L532.007 164.209L532.007 162.209L525.992 162.209L525.992 164.209ZM513.963 164.209L519.978 164.209L519.978 162.209L513.963 162.209L513.963 164.209ZM501.934 164.209L507.949 164.209L507.949 162.209L501.934 162.209L501.934 164.209ZM489.905 164.209L495.92 164.209L495.92 162.209L489.905 162.209L489.905 164.209ZM477.876 164.209L483.891 164.209L483.891 162.209L477.876 162.209L477.876 164.209ZM465.847 164.209L471.862 164.209L471.862 162.209L465.847 162.209L465.847 164.209ZM453.818 164.209L459.833 164.209L459.833 162.209L453.818 162.209L453.818 164.209ZM441.789 164.209L447.804 164.209L447.804 162.209L441.789 162.209L441.789 164.209ZM429.76 164.209L435.775 164.209L435.775 162.209L429.76 162.209L429.76 164.209ZM420.738 164.209L423.746 164.209L423.746 162.209L420.738 162.209L420.738 164.209Z" fill="#00B6ED"/>
<path fill-rule="evenodd" clip-rule="evenodd" d="M209.342 49.2314C209.342 49.1974 209.343 49.1635 209.343 49.1296V49.3331C209.343 49.2992 209.342 49.2653 209.342 49.2314ZM225.355 33.2193C219.011 33.2193 213.528 36.9087 210.936 42.259H253.622C253.622 42.2589 253.622 42.259 253.622 42.259L337.158 42.259C334.565 36.9087 329.083 33.2193 322.739 33.2193C321.67 33.2193 320.624 33.3242 319.613 33.5242C316.697 29.5786 312.012 27.0201 306.729 27.0201C302.64 27.0201 298.909 28.5527 296.079 31.0748C293.463 21.877 284.999 15.1411 274.962 15.1411C274.656 15.1411 274.35 15.1474 274.047 15.1599C273.743 15.1474 273.438 15.1411 273.131 15.1411C263.095 15.1411 254.632 21.8761 252.015 31.073C249.185 28.552 245.455 27.0201 241.367 27.0201C236.084 27.0201 231.398 29.5788 228.482 33.5246C227.47 33.3243 226.425 33.2193 225.355 33.2193Z" fill="#B1E7F8"/>
<path fill-rule="evenodd" clip-rule="evenodd" d="M90.2737 39.1706H43.2328C43.0081 38.2382 42.889 37.2646 42.889 36.2632C42.889 29.4359 48.4236 23.9014 55.2508 23.9014C60.9026 23.9014 65.6686 27.6942 67.1421 32.8735C68.7356 31.4535 70.8364 30.5906 73.1387 30.5906C76.114 30.5906 78.7527 32.0316 80.3949 34.2538C80.9643 34.1411 81.5529 34.082 82.1553 34.082C85.727 34.082 88.8137 36.1587 90.2737 39.1706Z" fill="#B1E7F8"/>
<path fill-rule="evenodd" clip-rule="evenodd" d="M453.547 90.3627H516.6C516.902 89.1129 517.061 87.8078 517.061 86.4655C517.061 77.3142 509.643 69.8955 500.491 69.8955C492.916 69.8955 486.528 74.979 484.552 81.9209C482.416 80.0181 479.601 78.8619 476.515 78.8619C472.527 78.8619 468.99 80.7935 466.789 83.7721C466.026 83.621 465.237 83.5418 464.429 83.5418C459.641 83.5418 455.504 86.3255 453.547 90.3627Z" fill="#B1E7F8"/>
<path d="M83.0004 46.7818C88.1717 62.3732 98.0627 71.3461 103.288 69.9389C103.559 59.6949 131.373 31.7943 145.361 34.2806C159.349 36.767 160.099 17.4617 156.96 20.4725C154.277 23.0455 150.083 21.2936 148.465 20.4913C129.468 6.41679 116.289 6.02386 111.327 7.13975C104.796 7.12926 74.4533 21.012 83.0004 46.7818Z" fill="#00B6ED"/>
<path fill-rule="evenodd" clip-rule="evenodd" d="M147.87 21.295C129.033 7.33939 116.147 7.08113 111.546 8.11563L111.437 8.14018L111.325 8.14C109.922 8.13774 106.967 8.92301 103.369 10.6111C99.8142 12.2785 95.7641 14.7655 92.1835 18.0322C85.0352 24.5536 79.8399 34.0767 83.9496 46.4672C86.4958 54.1442 90.1928 60.1537 93.8528 64.0505C95.6844 66.0005 97.4822 67.3955 99.0942 68.2158C100.375 68.8676 101.473 69.1254 102.358 69.0775C102.531 67.8076 103.008 66.4049 103.694 64.9398C104.541 63.1311 105.739 61.1576 107.195 59.1157C110.107 55.0314 114.096 50.6087 118.508 46.5963C122.918 42.5855 127.783 38.9554 132.456 36.4794C137.092 34.0228 141.703 32.6149 145.536 33.2963C148.79 33.8746 151.183 33.18 152.937 31.9338C154.717 30.6687 155.922 28.7726 156.646 26.8307C157.374 24.8789 157.577 22.9849 157.445 21.8223C157.429 21.6749 157.407 21.5466 157.384 21.4368C155.785 22.7932 153.835 22.9651 152.178 22.7387C150.432 22.5002 148.865 21.8058 148.021 21.3875L147.941 21.348L147.87 21.295ZM148.987 19.6341C129.994 5.58638 116.602 4.9761 111.214 6.14099C109.333 6.17569 106.106 7.11796 102.519 8.80043C98.8146 10.5383 94.5886 13.1307 90.8355 16.5547C83.3164 23.4144 77.6137 33.7176 82.0512 47.0968C84.6763 55.0113 88.5104 61.2839 92.395 65.4197C94.3356 67.4859 96.3134 69.0448 98.1871 69.9983C100.046 70.9441 101.909 71.346 103.548 70.9047L104.267 70.7108L104.287 69.9656C104.316 68.8824 104.718 67.4703 105.505 65.7878C106.286 64.1196 107.415 62.2522 108.823 60.2767C111.64 56.3262 115.529 52.0084 119.853 48.0759C124.179 44.1419 128.908 40.6228 133.392 38.2466C137.914 35.8509 142.025 34.7037 145.186 35.2654C148.927 35.9303 151.872 35.1441 154.096 33.564C156.292 32.0027 157.701 29.7268 158.52 27.5296C159.336 25.3423 159.606 23.1298 159.433 21.5972C159.389 21.2086 159.313 20.8369 159.196 20.5074C159.083 20.1896 158.907 19.8405 158.617 19.5713C158.297 19.273 157.853 19.0947 157.352 19.1701C156.904 19.2375 156.541 19.4888 156.268 19.7511C155.23 20.7461 153.869 20.9511 152.449 20.7571C151.069 20.5686 149.772 20.0175 148.987 19.6341Z" fill="#004070"/>
<path d="M105.625 77.574C106.184 81.0051 105.857 85.774 103.119 92.8921C112.384 107.804 121.668 116.077 123.353 113.699L121.188 87.9642L131.125 84.471C134.999 83.1091 138.756 81.0935 141.006 77.6582C150.082 63.8014 144.838 43.309 143.903 37.577C142.854 31.1438 139.643 29.4661 128.811 26.0958C122.156 24.025 117.306 26.6521 114.636 29.3282C113.378 30.5886 113.539 32.5575 114.634 33.9617C116.07 35.8039 114.833 38.5067 112.615 39.2418C102.648 42.5464 109.844 52.7976 110.114 55.5617L106.461 50.5684C104.504 48.2885 101.952 45.5872 97.152 48.1359C93.9934 49.8131 93.6948 53.374 94.4367 56.8674C95.31 60.9791 98.5248 64.0564 102.116 66.2411C102.254 66.325 102.36 66.4525 102.416 66.6039C103.314 69.0268 105.083 74.2539 105.625 77.574Z" fill="white"/>
<path fill-rule="evenodd" clip-rule="evenodd" d="M128.514 27.0508C122.294 25.1153 117.816 27.5568 115.343 30.0347C114.544 30.836 114.54 32.2152 115.423 33.3469C116.398 34.5972 116.439 36.1241 115.921 37.3948C115.408 38.6517 114.328 39.7277 112.93 40.1911C110.628 40.9544 109.456 42.0653 108.879 43.2388C108.287 44.4415 108.236 45.8772 108.51 47.4306C108.785 48.9824 109.363 50.544 109.919 51.9412C109.994 52.1321 110.071 52.3219 110.146 52.5087C110.338 52.9886 110.523 53.4486 110.673 53.8568C110.876 54.4071 111.062 54.9777 111.109 55.4646L111.464 59.1011L105.677 51.1905C104.695 50.0489 103.709 48.9933 102.475 48.4592C101.316 47.9574 99.798 47.8633 97.6209 49.0193C96.3258 49.7069 95.621 50.7612 95.3029 52.0588C94.9758 53.3929 95.0604 54.9906 95.4149 56.6597C96.2038 60.3744 99.1386 63.2594 102.636 65.3869C102.964 65.5865 103.218 65.8914 103.353 66.2564C104.252 68.6794 106.053 73.9876 106.612 77.4132C107.194 80.9874 106.849 85.8048 104.23 92.7837C108.744 99.9871 113.228 105.568 116.78 109.067C118.599 110.859 120.128 112.06 121.257 112.668C121.721 112.917 122.064 113.038 122.298 113.082L120.126 87.2774L130.794 83.5276C134.596 82.1911 138.1 80.2703 140.17 77.1104C144.541 70.4364 145.5 62.0967 145.209 54.6096C144.98 48.6875 143.98 43.4256 143.334 40.025C143.163 39.1248 143.017 38.3551 142.916 37.7381C142.423 34.7104 141.461 32.9514 139.442 31.4999C137.309 29.9668 133.964 28.7464 128.514 27.0508ZM113.928 28.622C116.796 25.7476 122.018 22.9349 129.108 25.1411C134.49 26.8157 138.166 28.1193 140.609 29.876C143.166 31.7142 144.335 34.0107 144.89 37.4162C144.983 37.9829 145.121 38.7109 145.286 39.5758C145.93 42.9594 146.972 48.4365 147.208 54.5322C147.505 62.1885 146.547 71.0234 141.843 78.2062C139.412 81.917 135.403 84.0273 131.457 85.4145L122.249 88.6512L124.38 113.979L124.169 114.277C123.709 114.926 123.003 115.141 122.316 115.097C121.675 115.056 120.989 114.795 120.309 114.429C118.934 113.688 117.247 112.334 115.377 110.492C111.617 106.788 106.933 100.925 102.269 93.4199L102.007 92.9974L102.185 92.5332C104.879 85.5292 105.161 80.9437 104.638 77.7351C104.12 74.561 102.42 69.5039 101.512 67.0445C97.8583 64.8041 94.4089 61.5499 93.4585 57.0752C93.0711 55.2511 92.934 53.3216 93.3604 51.5826C93.7957 49.8071 94.8196 48.2423 96.683 47.2528C99.3059 45.8601 101.464 45.8423 103.27 46.6238C104.854 47.3098 106.05 48.5698 106.985 49.6452C106.807 49.037 106.653 48.4105 106.541 47.7785C106.229 46.0105 106.23 44.091 107.084 42.3558C107.952 40.5915 109.619 39.1818 112.3 38.2927C113.12 38.021 113.767 37.3781 114.069 36.6393C114.365 35.9142 114.307 35.1686 113.845 34.5766C112.538 32.8999 112.212 30.3414 113.928 28.622Z" fill="#004070"/>
<path fill-rule="evenodd" clip-rule="evenodd" d="M123.627 114.122L145.03 211.517L143.077 211.946L121.674 114.552L123.627 114.122Z" fill="#004070"/>
<path d="M77.8614 117.247L94.8236 104.213L103.23 91.8828L121.205 113.468L107.734 130.524L94.8236 104.213L77.8614 117.247C63.2316 128.489 55.9816 146.874 59.0007 165.075L63.7961 193.986C68.73 223.732 96.6933 243.959 126.489 239.335L183.981 230.414L179.775 214.479L170.461 145.274C167.866 125.988 154.316 109.96 135.731 104.191L131.954 103.018L139.444 122.985L122.834 113.416L121.522 92.9241L131.954 103.018L135.731 104.191C154.316 109.96 167.866 125.988 170.461 145.274L179.775 214.479L183.981 230.414L126.489 239.335C96.6933 243.959 68.73 223.732 63.7961 193.986L59.0007 165.075C55.9816 146.874 63.2316 128.489 77.8614 117.247Z" fill="#AAC9E7"/>
<path fill-rule="evenodd" clip-rule="evenodd" d="M103.151 90.2249L121.779 112.595L120.359 90.4076L132.479 102.134L136.027 103.236C154.984 109.12 168.805 125.469 171.452 145.141L180.758 214.285L185.231 231.232L126.642 240.324C96.3049 245.032 67.8331 224.436 62.8095 194.15L58.0141 165.239C54.9347 146.674 62.3296 127.921 77.252 116.454L94.0875 103.518L103.151 90.2249ZM94.4641 105.751L78.4707 118.04C64.1334 129.057 57.0285 147.075 59.9872 164.912L64.7826 193.823C69.6268 223.027 97.0817 242.887 126.335 238.348L182.731 229.596L179.006 215.484L114.261 215.83C104.501 215.883 95.9915 209.204 93.7233 199.711L85.3553 164.69L87.3006 164.225L95.6686 199.246C97.7208 207.835 105.42 213.878 114.25 213.83L168.184 213.542L159.279 162.251L161.249 161.908L170.212 213.531L178.632 213.486L169.47 145.408C166.926 126.507 153.648 110.8 135.434 105.146L133.608 104.579L141.358 125.243L121.992 114.085L107.535 132.389L94.4641 105.751ZM131.097 103.581L122.685 95.4414L123.797 112.817L137.529 120.728L131.097 103.581ZM95.9779 104.295L107.932 128.659L119.918 113.485L103.31 93.5416L95.9779 104.295Z" fill="#004070"/>
<path d="M407.55 101.104C388.56 83.8508 368.171 85.8032 360.351 88.9361L337.33 89.6766C329.831 89.9178 322.242 93.6748 316.451 97.6173C310.687 101.541 307 107.666 304.531 114.187L279.73 179.698C278.021 184.213 274.736 187.957 270.482 190.24L224.259 215.043L232.364 223.599C245.437 219.577 259.222 218.105 281.463 211.05C303.705 203.996 311.386 178.633 312.447 166.833L306.872 239.767C323.834 252.187 409.767 237.178 405.427 236.597C401.956 236.132 395.148 230.444 394.012 217.515L399.983 134.484L436.274 165.732L409.049 214.87C417.793 218.046 420.118 223.158 420.187 225.317C432.464 211.476 457.762 180.023 460.733 164.945C464.448 146.096 431.288 122.671 407.55 101.104Z" fill="white"/>
<path fill-rule="evenodd" clip-rule="evenodd" d="M406.878 101.845C388.203 84.8777 368.23 86.8571 360.722 89.8646L360.559 89.9301L337.362 90.6762C330.144 90.9084 322.745 94.5424 317.014 98.4441C311.487 102.206 307.898 108.119 305.466 114.541L280.666 180.052C278.871 184.793 275.422 188.724 270.955 191.121L225.885 215.305L232.665 222.462C238.026 220.846 243.527 219.634 249.639 218.286C250.822 218.026 252.027 217.76 253.258 217.486C261.106 215.736 270.08 213.612 281.161 210.097C291.965 206.67 299.271 198.788 304.024 190.236C308.781 181.675 310.932 172.523 311.451 166.744L313.444 166.909L313.443 166.923L307.912 239.271C309.86 240.543 312.723 241.529 316.347 242.239C320.239 243.002 324.912 243.43 330.069 243.594C340.381 243.922 352.529 243.197 364.04 242.062C375.546 240.928 386.388 239.389 394.079 238.098C397.657 237.497 400.543 236.951 402.492 236.527C401.014 235.648 399.452 234.245 398.038 232.323C395.64 229.064 393.598 224.23 393.016 217.602L393.009 217.523L399.128 132.428L437.543 165.505L410.481 214.349C416.764 216.895 419.683 220.5 420.721 223.198C426.819 216.228 435.485 205.684 443.137 195.012C447.24 189.29 451.042 183.544 454 178.302C456.968 173.039 459.041 168.36 459.752 164.752C460.616 160.368 459.355 155.622 456.46 150.547C453.566 145.474 449.098 140.177 443.726 134.748C436.992 127.942 428.957 121.038 420.96 114.166C416.156 110.038 411.365 105.921 406.878 101.845ZM405.295 237.588C405.319 237.591 405.312 237.593 405.285 237.587C405.289 237.587 405.292 237.588 405.295 237.588ZM405.013 235.874C405.035 235.862 405.04 235.861 405.02 235.871C405.019 235.872 405.016 235.873 405.013 235.874ZM310.381 180.743C309.22 184.16 307.704 187.73 305.772 191.207C300.858 200.049 293.203 208.376 281.766 212.004C270.605 215.543 261.567 217.682 253.693 219.438C252.45 219.715 251.238 219.982 250.052 220.244C243.712 221.641 238.124 222.873 232.658 224.555L232.065 224.737L222.633 214.781L270.01 189.359C274.051 187.19 277.171 183.633 278.795 179.344L303.596 113.833C306.102 107.214 309.888 100.876 315.888 96.7909C321.739 92.8076 329.519 88.9275 337.298 88.6773L360.145 87.9424C368.393 84.7246 389.047 82.9422 408.223 100.364C412.617 104.357 417.366 108.439 422.155 112.555C430.207 119.475 438.371 126.492 445.147 133.341C450.568 138.819 455.176 144.261 458.197 149.556C461.216 154.848 462.708 160.098 461.714 165.138C460.94 169.07 458.736 173.976 455.742 179.284C452.736 184.612 448.89 190.422 444.762 196.178C436.508 207.69 427.092 219.04 420.935 225.981L419.269 227.86L419.188 225.349C419.136 223.729 417.206 218.897 408.708 215.81L407.607 215.41L435.005 165.959L400.837 136.539L395.015 217.506C395.578 223.767 397.5 228.217 399.649 231.138C401.837 234.111 404.192 235.423 405.56 235.606L405.564 235.606C405.641 235.617 405.886 235.649 406.114 235.798C406.248 235.886 406.51 236.106 406.574 236.505C406.636 236.902 406.456 237.191 406.357 237.315C406.189 237.526 405.969 237.633 405.902 237.666L405.898 237.668C405.789 237.721 405.67 237.767 405.553 237.808C405.097 237.968 404.337 238.164 403.353 238.385C401.36 238.833 398.273 239.421 394.41 240.07C386.678 241.368 375.791 242.914 364.236 244.053C352.685 245.191 340.441 245.925 330.005 245.593C324.788 245.427 319.999 244.993 315.962 244.202C311.947 243.415 308.578 242.256 306.281 240.574L305.832 240.245L310.381 180.743Z" fill="#004070"/>
<path d="M307.939 64.4146C301.791 53.6802 303.691 38.1851 312.94 31.4146C315.506 43.5588 349.342 58.2933 347.261 61.2371C345.596 63.5922 350.398 68.5682 351.207 71.1793C387.257 41.9702 338.799 1.09479 312.685 23.5114C286.572 45.9279 315.623 77.8326 307.939 64.4146Z" fill="#005072"/>
<path fill-rule="evenodd" clip-rule="evenodd" d="M354.544 28.6864C343.899 17.8499 325.858 13.5221 313.337 24.2701C301.715 34.2463 301.365 46.1155 303.681 54.8528C303.275 51.9961 303.277 49.0892 303.676 46.2872C304.566 40.0295 307.455 34.1899 312.349 30.6077L313.598 29.6933L313.918 31.2078C314.488 33.9066 316.862 36.9197 320.345 40.0388C323.787 43.1214 328.14 46.1601 332.391 48.9389C334.251 50.155 336.107 51.3309 337.851 52.4359C340.051 53.8293 342.073 55.1099 343.7 56.2162C345.163 57.211 346.387 58.1168 347.185 58.8904C347.577 59.2702 347.934 59.6809 348.144 60.1089C348.361 60.5502 348.506 61.2093 348.078 61.8143C347.912 62.0494 347.832 62.4421 348.026 63.1538C348.219 63.8596 348.632 64.6905 349.169 65.6063C349.509 66.1856 349.867 66.7488 350.226 67.3135C350.44 67.6504 350.655 67.9879 350.866 68.3297C351.118 68.7376 351.367 69.1543 351.585 69.5638C359.678 62.6441 362.96 55.1965 363.069 48.2406C363.182 40.9756 359.837 34.0743 354.544 28.6864ZM365.069 48.2718C364.945 56.2127 361.032 64.5054 351.837 71.9562L350.689 72.886L350.252 71.4753C350.093 70.9601 349.708 70.26 349.165 69.3811C348.982 69.0852 348.78 68.7676 348.571 68.4385C348.196 67.8482 347.798 67.2213 347.444 66.618C346.887 65.669 346.362 64.6512 346.097 63.68C345.855 62.7944 345.789 61.7851 346.294 60.8967C346.211 60.7699 346.056 60.581 345.793 60.3267C345.13 59.6835 344.032 58.8604 342.575 57.8701C340.957 56.7697 338.994 55.527 336.832 54.158C335.091 53.0554 333.221 51.871 331.296 50.613C327.027 47.8222 322.57 44.7163 319.011 41.5286C316.013 38.8435 313.523 35.9903 312.411 33.1182C308.713 36.3529 306.416 41.223 305.656 46.569C304.821 52.4313 305.853 58.7609 308.806 63.9176C309.297 64.7743 309.653 65.471 309.889 66.0152C310.007 66.2869 310.1 66.5343 310.166 66.7538C310.226 66.9565 310.283 67.2036 310.278 67.4505C310.274 67.6392 310.21 68.2788 309.558 68.528C309.282 68.6331 309.032 68.6045 308.875 68.5665C308.717 68.528 308.586 68.4636 308.493 68.4095C308.153 68.2135 307.804 67.8563 307.488 67.4837C306.155 65.9141 304.004 62.3646 302.452 57.7176C299.335 48.3796 298.565 34.3146 312.034 22.7525C325.627 11.0839 344.871 15.9856 355.971 27.2849C361.551 32.9649 365.192 40.3581 365.069 48.2718Z" fill="#004070"/>
<path d="M363.151 18.8684C363.372 25.7652 357.746 31.543 350.584 31.7733C343.422 32.0037 337.436 26.5995 337.214 19.7026C336.992 12.8058 342.619 7.028 349.781 6.79763C356.943 6.56726 362.929 11.9715 363.151 18.8684Z" fill="#005072"/>
<path fill-rule="evenodd" clip-rule="evenodd" d="M349.813 7.79725C343.167 8.01102 338.011 13.361 338.214 19.6706C338.417 25.9802 343.906 30.9878 350.552 30.774C357.198 30.5602 362.354 25.2103 362.151 18.9007C361.948 12.591 356.459 7.58348 349.813 7.79725ZM336.215 19.7349C335.974 12.2508 342.07 6.04526 349.749 5.79828C357.427 5.55131 363.909 11.3523 364.15 18.8364C364.391 26.3204 358.295 32.526 350.616 32.773C342.938 33.0199 336.456 27.219 336.215 19.7349Z" fill="#004070"/>
<path d="M336.924 85.3527C339.038 96.8196 336.986 109.862 335.696 114.95C349.581 112.773 357.399 96.7096 359.572 88.9498L357.325 86.8593C348.914 78.4786 350.798 64.7204 352.791 58.8889C365.018 54.8909 354.297 37.9335 349.469 46.019C345.607 52.4874 342.643 52.2463 341.644 51.3172C337.77 39.3302 330.478 35.5757 327.316 35.1967C313.613 38.5212 321.206 26.0212 312.655 31.3427C305.814 35.6 304.413 46.2667 304.567 51.0679C307.311 82.1238 327.282 86.8644 336.924 85.3527Z" fill="white"/>
<path fill-rule="evenodd" clip-rule="evenodd" d="M315.441 31.0814C314.941 31.2181 314.22 31.5468 313.183 32.1916C310.053 34.1396 308.095 37.6077 306.943 41.2993C305.799 44.9624 305.495 48.7007 305.566 51.008C306.923 66.3001 312.496 74.9521 318.757 79.6214C325.052 84.3163 332.174 85.085 336.77 84.3646L337.731 84.2138L337.908 85.1713C339.87 95.817 338.305 107.744 337.022 113.67C342.915 112.264 347.644 108.198 351.228 103.442C354.909 98.5553 357.302 93.0416 358.44 89.2623L356.631 87.5797L356.619 87.5675C352.184 83.1483 350.499 77.3467 350.158 71.9814C349.818 66.6194 350.811 61.5905 351.844 58.5654L352.006 58.0933L352.48 57.9383C355.27 57.0261 356.625 55.4338 357.156 53.7534C357.701 52.0232 357.419 50.0442 356.621 48.3485C355.812 46.6305 354.57 45.3991 353.418 45.0018C352.868 44.8119 352.356 44.8146 351.882 45.0106C351.398 45.2104 350.852 45.6544 350.328 46.5316C348.351 49.8423 346.516 51.5936 344.908 52.3475C343.26 53.1197 341.815 52.8412 340.963 52.0493L340.773 51.8722L340.693 51.6246C336.987 40.16 330.172 36.6536 327.366 36.2129C323.954 37.017 321.648 36.9029 320.028 36.1569C318.336 35.3775 317.606 34.0054 317.136 32.9174C317.041 32.6982 316.963 32.5067 316.892 32.3333C316.771 32.0385 316.672 31.7958 316.55 31.5582C316.369 31.2076 316.241 31.0946 316.16 31.0519C316.105 31.0228 315.928 30.9487 315.441 31.0814ZM320.865 34.3403C321.914 34.8233 323.743 35.0345 327.08 34.2248L327.256 34.1822L327.435 34.2037C331.035 34.6352 338.5 38.6671 342.493 50.696C342.75 50.8216 343.253 50.9141 344.059 50.5366C345.147 50.0263 346.725 48.6639 348.611 45.5062C349.294 44.362 350.138 43.5672 351.118 43.1623C352.106 42.7537 353.128 42.7859 354.071 43.1112C355.905 43.7444 357.484 45.4861 358.431 47.4966C359.388 49.5293 359.795 52.0339 359.063 54.355C358.352 56.6082 356.61 58.5504 353.586 59.6705C352.682 62.5202 351.849 67.0509 352.154 71.8547C352.476 76.9165 354.052 82.1787 358.018 86.1387L360.7 88.6324L360.535 89.2193C359.42 93.2 356.873 99.2729 352.825 104.645C348.78 110.013 343.15 114.794 335.851 115.938L334.354 116.173L334.727 114.704C335.962 109.83 337.908 97.5103 336.104 86.469C331.075 87.0097 323.924 85.9699 317.561 81.2246C310.744 76.1405 304.962 66.902 303.571 51.1558L303.569 51.1279L303.568 51.1C303.488 48.6037 303.81 44.6234 305.034 40.7032C306.253 36.7968 308.416 32.8029 312.127 30.4936C313.228 29.808 314.141 29.3633 314.915 29.152C315.704 28.9367 316.443 28.9402 317.093 29.2827C317.716 29.6115 318.081 30.1642 318.327 30.6419C318.488 30.9541 318.646 31.3382 318.79 31.6879C318.853 31.8432 318.914 31.9916 318.971 32.124C319.385 33.0802 319.86 33.8773 320.865 34.3403Z" fill="#004070"/>
<path fill-rule="evenodd" clip-rule="evenodd" d="M375.574 103.104C374.652 103.59 373.973 104.394 373.767 105.283C373.573 106.123 373.796 107.046 374.295 107.967C374.791 108.882 375.508 109.695 376.114 110.245C376.523 110.616 376.553 111.249 376.182 111.658C375.811 112.067 375.178 112.097 374.77 111.726C374.044 111.067 373.166 110.082 372.537 108.92C371.91 107.763 371.474 106.327 371.819 104.833C372.18 103.27 373.312 102.036 374.642 101.335C375.972 100.634 377.63 100.398 379.124 101.008C380.274 101.478 381.208 102.424 381.712 103.874C382.205 105.292 382.279 107.159 381.841 109.529C381.74 110.072 381.218 110.43 380.675 110.33C380.132 110.229 379.773 109.708 379.874 109.165C380.276 106.991 380.162 105.506 379.823 104.531C379.495 103.588 378.953 103.099 378.367 102.86C377.531 102.518 376.496 102.618 375.574 103.104Z" fill="#004070"/>
<path fill-rule="evenodd" clip-rule="evenodd" d="M376.703 149.204C375.786 149.688 375.161 150.502 375.065 151.344C374.985 152.042 375.214 152.807 375.653 153.57C376.089 154.325 376.685 154.993 377.191 155.453C377.6 155.824 377.631 156.457 377.259 156.865C376.888 157.274 376.256 157.305 375.847 156.933C375.225 156.369 374.483 155.544 373.921 154.569C373.363 153.601 372.931 152.397 373.078 151.117C373.267 149.459 374.426 148.144 375.77 147.435C377.114 146.726 378.854 146.512 380.323 147.34C382.267 148.436 383.103 150.972 382.376 154.9C382.276 155.443 381.754 155.802 381.211 155.702C380.668 155.601 380.309 155.079 380.41 154.536C381.084 150.894 380.147 149.537 379.341 149.083C378.618 148.675 377.621 148.72 376.703 149.204Z" fill="#004070"/>
<path fill-rule="evenodd" clip-rule="evenodd" d="M434.934 175.374C434.017 175.858 433.392 176.671 433.295 177.513C433.216 178.211 433.444 178.976 433.884 179.739C434.32 180.495 434.915 181.162 435.422 181.622C435.831 181.994 435.861 182.626 435.49 183.035C435.119 183.444 434.486 183.474 434.077 183.103C433.456 182.538 432.714 181.714 432.152 180.738C431.593 179.77 431.162 178.567 431.308 177.286C431.498 175.628 432.657 174.314 434 173.605C435.344 172.896 437.084 172.681 438.554 173.51C440.498 174.605 441.334 177.141 440.607 181.07C440.506 181.613 439.985 181.971 439.441 181.871C438.898 181.77 438.54 181.249 438.64 180.706C439.314 177.064 438.377 175.706 437.572 175.252C436.849 174.844 435.851 174.889 434.934 175.374Z" fill="#004070"/>
<path fill-rule="evenodd" clip-rule="evenodd" d="M342.81 132.127C341.89 132.612 341.233 133.42 341.074 134.292C340.932 135.07 341.157 135.923 341.631 136.776C342.102 137.622 342.766 138.371 343.329 138.883C343.738 139.254 343.768 139.886 343.397 140.295C343.026 140.704 342.393 140.735 341.984 140.363C341.304 139.745 340.485 138.83 339.884 137.748C339.286 136.673 338.85 135.337 339.106 133.933C339.399 132.33 340.54 131.062 341.877 130.358C343.214 129.653 344.905 129.428 346.392 130.125C348.603 131.161 349.629 133.871 348.821 138.237C348.72 138.78 348.198 139.139 347.655 139.039C347.112 138.938 346.754 138.416 346.854 137.873C347.606 133.811 346.49 132.379 345.543 131.935C344.75 131.564 343.729 131.642 342.81 132.127Z" fill="#004070"/>
<path fill-rule="evenodd" clip-rule="evenodd" d="M342.428 171.761C341.511 172.245 340.915 173.061 340.869 173.872C340.833 174.51 341.062 175.208 341.474 175.9C341.882 176.586 342.424 177.19 342.887 177.611C343.296 177.982 343.326 178.614 342.955 179.023C342.584 179.432 341.951 179.462 341.542 179.091C340.967 178.569 340.286 177.814 339.755 176.923C339.229 176.038 338.805 174.939 338.872 173.759C338.969 172.057 340.147 170.704 341.494 169.993C342.841 169.281 344.625 169.073 346.071 170.019C347.801 171.15 348.497 173.54 347.833 177.13C347.733 177.673 347.211 178.032 346.668 177.931C346.125 177.831 345.766 177.309 345.867 176.766C346.48 173.451 345.679 172.152 344.977 171.693C344.317 171.261 343.345 171.277 342.428 171.761Z" fill="#004070"/>
<path fill-rule="evenodd" clip-rule="evenodd" d="M370.083 195.681C369.166 196.165 368.558 196.98 368.49 197.806C368.435 198.469 368.664 199.196 369.089 199.919C369.509 200.635 370.074 201.266 370.555 201.704C370.964 202.075 370.995 202.708 370.623 203.116C370.252 203.525 369.62 203.556 369.211 203.184C368.615 202.644 367.908 201.859 367.364 200.931C366.823 200.01 366.396 198.866 366.496 197.642C366.635 195.959 367.804 194.623 369.149 193.913C370.495 193.202 372.259 192.991 373.717 193.885C375.54 195.002 376.296 197.456 375.605 201.192C375.504 201.735 374.983 202.094 374.44 201.994C373.897 201.893 373.538 201.371 373.638 200.828C374.278 197.372 373.419 196.047 372.672 195.59C371.984 195.168 371 195.197 370.083 195.681Z" fill="#004070"/>
<path fill-rule="evenodd" clip-rule="evenodd" d="M326.075 210.763C325.157 211.248 324.562 212.064 324.516 212.875C324.479 213.513 324.709 214.21 325.121 214.903C325.528 215.588 326.071 216.193 326.533 216.613C326.942 216.984 326.972 217.617 326.601 218.026C326.23 218.434 325.597 218.465 325.189 218.094C324.613 217.571 323.932 216.817 323.402 215.925C322.875 215.04 322.452 213.942 322.519 212.761C322.616 211.06 323.793 209.707 325.14 208.995C326.487 208.283 328.271 208.075 329.718 209.022C331.447 210.153 332.144 212.543 331.48 216.133C331.379 216.676 330.857 217.034 330.314 216.934C329.771 216.833 329.412 216.312 329.513 215.769C330.126 212.453 329.325 211.155 328.623 210.695C327.963 210.264 326.992 210.279 326.075 210.763Z" fill="#004070"/>
<path fill-rule="evenodd" clip-rule="evenodd" d="M366.715 233.166C365.793 233.651 365.113 234.455 364.908 235.345C364.714 236.185 364.936 237.107 365.435 238.028C365.931 238.944 366.648 239.756 367.255 240.307C367.663 240.678 367.694 241.31 367.323 241.719C366.951 242.128 366.319 242.159 365.91 241.787C365.184 241.128 364.307 240.144 363.677 238.981C363.05 237.825 362.614 236.388 362.959 234.894C363.32 233.331 364.452 232.097 365.782 231.396C367.113 230.695 368.771 230.46 370.264 231.07C371.415 231.54 372.348 232.485 372.853 233.936C373.346 235.354 373.42 237.22 372.981 239.59C372.881 240.133 372.359 240.492 371.816 240.392C371.273 240.291 370.914 239.769 371.014 239.226C371.417 237.053 371.303 235.567 370.964 234.592C370.636 233.649 370.093 233.161 369.508 232.921C368.671 232.58 367.636 232.68 366.715 233.166Z" fill="#004070"/>
<path fill-rule="evenodd" clip-rule="evenodd" d="M388.163 154.422C387.615 153.554 386.75 152.982 385.888 152.933C385.224 152.896 384.543 153.146 383.886 153.598C383.231 154.048 382.668 154.655 382.274 155.196C381.95 155.643 381.324 155.742 380.878 155.417C380.431 155.093 380.332 154.467 380.657 154.021C381.15 153.342 381.869 152.558 382.753 151.95C383.635 151.343 384.75 150.866 386.001 150.936C387.652 151.029 389.045 152.074 389.854 153.354C390.663 154.634 391.005 156.344 390.269 157.869C389.8 158.843 388.942 159.62 387.703 159.994C386.49 160.361 384.967 160.328 383.13 159.831C382.597 159.687 382.282 159.138 382.426 158.605C382.57 158.071 383.12 157.756 383.653 157.901C385.264 158.337 386.384 158.304 387.124 158.08C387.839 157.864 388.247 157.459 388.468 157C388.825 156.259 388.711 155.289 388.163 154.422Z" fill="#004070"/>
<path fill-rule="evenodd" clip-rule="evenodd" d="M446.394 180.591C445.845 179.723 444.981 179.151 444.119 179.102C443.455 179.065 442.774 179.314 442.117 179.766C441.462 180.217 440.898 180.824 440.505 181.365C440.18 181.812 439.555 181.911 439.108 181.586C438.661 181.262 438.562 180.636 438.887 180.19C439.38 179.511 440.099 178.727 440.983 178.119C441.865 177.512 442.981 177.035 444.232 177.105C445.882 177.198 447.276 178.243 448.085 179.523C448.894 180.803 449.235 182.513 448.5 184.038C448.03 185.012 447.173 185.789 445.934 186.163C444.721 186.53 443.198 186.497 441.361 186C440.827 185.856 440.512 185.307 440.657 184.774C440.801 184.24 441.35 183.925 441.883 184.07C443.494 184.506 444.614 184.473 445.355 184.249C446.07 184.033 446.477 183.628 446.698 183.169C447.056 182.428 446.942 181.458 446.394 180.591Z" fill="#004070"/>
<path fill-rule="evenodd" clip-rule="evenodd" d="M355.101 137.694C354.55 136.825 353.686 136.221 352.79 136.109C352.037 136.016 351.27 136.268 350.533 136.757C349.796 137.245 349.162 137.923 348.724 138.526C348.399 138.972 347.774 139.071 347.327 138.747C346.88 138.422 346.782 137.797 347.106 137.35C347.647 136.606 348.445 135.741 349.429 135.089C350.412 134.438 351.656 133.953 353.036 134.125C354.637 134.323 355.985 135.352 356.79 136.624C357.596 137.896 357.948 139.556 357.341 141.092C356.909 142.182 356.037 143.09 354.705 143.545C353.403 143.99 351.737 143.979 349.701 143.428C349.168 143.284 348.853 142.735 348.997 142.202C349.141 141.669 349.69 141.353 350.223 141.498C352.025 141.985 353.258 141.926 354.058 141.653C354.829 141.389 355.262 140.908 355.481 140.356C355.799 139.551 355.651 138.563 355.101 137.694Z" fill="#004070"/>
<path fill-rule="evenodd" clip-rule="evenodd" d="M388.494 108.941C387.941 108.069 387.078 107.444 386.162 107.287C385.338 107.146 384.506 107.4 383.707 107.915C382.907 108.431 382.219 109.163 381.746 109.813C381.422 110.26 380.796 110.359 380.349 110.034C379.903 109.709 379.804 109.084 380.128 108.637C380.705 107.844 381.564 106.917 382.623 106.234C383.684 105.549 385.024 105.063 386.5 105.316C388.064 105.584 389.38 106.604 390.182 107.869C390.986 109.134 391.347 110.761 390.824 112.299C390.424 113.475 389.544 114.482 388.145 114.999C386.778 115.505 385.004 115.513 382.816 114.921C382.283 114.776 381.968 114.227 382.112 113.694C382.256 113.161 382.805 112.846 383.338 112.99C385.286 113.517 386.605 113.436 387.451 113.124C388.265 112.822 388.717 112.28 388.93 111.654C389.218 110.809 389.046 109.811 388.494 108.941Z" fill="#004070"/>
<path fill-rule="evenodd" clip-rule="evenodd" d="M377.665 167.361C378.661 167.378 379.535 166.98 379.995 166.283C380.344 165.754 380.464 165.063 380.403 164.279C380.343 163.497 380.107 162.709 379.847 162.084C379.635 161.574 379.876 160.989 380.386 160.776C380.896 160.564 381.481 160.805 381.693 161.315C382.009 162.073 382.316 163.073 382.397 164.124C382.479 165.171 382.342 166.356 381.665 167.383C380.74 168.787 379.133 169.387 377.631 169.361C376.131 169.336 374.545 168.687 373.601 167.345C372.869 166.305 372.499 164.941 372.909 163.461C373.314 162.002 374.435 160.577 376.38 159.283C376.839 158.977 377.46 159.102 377.766 159.562C378.072 160.021 377.947 160.642 377.488 160.948C375.792 162.077 375.071 163.149 374.837 163.996C374.608 164.822 374.801 165.574 375.237 166.195C375.741 166.912 376.668 167.345 377.665 167.361Z" fill="#004070"/>
<path fill-rule="evenodd" clip-rule="evenodd" d="M435.896 193.53C436.891 193.547 437.766 193.149 438.226 192.451C438.574 191.922 438.695 191.232 438.634 190.447C438.574 189.666 438.338 188.877 438.078 188.252C437.865 187.742 438.107 187.157 438.616 186.945C439.126 186.732 439.712 186.974 439.924 187.483C440.24 188.241 440.547 189.241 440.628 190.292C440.709 191.34 440.572 192.525 439.896 193.551C438.971 194.955 437.364 195.555 435.862 195.53C434.362 195.504 432.775 194.855 431.832 193.514C431.1 192.473 430.73 191.11 431.14 189.63C431.545 188.171 432.666 186.746 434.61 185.452C435.07 185.146 435.691 185.27 435.997 185.73C436.303 186.19 436.178 186.811 435.718 187.117C434.022 188.245 433.302 189.317 433.068 190.164C432.839 190.99 433.032 191.743 433.468 192.363C433.972 193.08 434.898 193.513 435.896 193.53Z" fill="#004070"/>
<path fill-rule="evenodd" clip-rule="evenodd" d="M353.234 176.707C352.686 175.838 351.823 175.295 350.996 175.297C350.398 175.298 349.782 175.544 349.187 175.967C348.596 176.387 348.087 176.939 347.728 177.432C347.404 177.879 346.778 177.978 346.331 177.653C345.885 177.329 345.786 176.703 346.11 176.257C346.566 175.629 347.223 174.909 348.029 174.336C348.832 173.766 349.846 173.299 350.992 173.297C352.682 173.294 354.115 174.355 354.926 175.64C355.736 176.924 356.073 178.679 355.22 180.188C354.179 182.031 351.843 182.766 348.49 181.859C347.956 181.714 347.641 181.165 347.786 180.632C347.93 180.099 348.479 179.784 349.012 179.928C351.951 180.724 353.088 179.896 353.479 179.204C353.864 178.523 353.782 177.575 353.234 176.707Z" fill="#004070"/>
<path fill-rule="evenodd" clip-rule="evenodd" d="M336.88 215.709C336.333 214.84 335.469 214.297 334.642 214.299C334.044 214.3 333.428 214.546 332.834 214.969C332.242 215.389 331.733 215.941 331.375 216.434C331.05 216.881 330.425 216.98 329.978 216.655C329.531 216.331 329.432 215.705 329.757 215.259C330.213 214.631 330.869 213.911 331.675 213.338C332.479 212.768 333.493 212.301 334.639 212.299C336.329 212.296 337.762 213.357 338.572 214.642C339.382 215.926 339.719 217.681 338.867 219.19C337.825 221.033 335.489 221.768 332.136 220.861C331.603 220.716 331.288 220.167 331.432 219.634C331.576 219.101 332.125 218.786 332.659 218.93C335.597 219.726 336.734 218.898 337.125 218.206C337.51 217.525 337.428 216.577 336.88 215.709Z" fill="#004070"/>
<path fill-rule="evenodd" clip-rule="evenodd" d="M382.018 241.183C381.592 241.534 380.961 241.473 380.61 241.047C377.548 237.332 373.955 238.405 372.887 239.874C372.563 240.32 371.937 240.419 371.49 240.095C371.044 239.77 370.945 239.145 371.269 238.698C373.215 236.021 378.382 235.198 382.154 239.775C382.505 240.201 382.444 240.831 382.018 241.183Z" fill="#004070"/>
<path fill-rule="evenodd" clip-rule="evenodd" d="M343.861 151.581C344.862 151.597 345.775 151.214 346.307 150.517C346.747 149.943 346.908 149.181 346.855 148.31C346.803 147.44 346.542 146.555 346.253 145.859C346.04 145.349 346.281 144.764 346.791 144.552C347.301 144.339 347.887 144.58 348.099 145.09C348.445 145.922 348.782 147.032 348.852 148.19C348.921 149.347 348.727 150.646 347.896 151.732C346.9 153.035 345.323 153.605 343.829 153.581C342.335 153.557 340.777 152.939 339.781 151.674C338.933 150.596 338.451 149.139 338.837 147.532C339.22 145.944 340.409 144.379 342.544 142.959C343.003 142.653 343.624 142.777 343.93 143.237C344.236 143.697 344.111 144.318 343.652 144.624C341.774 145.873 341.007 147.063 340.782 148C340.561 148.919 340.82 149.759 341.353 150.437C341.913 151.148 342.858 151.565 343.861 151.581Z" fill="#004070"/>
<path fill-rule="evenodd" clip-rule="evenodd" d="M381.172 200.744C380.624 199.876 379.76 199.32 378.917 199.299C378.291 199.284 377.647 199.533 377.026 199.968C376.406 200.402 375.874 200.977 375.501 201.491C375.176 201.938 374.551 202.037 374.104 201.712C373.657 201.388 373.558 200.762 373.883 200.315C374.355 199.666 375.038 198.918 375.878 198.33C376.715 197.743 377.774 197.271 378.965 197.3C380.638 197.34 382.054 198.393 382.864 199.676C383.674 200.959 384.012 202.694 383.212 204.211C382.727 205.131 381.879 205.85 380.683 206.19C379.511 206.523 378.052 206.481 376.303 206.008C375.77 205.863 375.454 205.314 375.599 204.781C375.743 204.248 376.292 203.933 376.825 204.077C378.353 204.491 379.423 204.469 380.137 204.266C380.827 204.07 381.222 203.697 381.443 203.278C381.817 202.57 381.72 201.611 381.172 200.744Z" fill="#004070"/>
<path fill-rule="evenodd" clip-rule="evenodd" d="M370.03 158.482C370.16 159.551 370.707 160.224 371.359 160.37C371.943 160.501 372.723 160.381 373.617 160.085C374.341 159.845 375.028 159.53 375.634 159.252C375.765 159.192 375.892 159.134 376.014 159.079C376.518 158.852 377.11 159.076 377.337 159.579C377.564 160.083 377.34 160.675 376.836 160.902C376.733 160.949 376.62 161.001 376.498 161.056C375.893 161.334 375.086 161.705 374.247 161.983C373.255 162.312 372.048 162.574 370.921 162.321C369.117 161.917 368.23 160.243 368.045 158.725C367.858 157.201 368.306 155.377 369.687 154.342C371.375 153.078 373.869 153.453 377.027 155.579C377.485 155.887 377.606 156.509 377.298 156.967C376.989 157.425 376.368 157.546 375.91 157.238C372.896 155.209 371.475 155.502 370.887 155.943C370.254 156.416 369.9 157.419 370.03 158.482Z" fill="#004070"/>
<path fill-rule="evenodd" clip-rule="evenodd" d="M428.26 184.651C428.391 185.72 428.938 186.393 429.589 186.539C430.174 186.67 430.953 186.551 431.848 186.254C432.572 186.014 433.259 185.699 433.865 185.421C433.995 185.362 434.122 185.303 434.245 185.248C434.748 185.021 435.341 185.245 435.568 185.749C435.795 186.252 435.57 186.844 435.067 187.071C434.963 187.118 434.85 187.17 434.729 187.226C434.124 187.503 433.316 187.874 432.477 188.152C431.486 188.481 430.279 188.743 429.152 188.491C427.347 188.086 426.461 186.412 426.275 184.894C426.089 183.37 426.536 181.547 427.918 180.511C429.605 179.247 432.1 179.623 435.257 181.748C435.715 182.057 435.837 182.678 435.528 183.136C435.22 183.594 434.599 183.716 434.14 183.407C431.126 181.378 429.706 181.671 429.117 182.112C428.485 182.586 428.131 183.589 428.26 184.651Z" fill="#004070"/>
<path fill-rule="evenodd" clip-rule="evenodd" d="M335.669 142.081C335.792 143.144 336.32 143.868 337.007 144.083C337.625 144.275 338.476 144.175 339.475 143.857C340.288 143.597 341.066 143.241 341.744 142.93C341.883 142.867 342.017 142.805 342.147 142.747C342.65 142.52 343.242 142.744 343.469 143.247C343.696 143.751 343.472 144.343 342.969 144.57C342.858 144.62 342.737 144.675 342.608 144.735C341.932 145.045 341.023 145.462 340.082 145.762C338.982 146.113 337.636 146.374 336.412 145.992C334.697 145.457 333.858 143.831 333.682 142.31C333.506 140.786 333.943 139.022 335.182 137.911C336.013 137.166 337.139 136.822 338.498 136.994C339.822 137.161 341.366 137.813 343.162 139.022C343.62 139.33 343.741 139.951 343.433 140.41C343.124 140.868 342.503 140.989 342.045 140.681C340.388 139.565 339.143 139.091 338.248 138.978C337.387 138.869 336.862 139.091 336.517 139.401C335.882 139.97 335.547 141.022 335.669 142.081Z" fill="#004070"/>
<path fill-rule="evenodd" clip-rule="evenodd" d="M376.689 123.546C377.696 123.561 378.633 123.187 379.216 122.496C379.731 121.887 379.924 121.069 379.879 120.133C379.835 119.196 379.554 118.237 379.242 117.486C379.03 116.976 379.271 116.391 379.781 116.179C380.29 115.966 380.876 116.207 381.088 116.717C381.458 117.606 381.818 118.799 381.877 120.038C381.936 121.278 381.695 122.661 380.744 123.787C379.704 125.019 378.147 125.568 376.659 125.545C375.172 125.523 373.632 124.929 372.602 123.715C371.666 122.611 371.098 121.085 371.465 119.383C371.829 117.698 373.068 116.027 375.348 114.51C375.808 114.204 376.429 114.328 376.735 114.788C377.041 115.248 376.916 115.869 376.456 116.175C374.44 117.517 373.638 118.798 373.421 119.805C373.207 120.796 373.519 121.704 374.128 122.421C374.726 123.126 375.682 123.53 376.689 123.546Z" fill="#004070"/>
<path fill-rule="evenodd" clip-rule="evenodd" d="M387.418 162.384C387.474 161.929 387.348 161.578 386.937 161.3C386.483 160.993 385.885 160.744 385.2 160.504C384.999 160.433 384.781 160.36 384.558 160.286C384.088 160.13 383.598 159.966 383.202 159.801C382.692 159.588 382.452 159.002 382.664 158.492C382.877 157.983 383.463 157.742 383.973 157.955C384.304 158.093 384.668 158.214 385.087 158.354C385.326 158.433 385.584 158.519 385.863 158.617C386.575 158.867 387.379 159.184 388.058 159.644C389.165 160.394 389.538 161.521 389.404 162.626C389.277 163.669 388.711 164.675 387.997 165.459C387.279 166.247 386.321 166.912 385.281 167.185C384.208 167.467 383.01 167.331 382.035 166.439C380.966 165.46 380.213 163.893 379.869 161.76C379.781 161.214 380.152 160.701 380.697 160.613C381.242 160.525 381.755 160.896 381.843 161.441C382.144 163.303 382.758 164.39 383.385 164.963C383.763 165.309 384.219 165.396 384.772 165.251C385.358 165.097 385.997 164.685 386.518 164.113C387.042 163.537 387.355 162.9 387.418 162.384Z" fill="#004070"/>
<path fill-rule="evenodd" clip-rule="evenodd" d="M445.65 188.553C445.705 188.098 445.579 187.747 445.168 187.469C444.714 187.162 444.116 186.913 443.432 186.673C443.23 186.602 443.012 186.529 442.789 186.455C442.319 186.299 441.829 186.135 441.433 185.97C440.923 185.757 440.683 185.171 440.896 184.661C441.108 184.152 441.694 183.911 442.204 184.124C442.535 184.262 442.899 184.383 443.318 184.523C443.558 184.602 443.815 184.688 444.094 184.786C444.806 185.036 445.61 185.353 446.289 185.813C447.397 186.563 447.77 187.69 447.635 188.795C447.508 189.838 446.942 190.844 446.228 191.628C445.51 192.416 444.552 193.081 443.512 193.354C442.439 193.636 441.241 193.5 440.266 192.608C439.197 191.629 438.445 190.062 438.1 187.929C438.012 187.383 438.383 186.87 438.928 186.782C439.473 186.694 439.987 187.065 440.075 187.61C440.375 189.472 440.99 190.559 441.616 191.132C441.994 191.478 442.451 191.565 443.004 191.419C443.589 191.266 444.228 190.854 444.749 190.282C445.273 189.706 445.587 189.069 445.65 188.553Z" fill="#004070"/>
<path fill-rule="evenodd" clip-rule="evenodd" d="M354.435 146.387C354.509 145.88 354.379 145.477 353.98 145.156C353.521 144.786 352.862 144.489 352.078 144.206C351.82 144.113 351.529 144.016 351.232 143.916C350.723 143.747 350.197 143.571 349.785 143.399C349.275 143.186 349.035 142.6 349.248 142.09C349.461 141.581 350.046 141.34 350.556 141.553C350.918 141.704 351.302 141.832 351.74 141.977C352.048 142.079 352.384 142.19 352.757 142.325C353.576 142.62 354.501 143.008 355.233 143.597C356.263 144.425 356.574 145.573 356.415 146.674C356.261 147.729 355.687 148.74 354.957 149.536C354.224 150.336 353.257 151.005 352.207 151.304C351.135 151.609 349.93 151.535 348.897 150.746C347.598 149.754 346.68 148.003 346.28 145.529C346.192 144.984 346.563 144.47 347.108 144.382C347.653 144.294 348.167 144.665 348.255 145.21C348.607 147.393 349.363 148.585 350.111 149.157C350.536 149.481 351.053 149.553 351.659 149.381C352.285 149.203 352.947 148.77 353.483 148.185C354.021 147.597 354.355 146.941 354.435 146.387Z" fill="#004070"/>
<path d="M350.089 142.729C349.395 144.906 347.067 146.108 344.89 145.413C342.713 144.718 341.511 142.391 342.206 140.214C342.901 138.037 345.228 136.835 347.405 137.53C349.582 138.225 350.784 140.552 350.089 142.729Z" fill="#1EA9A1"/>
<path fill-rule="evenodd" clip-rule="evenodd" d="M347.101 138.483C345.451 137.956 343.685 138.867 343.159 140.518C342.632 142.169 343.543 143.934 345.194 144.46C346.845 144.987 348.61 144.076 349.136 142.425C349.663 140.775 348.752 139.009 347.101 138.483ZM341.253 139.91C342.116 137.207 345.006 135.715 347.709 136.577C350.412 137.44 351.904 140.33 351.042 143.033C350.179 145.736 347.289 147.228 344.586 146.366C341.883 145.503 340.391 142.613 341.253 139.91Z" fill="#004070"/>
<path d="M129.466 122.84C129.654 123.534 129.412 124.204 128.924 124.336C128.436 124.469 127.887 124.014 127.698 123.32C127.51 122.626 127.752 121.956 128.24 121.823C128.728 121.691 129.277 122.146 129.466 122.84Z" fill="#005072"/>
<path fill-rule="evenodd" clip-rule="evenodd" d="M126.775 122.021C126.95 121.537 127.335 121.033 127.978 120.858C128.621 120.683 129.208 120.923 129.604 121.252C130.002 121.582 130.289 122.056 130.431 122.577C130.573 123.099 130.565 123.652 130.389 124.139C130.214 124.622 129.829 125.126 129.186 125.301C128.543 125.476 127.956 125.236 127.56 124.908C127.162 124.578 126.875 124.104 126.733 123.582C126.591 123.061 126.599 122.507 126.775 122.021Z" fill="#004070"/>
<path d="M134.864 148.753C135.053 149.447 134.81 150.117 134.322 150.25C133.834 150.383 133.285 149.928 133.097 149.234C132.908 148.54 133.151 147.869 133.639 147.737C134.127 147.604 134.676 148.059 134.864 148.753Z" fill="#005072"/>
<path fill-rule="evenodd" clip-rule="evenodd" d="M132.174 147.934C132.349 147.451 132.733 146.947 133.377 146.772C134.02 146.597 134.607 146.837 135.002 147.165C135.401 147.496 135.687 147.969 135.829 148.491C135.971 149.012 135.964 149.566 135.787 150.053C135.612 150.536 135.228 151.04 134.585 151.215C133.941 151.39 133.355 151.15 132.959 150.822C132.56 150.491 132.274 150.018 132.132 149.496C131.99 148.974 131.998 148.421 132.174 147.934Z" fill="#004070"/>
<path d="M140.241 174.013C140.43 174.707 140.187 175.377 139.699 175.51C139.211 175.642 138.662 175.187 138.474 174.493C138.285 173.799 138.528 173.129 139.016 172.997C139.504 172.864 140.053 173.319 140.241 174.013Z" fill="#005072"/>
<path fill-rule="evenodd" clip-rule="evenodd" d="M137.551 173.194C137.726 172.711 138.11 172.206 138.753 172.032C139.397 171.857 139.983 172.097 140.379 172.425C140.778 172.755 141.064 173.229 141.206 173.751C141.348 174.272 141.34 174.826 141.164 175.312C140.989 175.796 140.605 176.3 139.961 176.475C139.318 176.65 138.731 176.41 138.336 176.081C137.937 175.751 137.651 175.277 137.509 174.756C137.367 174.234 137.374 173.681 137.551 173.194Z" fill="#004070"/>
<path d="M145.598 198.623C145.786 199.317 145.544 199.987 145.056 200.12C144.567 200.252 144.019 199.797 143.83 199.103C143.641 198.409 143.884 197.739 144.372 197.606C144.86 197.474 145.409 197.929 145.598 198.623Z" fill="#005072"/>
<path fill-rule="evenodd" clip-rule="evenodd" d="M142.907 197.804C143.082 197.32 143.467 196.816 144.11 196.641C144.753 196.467 145.34 196.707 145.736 197.035C146.134 197.365 146.421 197.839 146.563 198.36C146.704 198.882 146.697 199.436 146.521 199.922C146.346 200.406 145.961 200.91 145.318 201.085C144.675 201.259 144.088 201.019 143.692 200.691C143.294 200.361 143.007 199.887 142.865 199.366C142.723 198.844 142.731 198.29 142.907 197.804Z" fill="#004070"/>
<path fill-rule="evenodd" clip-rule="evenodd" d="M326.961 227.901C327.953 227.918 328.793 227.508 329.192 226.815C329.476 226.322 329.567 225.687 329.5 224.97C329.434 224.258 329.219 223.543 328.981 222.974C328.769 222.464 329.01 221.879 329.52 221.666C330.03 221.454 330.615 221.695 330.828 222.205C331.119 222.904 331.402 223.819 331.492 224.785C331.581 225.746 331.485 226.839 330.925 227.813C330.069 229.302 328.433 229.926 326.928 229.901C325.423 229.876 323.81 229.203 322.917 227.793C322.278 226.784 321.995 225.497 322.421 224.119C322.84 222.762 323.905 221.446 325.702 220.251C326.162 219.945 326.782 220.069 327.088 220.529C327.394 220.989 327.27 221.61 326.81 221.916C325.255 222.951 324.572 223.932 324.331 224.709C324.098 225.465 324.243 226.15 324.606 226.723C325.06 227.439 325.968 227.885 326.961 227.901Z" fill="#004070"/>
<path fill-rule="evenodd" clip-rule="evenodd" d="M343.315 188.898C344.307 188.915 345.147 188.505 345.545 187.813C345.829 187.319 345.921 186.684 345.854 185.967C345.788 185.255 345.572 184.54 345.335 183.971C345.123 183.461 345.364 182.876 345.874 182.663C346.384 182.451 346.969 182.692 347.181 183.202C347.473 183.901 347.756 184.816 347.846 185.782C347.935 186.743 347.839 187.836 347.279 188.81C346.422 190.299 344.787 190.923 343.281 190.898C341.777 190.873 340.163 190.2 339.27 188.79C338.631 187.781 338.348 186.494 338.774 185.116C339.194 183.759 340.259 182.443 342.055 181.248C342.515 180.942 343.136 181.066 343.442 181.526C343.748 181.986 343.623 182.607 343.163 182.913C341.608 183.948 340.925 184.929 340.685 185.706C340.451 186.462 340.597 187.147 340.96 187.72C341.414 188.436 342.321 188.882 343.315 188.898Z" fill="#004070"/>
<path fill-rule="evenodd" clip-rule="evenodd" d="M371.003 213.26C371.996 213.277 372.852 212.872 373.277 212.177C373.588 211.668 373.692 211.009 373.628 210.263C373.564 209.521 373.34 208.774 373.093 208.181C372.88 207.671 373.122 207.086 373.631 206.873C374.141 206.661 374.727 206.902 374.939 207.412C375.241 208.137 375.534 209.088 375.621 210.091C375.707 211.09 375.593 212.223 374.983 213.22C374.096 214.672 372.473 215.285 370.969 215.26C369.466 215.235 367.865 214.572 366.949 213.193C366.269 212.17 365.949 210.849 366.368 209.427C366.781 208.025 367.871 206.662 369.732 205.424C370.192 205.118 370.812 205.243 371.118 205.703C371.424 206.162 371.3 206.783 370.84 207.089C369.224 208.165 368.525 209.185 368.287 209.992C368.055 210.779 368.221 211.493 368.615 212.086C369.091 212.803 370.007 213.244 371.003 213.26Z" fill="#004070"/>
<path d="M383.511 159.116C382.858 161.164 380.668 162.294 378.62 161.641C376.572 160.987 375.441 158.797 376.095 156.749C376.748 154.701 378.938 153.571 380.986 154.224C383.034 154.878 384.165 157.068 383.511 159.116Z" fill="#1EA9A1"/>
<path fill-rule="evenodd" clip-rule="evenodd" d="M380.682 155.177C379.16 154.692 377.533 155.532 377.047 157.054C376.562 158.575 377.402 160.203 378.924 160.688C380.445 161.174 382.073 160.334 382.558 158.812C383.044 157.29 382.204 155.663 380.682 155.177ZM375.142 156.446C375.963 153.871 378.716 152.451 381.29 153.272C383.864 154.093 385.285 156.846 384.464 159.42C383.642 161.994 380.89 163.415 378.316 162.594C375.741 161.772 374.321 159.02 375.142 156.446Z" fill="#004070"/>
<path d="M441.742 185.285C441.088 187.333 438.898 188.464 436.85 187.81C434.802 187.157 433.672 184.967 434.325 182.919C434.979 180.871 437.169 179.74 439.217 180.394C441.265 181.047 442.395 183.237 441.742 185.285Z" fill="#1EA9A1"/>
<path fill-rule="evenodd" clip-rule="evenodd" d="M438.913 181.347C437.391 180.861 435.764 181.701 435.278 183.223C434.792 184.745 435.632 186.372 437.154 186.858C438.676 187.343 440.304 186.503 440.789 184.981C441.275 183.46 440.435 181.832 438.913 181.347ZM433.373 182.615C434.194 180.041 436.947 178.62 439.521 179.441C442.095 180.263 443.516 183.015 442.694 185.589C441.873 188.164 439.12 189.584 436.546 188.763C433.972 187.942 432.551 185.189 433.373 182.615Z" fill="#004070"/>
<path d="M298.431 178.955C297.736 181.131 295.409 182.333 293.232 181.638C291.055 180.944 289.853 178.616 290.548 176.439C291.242 174.262 293.57 173.061 295.747 173.755C297.924 174.45 299.126 176.778 298.431 178.955Z" fill="#1EA9A1"/>
<path fill-rule="evenodd" clip-rule="evenodd" d="M295.443 174.708C293.792 174.182 292.027 175.093 291.501 176.743C290.974 178.394 291.885 180.159 293.536 180.686C295.186 181.213 296.952 180.302 297.478 178.651C298.005 177 297.094 175.235 295.443 174.708ZM289.595 176.135C290.458 173.432 293.348 171.94 296.051 172.803C298.754 173.665 300.246 176.556 299.384 179.259C298.521 181.962 295.631 183.454 292.928 182.591C290.225 181.729 288.733 178.839 289.595 176.135Z" fill="#004070"/>
<path fill-rule="evenodd" clip-rule="evenodd" d="M291.152 168.352C290.232 168.837 289.575 169.646 289.416 170.518C289.274 171.295 289.499 172.149 289.973 173.002C290.444 173.848 291.108 174.597 291.671 175.108C292.08 175.48 292.11 176.112 291.739 176.521C291.368 176.93 290.735 176.96 290.326 176.589C289.646 175.971 288.827 175.055 288.226 173.974C287.628 172.899 287.192 171.562 287.448 170.159C287.741 168.555 288.882 167.288 290.219 166.583C291.556 165.878 293.247 165.653 294.734 166.35C296.945 167.387 297.971 170.096 297.163 174.463C297.062 175.006 296.54 175.365 295.997 175.264C295.454 175.164 295.096 174.642 295.196 174.099C295.948 170.036 294.832 168.605 293.885 168.161C293.092 167.79 292.071 167.868 291.152 168.352Z" fill="#004070"/>
<path fill-rule="evenodd" clip-rule="evenodd" d="M303.441 173.92C302.891 173.051 302.027 172.447 301.13 172.335C300.377 172.242 299.611 172.494 298.874 172.983C298.137 173.471 297.503 174.149 297.065 174.752C296.74 175.198 296.115 175.297 295.668 174.973C295.221 174.648 295.122 174.023 295.447 173.576C295.988 172.832 296.786 171.967 297.77 171.315C298.753 170.664 299.996 170.179 301.377 170.351C302.978 170.549 304.326 171.578 305.131 172.85C305.937 174.122 306.289 175.782 305.682 177.318C305.25 178.408 304.378 179.316 303.046 179.771C301.744 180.216 300.078 180.205 298.042 179.654C297.509 179.51 297.193 178.961 297.338 178.428C297.482 177.895 298.031 177.579 298.564 177.724C300.366 178.211 301.599 178.152 302.399 177.879C303.17 177.615 303.603 177.134 303.822 176.582C304.14 175.777 303.992 174.789 303.441 173.92Z" fill="#004070"/>
<path fill-rule="evenodd" clip-rule="evenodd" d="M292.202 187.806C293.204 187.822 294.116 187.438 294.649 186.742C295.088 186.167 295.249 185.406 295.197 184.535C295.145 183.665 294.884 182.78 294.594 182.084C294.382 181.574 294.623 180.989 295.133 180.776C295.643 180.564 296.228 180.805 296.44 181.315C296.787 182.147 297.124 183.257 297.193 184.415C297.263 185.572 297.068 186.871 296.237 187.957C295.241 189.26 293.665 189.83 292.17 189.806C290.677 189.782 289.119 189.164 288.123 187.899C287.274 186.821 286.792 185.364 287.179 183.757C287.561 182.169 288.75 180.604 290.885 179.184C291.345 178.878 291.966 179.002 292.272 179.462C292.578 179.922 292.453 180.543 291.993 180.849C290.116 182.098 289.349 183.288 289.123 184.225C288.902 185.144 289.161 185.984 289.694 186.661C290.255 187.373 291.2 187.79 292.202 187.806Z" fill="#004070"/>
<path fill-rule="evenodd" clip-rule="evenodd" d="M302.777 182.612C302.851 182.105 302.721 181.702 302.322 181.381C301.863 181.012 301.204 180.714 300.42 180.431C300.162 180.338 299.871 180.241 299.574 180.142C299.065 179.972 298.538 179.796 298.127 179.624C297.617 179.411 297.377 178.825 297.59 178.316C297.803 177.806 298.388 177.565 298.898 177.778C299.26 177.929 299.644 178.057 300.082 178.202C300.39 178.304 300.726 178.415 301.098 178.55C301.917 178.845 302.843 179.233 303.575 179.823C304.605 180.651 304.916 181.798 304.756 182.899C304.603 183.954 304.029 184.965 303.299 185.761C302.566 186.561 301.599 187.23 300.548 187.53C299.477 187.835 298.271 187.76 297.239 186.971C295.94 185.979 295.022 184.228 294.622 181.754C294.534 181.209 294.905 180.695 295.45 180.607C295.995 180.519 296.509 180.89 296.597 181.435C296.949 183.618 297.705 184.811 298.453 185.382C298.878 185.706 299.395 185.778 300.001 185.606C300.627 185.428 301.289 184.995 301.825 184.41C302.363 183.822 302.697 183.166 302.777 182.612Z" fill="#004070"/>
<path fill-rule="evenodd" clip-rule="evenodd" d="M284.034 177.862C284.171 178.936 284.731 179.564 285.346 179.66C285.904 179.748 286.627 179.617 287.441 179.338C288.095 179.114 288.713 178.831 289.263 178.579C289.388 178.522 289.509 178.466 289.626 178.414C290.129 178.187 290.722 178.411 290.949 178.914C291.176 179.418 290.951 180.01 290.448 180.237C290.35 180.281 290.243 180.33 290.128 180.383C289.577 180.636 288.848 180.971 288.088 181.231C287.181 181.541 286.083 181.8 285.037 181.636C283.166 181.343 282.243 179.626 282.05 178.115C281.856 176.597 282.309 174.721 283.816 173.765C285.453 172.726 287.764 173.155 290.636 175.089C291.094 175.398 291.216 176.019 290.907 176.477C290.599 176.935 289.977 177.057 289.519 176.748C286.789 174.91 285.451 175.096 284.887 175.454C284.268 175.846 283.898 176.795 284.034 177.862Z" fill="#004070"/>
<path fill-rule="evenodd" clip-rule="evenodd" d="M319.769 219.5C319.906 220.575 320.466 221.203 321.081 221.299C321.639 221.386 322.362 221.255 323.176 220.977C323.83 220.753 324.448 220.47 324.998 220.218C325.123 220.161 325.244 220.105 325.361 220.052C325.864 219.825 326.457 220.049 326.684 220.553C326.911 221.056 326.686 221.649 326.183 221.876C326.085 221.92 325.978 221.969 325.863 222.022C325.312 222.274 324.583 222.609 323.823 222.869C322.916 223.179 321.818 223.439 320.772 223.275C318.901 222.982 317.978 221.264 317.785 219.754C317.591 218.235 318.044 216.359 319.551 215.404C321.188 214.365 323.499 214.794 326.371 216.728C326.829 217.036 326.951 217.658 326.642 218.116C326.334 218.574 325.712 218.695 325.254 218.387C322.524 216.548 321.186 216.735 320.622 217.093C320.003 217.485 319.633 218.434 319.769 219.5Z" fill="#004070"/>
<path fill-rule="evenodd" clip-rule="evenodd" d="M368.078 113.567C368.195 114.628 368.709 115.387 369.416 115.655C370.06 115.899 370.964 115.815 372.043 115.481C372.925 115.209 373.773 114.82 374.506 114.484C374.651 114.418 374.791 114.354 374.926 114.293C375.429 114.066 376.022 114.29 376.249 114.793C376.476 115.297 376.251 115.889 375.748 116.116C375.632 116.168 375.505 116.226 375.37 116.289C374.64 116.624 373.653 117.077 372.634 117.392C371.45 117.758 369.999 118.015 368.707 117.525C367.062 116.901 366.258 115.305 366.09 113.787C365.922 112.267 366.347 110.542 367.49 109.389C368.325 108.548 369.495 108.119 370.945 108.266C372.352 108.41 374.006 109.091 375.943 110.395C376.401 110.703 376.523 111.325 376.214 111.783C375.906 112.241 375.284 112.362 374.826 112.054C373.03 110.844 371.693 110.353 370.742 110.256C369.834 110.163 369.279 110.426 368.91 110.798C368.282 111.431 367.961 112.509 368.078 113.567Z" fill="#004070"/>
<path fill-rule="evenodd" clip-rule="evenodd" d="M336.123 180.498C336.26 181.573 336.82 182.2 337.435 182.297C337.993 182.384 338.715 182.253 339.529 181.974C340.184 181.75 340.801 181.467 341.352 181.215C341.476 181.158 341.597 181.103 341.714 181.05C342.218 180.823 342.81 181.047 343.037 181.55C343.264 182.054 343.04 182.646 342.536 182.873C342.438 182.917 342.331 182.966 342.216 183.019C341.666 183.272 340.936 183.607 340.177 183.867C339.27 184.177 338.171 184.436 337.126 184.273C335.255 183.98 334.332 182.262 334.139 180.751C333.945 179.233 334.397 177.357 335.904 176.401C337.542 175.363 339.852 175.792 342.725 177.725C343.183 178.034 343.304 178.655 342.996 179.113C342.687 179.572 342.066 179.693 341.608 179.384C338.877 177.546 337.54 177.732 336.975 178.09C336.357 178.482 335.986 179.431 336.123 180.498Z" fill="#004070"/>
<path fill-rule="evenodd" clip-rule="evenodd" d="M360.445 240.313C359.74 240.642 359.288 241.606 359.317 243.09C359.328 243.642 358.889 244.098 358.337 244.109C357.784 244.12 357.328 243.681 357.317 243.129C357.284 241.435 357.768 239.355 359.599 238.501C361.39 237.665 363.881 238.301 367.084 240.457C367.542 240.765 367.664 241.387 367.355 241.845C367.047 242.303 366.425 242.424 365.967 242.116C362.834 240.007 361.191 239.965 360.445 240.313Z" fill="#004070"/>
<path fill-rule="evenodd" clip-rule="evenodd" d="M363.618 204.654C363.752 205.726 364.306 206.374 364.938 206.491C365.507 206.597 366.255 206.471 367.104 206.184C367.788 205.953 368.436 205.657 369.01 205.393C369.137 205.335 369.261 205.278 369.38 205.224C369.884 204.997 370.476 205.222 370.703 205.725C370.93 206.229 370.706 206.821 370.202 207.048C370.102 207.093 369.992 207.143 369.875 207.197C369.3 207.461 368.537 207.811 367.743 208.079C366.8 208.398 365.654 208.659 364.572 208.458C362.73 208.115 361.823 206.417 361.633 204.903C361.442 203.381 361.893 201.529 363.344 200.536C365.005 199.4 367.396 199.808 370.392 201.824C370.85 202.133 370.971 202.754 370.663 203.212C370.354 203.67 369.733 203.792 369.275 203.483C366.421 201.562 365.048 201.794 364.473 202.187C363.847 202.615 363.484 203.589 363.618 204.654Z" fill="#004070"/>
<path fill-rule="evenodd" clip-rule="evenodd" d="M336.058 223.109C336.1 222.7 335.983 222.386 335.563 222.137C335.124 221.876 334.578 221.662 333.971 221.453C333.815 221.399 333.65 221.344 333.481 221.288C333.042 221.141 332.58 220.988 332.198 220.828C331.688 220.615 331.448 220.03 331.661 219.52C331.873 219.01 332.459 218.77 332.969 218.983C333.278 219.112 333.627 219.228 334.033 219.363C334.217 219.424 334.413 219.49 334.622 219.562C335.25 219.778 335.96 220.046 336.585 220.417C337.741 221.104 338.162 222.209 338.047 223.315C337.94 224.347 337.382 225.345 336.683 226.115C335.981 226.888 335.034 227.545 334.005 227.794C332.931 228.054 331.749 227.862 330.83 226.893C329.933 225.945 329.301 224.527 328.999 222.654C328.911 222.109 329.281 221.595 329.827 221.507C330.372 221.419 330.885 221.79 330.973 222.335C331.235 223.955 331.747 224.952 332.283 225.518C332.625 225.88 333.032 225.972 333.534 225.85C334.081 225.718 334.697 225.327 335.203 224.77C335.712 224.209 336.008 223.593 336.058 223.109Z" fill="#004070"/>
<path fill-rule="evenodd" clip-rule="evenodd" d="M304.505 139.069C304.533 138.028 304.165 137.042 303.49 136.427C302.853 135.846 301.94 135.588 300.892 135.572C299.851 135.556 298.792 135.783 298.015 136.042C297.491 136.217 296.925 135.934 296.75 135.41C296.576 134.886 296.859 134.319 297.383 134.145C298.313 133.835 299.601 133.552 300.923 133.572C302.238 133.593 303.704 133.916 304.837 134.949C306.023 136.029 306.545 137.62 306.504 139.123C306.464 140.626 305.857 142.187 304.594 143.19C303.62 143.963 302.339 144.314 300.827 144.044C299.349 143.779 297.686 142.929 295.835 141.386C295.41 141.032 295.353 140.402 295.707 139.977C296.06 139.553 296.691 139.496 297.115 139.849C298.813 141.265 300.164 141.893 301.18 142.075C302.163 142.251 302.855 142.017 303.35 141.624C304.058 141.062 304.477 140.111 304.505 139.069Z" fill="#004070"/>
<path fill-rule="evenodd" clip-rule="evenodd" d="M291.018 148.245C290.92 147.701 291.282 147.182 291.825 147.084C294.208 146.657 295.287 145.584 295.737 144.532C296.213 143.421 296.076 142.127 295.634 141.165C295.404 140.663 295.624 140.069 296.126 139.839C296.628 139.609 297.221 139.829 297.452 140.331C298.079 141.698 298.316 143.589 297.576 145.319C296.81 147.109 295.084 148.532 292.178 149.053C291.635 149.15 291.115 148.788 291.018 148.245Z" fill="#004070"/>
<path fill-rule="evenodd" clip-rule="evenodd" d="M301.345 130.102C301.404 129.327 300.785 128.46 299.477 127.759C298.991 127.498 298.808 126.892 299.069 126.405C299.33 125.918 299.936 125.735 300.423 125.996C301.915 126.797 303.492 128.238 303.34 130.253C303.191 132.223 301.417 134.084 297.968 135.82C297.475 136.068 296.873 135.87 296.625 135.376C296.377 134.883 296.575 134.282 297.069 134.033C300.442 132.335 301.283 130.923 301.345 130.102Z" fill="#004070"/>
<path fill-rule="evenodd" clip-rule="evenodd" d="M269.346 204.003C268.582 204.71 268.134 205.663 268.165 206.575C268.195 207.437 268.649 208.27 269.369 209.031C270.086 209.786 270.988 210.386 271.716 210.761C272.207 211.013 272.4 211.616 272.148 212.107C271.895 212.598 271.292 212.791 270.801 212.539C269.929 212.09 268.827 211.366 267.918 210.406C267.013 209.451 266.22 208.177 266.167 206.644C266.111 205.041 266.884 203.556 267.988 202.535C269.091 201.513 270.632 200.857 272.233 201.06C273.466 201.216 274.612 201.887 275.475 203.158C276.318 204.4 276.872 206.184 277.062 208.586C277.106 209.137 276.695 209.618 276.144 209.662C275.593 209.705 275.112 209.294 275.068 208.744C274.894 206.54 274.4 205.135 273.82 204.281C273.259 203.455 272.609 203.123 271.981 203.044C271.085 202.93 270.111 203.295 269.346 204.003Z" fill="#004070"/>
<path fill-rule="evenodd" clip-rule="evenodd" d="M285.747 209.749C285.301 210.075 284.675 209.979 284.349 209.533C282.246 206.662 280.57 206.313 279.532 206.543C278.371 206.801 277.427 207.887 277.045 208.884C276.847 209.399 276.268 209.657 275.752 209.459C275.237 209.261 274.979 208.682 275.177 208.167C275.713 206.771 277.076 205.04 279.098 204.591C281.244 204.114 283.632 205.169 285.962 208.351C286.289 208.797 286.192 209.423 285.747 209.749Z" fill="#004070"/>
<path fill-rule="evenodd" clip-rule="evenodd" d="M265.141 212.529C264.545 213.029 264.357 214.077 264.77 215.502C264.923 216.033 264.617 216.587 264.087 216.741C263.556 216.894 263.002 216.588 262.848 216.058C262.378 214.431 262.307 212.296 263.855 210.997C265.368 209.727 267.939 209.695 271.591 210.949C272.113 211.129 272.391 211.698 272.212 212.22C272.032 212.742 271.464 213.02 270.941 212.841C267.369 211.614 265.771 212 265.141 212.529Z" fill="#004070"/>
<path fill-rule="evenodd" clip-rule="evenodd" d="M433.254 136.526C434.207 136.948 435.258 136.982 436.083 136.591C436.863 136.222 437.448 135.475 437.861 134.512C438.271 133.555 438.463 132.489 438.518 131.672C438.556 131.121 439.033 130.704 439.584 130.742C440.135 130.779 440.551 131.256 440.514 131.807C440.447 132.786 440.22 134.084 439.699 135.3C439.181 136.509 438.325 137.742 436.94 138.398C435.49 139.085 433.82 138.963 432.445 138.355C431.069 137.747 429.856 136.593 429.408 135.043C429.062 133.849 429.224 132.53 430.049 131.235C430.855 129.968 432.272 128.752 434.403 127.626C434.891 127.367 435.496 127.554 435.755 128.042C436.013 128.53 435.826 129.135 435.338 129.394C433.384 130.427 432.29 131.438 431.736 132.309C431.2 133.151 431.153 133.88 431.329 134.487C431.58 135.356 432.301 136.105 433.254 136.526Z" fill="#004070"/>
<path fill-rule="evenodd" clip-rule="evenodd" d="M429.887 120.564C430.427 120.68 430.77 121.212 430.654 121.752C430.145 124.118 430.728 125.524 431.529 126.34C432.377 127.201 433.626 127.566 434.683 127.523C435.235 127.5 435.701 127.929 435.724 128.481C435.746 129.033 435.317 129.499 434.765 129.521C433.262 129.583 431.423 129.084 430.103 127.742C428.738 126.354 428.077 124.217 428.699 121.331C428.815 120.791 429.347 120.447 429.887 120.564Z" fill="#004070"/>
<path fill-rule="evenodd" clip-rule="evenodd" d="M442.749 137.007C443.444 137.356 444.48 137.113 445.626 136.169C446.052 135.818 446.682 135.879 447.034 136.305C447.385 136.732 447.324 137.362 446.897 137.713C445.59 138.79 443.658 139.701 441.852 138.795C440.086 137.91 439.038 135.561 438.742 131.712C438.699 131.161 439.111 130.68 439.662 130.638C440.213 130.596 440.693 131.008 440.736 131.558C441.026 135.324 442.013 136.639 442.749 137.007Z" fill="#004070"/>
<path fill-rule="evenodd" clip-rule="evenodd" d="M327.592 102.344C328.319 101.598 328.717 100.624 328.638 99.7143C328.563 98.855 328.068 98.0465 327.308 97.3242C326.554 96.6066 325.622 96.055 324.875 95.7184C324.372 95.4913 324.147 94.8991 324.374 94.3957C324.601 93.8922 325.194 93.6681 325.697 93.8951C326.591 94.2982 327.729 94.964 328.687 95.8753C329.64 96.7819 330.498 98.0141 330.631 99.5413C330.769 101.14 330.074 102.663 329.025 103.74C327.975 104.817 326.471 105.552 324.862 105.433C323.623 105.341 322.443 104.73 321.516 103.506C320.609 102.309 319.963 100.556 319.649 98.1666C319.577 97.619 319.962 97.1168 320.51 97.0448C321.058 96.9729 321.56 97.3585 321.632 97.906C321.92 100.098 322.487 101.475 323.11 102.298C323.713 103.094 324.38 103.392 325.01 103.438C325.912 103.505 326.865 103.091 327.592 102.344Z" fill="#004070"/>
<path fill-rule="evenodd" clip-rule="evenodd" d="M312.562 100.569C312.859 100.103 313.477 99.9665 313.943 100.264C314.98 100.925 315.784 101.175 316.391 101.213C316.978 101.249 317.441 101.092 317.833 100.819C318.681 100.229 319.265 99.0528 319.651 97.8686C319.822 97.3435 320.386 97.0564 320.911 97.2275C321.436 97.3985 321.723 97.9628 321.552 98.488C321.144 99.74 320.395 101.473 318.975 102.46C318.234 102.976 317.329 103.275 316.267 103.209C315.224 103.144 314.095 102.733 312.867 101.95C312.402 101.653 312.265 101.034 312.562 100.569Z" fill="#004070"/>
<path fill-rule="evenodd" clip-rule="evenodd" d="M331.35 93.6114C331.919 93.0811 332.052 92.0246 331.567 90.6223C331.386 90.1004 331.663 89.5308 332.185 89.3502C332.706 89.1695 333.276 89.4462 333.457 89.9681C334.011 91.5688 334.192 93.6967 332.714 95.0745C331.268 96.4215 328.702 96.5857 324.991 95.5228C324.46 95.3707 324.152 94.817 324.304 94.2861C324.457 93.7551 325.01 93.448 325.541 93.6C329.172 94.6398 330.748 94.1724 331.35 93.6114Z" fill="#004070"/>
<path fill-rule="evenodd" clip-rule="evenodd" d="M387.871 118.197C387.96 117.655 387.834 117.211 387.445 116.853C386.989 116.433 386.29 116.096 385.43 115.779C385.075 115.648 384.717 115.529 384.355 115.408C384.287 115.385 384.219 115.363 384.15 115.34C383.729 115.199 383.297 115.051 382.91 114.89C382.4 114.677 382.16 114.091 382.373 113.582C382.585 113.072 383.171 112.832 383.681 113.044C383.992 113.174 384.36 113.301 384.784 113.443C384.848 113.464 384.914 113.486 384.98 113.508C385.342 113.629 385.734 113.759 386.122 113.902C387.022 114.234 388.038 114.68 388.799 115.381C389.759 116.265 390.024 117.422 389.845 118.519C389.672 119.579 389.093 120.591 388.354 121.393C387.613 122.198 386.642 122.868 385.588 123.183C384.519 123.503 383.313 123.468 382.248 122.759C380.768 121.775 379.716 119.891 379.274 117.151C379.186 116.606 379.556 116.093 380.102 116.005C380.647 115.917 381.16 116.287 381.248 116.833C381.641 119.267 382.512 120.533 383.356 121.094C383.818 121.401 384.378 121.458 385.014 121.267C385.665 121.072 386.339 120.628 386.883 120.038C387.43 119.444 387.777 118.777 387.871 118.197Z" fill="#004070"/>
<path fill-rule="evenodd" clip-rule="evenodd" d="M352.412 184.107C352.454 183.698 352.337 183.385 351.917 183.135C351.478 182.874 350.931 182.66 350.324 182.451C350.168 182.397 350.003 182.342 349.835 182.286C349.395 182.14 348.933 181.986 348.551 181.826C348.042 181.613 347.801 181.028 348.014 180.518C348.227 180.008 348.813 179.768 349.322 179.981C349.632 180.11 349.981 180.226 350.386 180.361C350.57 180.422 350.766 180.488 350.976 180.56C351.603 180.776 352.313 181.044 352.938 181.415C354.094 182.103 354.516 183.207 354.401 184.313C354.294 185.345 353.736 186.343 353.037 187.113C352.335 187.886 351.388 188.543 350.359 188.792C349.285 189.052 348.102 188.86 347.184 187.891C346.286 186.943 345.655 185.525 345.352 183.652C345.264 183.107 345.635 182.593 346.18 182.505C346.726 182.417 347.239 182.788 347.327 183.333C347.588 184.953 348.1 185.95 348.636 186.516C348.979 186.878 349.386 186.97 349.888 186.848C350.435 186.716 351.05 186.325 351.556 185.768C352.066 185.207 352.361 184.591 352.412 184.107Z" fill="#004070"/>
<path d="M332.511 220.133C331.889 222.081 329.807 223.156 327.859 222.535C325.911 221.913 324.836 219.83 325.458 217.883C326.079 215.935 328.162 214.86 330.11 215.481C332.057 216.103 333.132 218.186 332.511 220.133Z" fill="#1EA9A1"/>
<path fill-rule="evenodd" clip-rule="evenodd" d="M329.806 216.434C328.384 215.981 326.864 216.765 326.41 218.187C325.957 219.609 326.741 221.129 328.163 221.582C329.585 222.036 331.105 221.251 331.558 219.83C332.012 218.408 331.227 216.888 329.806 216.434ZM324.505 217.579C325.294 215.105 327.94 213.74 330.414 214.529C332.887 215.318 334.253 217.964 333.464 220.438C332.674 222.911 330.029 224.277 327.555 223.488C325.081 222.698 323.716 220.053 324.505 217.579Z" fill="#004070"/>
<path fill-rule="evenodd" clip-rule="evenodd" d="M380.386 208.387C380.434 207.958 380.313 207.629 379.897 207.368C379.45 207.087 378.881 206.858 378.24 206.636C378.064 206.575 377.877 206.512 377.685 206.448C377.232 206.297 376.758 206.14 376.37 205.977C375.86 205.764 375.62 205.179 375.832 204.669C376.045 204.159 376.631 203.919 377.141 204.132C377.459 204.265 377.814 204.383 378.226 204.52C378.434 204.589 378.657 204.663 378.896 204.746C379.56 204.977 380.311 205.266 380.961 205.675C382.097 206.389 382.498 207.504 382.374 208.61C382.258 209.647 381.696 210.649 380.99 211.425C380.28 212.205 379.328 212.866 378.294 213.125C377.22 213.395 376.03 213.229 375.086 212.291C374.116 211.328 373.433 209.845 373.113 207.861C373.025 207.315 373.395 206.802 373.941 206.714C374.486 206.626 374.999 206.997 375.087 207.542C375.365 209.265 375.92 210.302 376.495 210.872C376.852 211.227 377.281 211.318 377.806 211.186C378.371 211.044 378.997 210.644 379.51 210.08C380.027 209.512 380.33 208.886 380.386 208.387Z" fill="#004070"/>
<path d="M383.211 114.232C382.485 116.508 380.051 117.764 377.776 117.038C375.5 116.312 374.244 113.878 374.97 111.603C375.696 109.327 378.13 108.071 380.405 108.797C382.681 109.523 383.937 111.957 383.211 114.232Z" fill="#37B183"/>
<path fill-rule="evenodd" clip-rule="evenodd" d="M380.101 109.75C378.352 109.191 376.481 110.157 375.923 111.906C375.365 113.656 376.33 115.527 378.08 116.085C379.829 116.643 381.7 115.677 382.258 113.928C382.816 112.179 381.851 110.308 380.101 109.75ZM374.018 111.299C374.912 108.497 377.907 106.95 380.709 107.844C383.511 108.738 385.057 111.734 384.163 114.536C383.269 117.338 380.273 118.884 377.472 117.99C374.67 117.096 373.124 114.1 374.018 111.299Z" fill="#004070"/>
<path d="M348.865 181.13C348.243 183.078 346.16 184.153 344.213 183.531C342.265 182.91 341.19 180.827 341.811 178.879C342.433 176.932 344.515 175.856 346.463 176.478C348.411 177.099 349.486 179.182 348.865 181.13Z" fill="#1EA9A1"/>
<path fill-rule="evenodd" clip-rule="evenodd" d="M346.159 177.431C344.738 176.977 343.218 177.762 342.764 179.184C342.31 180.605 343.095 182.125 344.517 182.579C345.938 183.032 347.458 182.248 347.912 180.826C348.366 179.405 347.581 177.884 346.159 177.431ZM340.859 178.576C341.648 176.102 344.293 174.736 346.767 175.525C349.241 176.315 350.607 178.96 349.817 181.434C349.028 183.908 346.383 185.274 343.909 184.484C341.435 183.695 340.069 181.049 340.859 178.576Z" fill="#004070"/>
<path d="M376.681 205.285C376.046 207.276 373.917 208.375 371.926 207.74C369.935 207.105 368.836 204.976 369.471 202.985C370.106 200.993 372.235 199.894 374.226 200.53C376.218 201.165 377.317 203.294 376.681 205.285Z" fill="#1EA9A1"/>
<path fill-rule="evenodd" clip-rule="evenodd" d="M373.922 201.483C372.458 201.015 370.891 201.824 370.424 203.289C369.956 204.754 370.765 206.32 372.23 206.788C373.695 207.255 375.261 206.447 375.729 204.982C376.196 203.517 375.387 201.95 373.922 201.483ZM368.518 202.681C369.321 200.164 372.013 198.774 374.53 199.577C377.048 200.381 378.437 203.072 377.634 205.59C376.831 208.107 374.139 209.496 371.622 208.693C369.104 207.89 367.715 205.198 368.518 202.681Z" fill="#004070"/>
<path d="M515.157 252.11C546.739 252.11 556.152 264.007 561 274H0C23.5482 256.512 91.9221 217.86 149.19 242.121C243.535 282.089 310.697 224.635 370.953 222.137C431.208 219.639 475.679 252.11 515.157 252.11Z" fill="#40CE97"/>
<path d="M200.126 224.276L206.2 214.704L212.413 214.047C213.048 213.98 213.688 213.989 214.321 214.074L225.221 215.541L232.339 223.207L229.378 234.307L216.639 223.662C215.287 222.532 213.604 221.872 211.844 221.781L210.722 221.723C209.205 221.645 207.764 222.395 206.957 223.683L205.021 226.772C204.373 227.805 203.162 228.341 201.961 228.125L201.804 228.097C201.26 227.999 200.764 227.725 200.391 227.317C199.627 226.479 199.518 225.233 200.126 224.276Z" fill="white"/>
<path fill-rule="evenodd" clip-rule="evenodd" d="M180.086 213.704L206.148 213.704L212.308 213.053C213.022 212.977 213.742 212.988 214.454 213.083L225.71 214.598L233.448 222.931L230.492 234.01C231.261 234.917 231.56 236.148 231.271 237.324C230.916 238.766 229.742 239.863 228.279 240.118L227.269 240.295C227.225 242.25 225.639 243.881 223.673 243.965C223.45 246.285 221.472 248.038 219.18 248.026L219.01 248.639C218.687 249.805 217.862 250.768 216.759 251.267C215.649 251.768 214.374 251.748 213.28 251.211L211.156 250.169C210.66 249.925 210.456 249.326 210.699 248.83C210.942 248.335 211.541 248.13 212.037 248.373L214.162 249.416C214.719 249.689 215.369 249.7 215.935 249.444C216.497 249.19 216.918 248.699 217.083 248.104L217.316 247.263L213.628 243.856C213.223 243.481 213.198 242.848 213.572 242.443C213.947 242.037 214.58 242.012 214.985 242.387L218.905 246.007C220.4 246.185 221.742 244.988 221.692 243.444L221.688 243.335L215.225 237.99C214.799 237.638 214.739 237.008 215.091 236.583C215.443 236.157 216.074 236.097 216.499 236.449L223.123 241.926C224.332 242.187 225.4 241.166 225.255 239.988L216.382 231.801C215.976 231.427 215.95 230.794 216.325 230.388C216.699 229.982 217.332 229.957 217.738 230.331L226.485 238.401L227.935 238.148C228.617 238.029 229.164 237.518 229.329 236.846C229.483 236.218 229.277 235.555 228.793 235.126L228.725 235.065L215.998 224.43C214.812 223.439 213.336 222.859 211.792 222.78L210.671 222.722C209.515 222.662 208.418 223.233 207.804 224.214L205.868 227.303C205.004 228.682 203.387 229.398 201.784 229.11L201.627 229.081C200.867 228.945 200.173 228.561 199.653 227.991C198.584 226.82 198.432 225.078 199.282 223.74L204.381 215.704L182.75 215.704L186.654 229.138L194.521 234.182C194.986 234.48 195.121 235.099 194.823 235.564C194.525 236.029 193.906 236.164 193.441 235.866L184.942 230.417L180.086 213.704ZM206.786 215.648L200.97 224.811C200.604 225.388 200.67 226.138 201.13 226.643C201.354 226.889 201.653 227.054 201.981 227.113L202.138 227.141C202.937 227.285 203.743 226.928 204.174 226.241L206.109 223.152C207.109 221.556 208.894 220.628 210.774 220.725L211.895 220.782C213.872 220.884 215.762 221.626 217.281 222.895L228.816 232.534L231.23 223.483L224.732 216.484L214.187 215.065C213.634 214.991 213.073 214.983 212.518 215.042L206.786 215.648Z" fill="#004070"/>
<path fill-rule="evenodd" clip-rule="evenodd" d="M197.985 233.99C198.368 234.388 198.357 235.021 197.96 235.404L194.862 238.393C194.465 238.776 193.832 238.765 193.449 238.368C193.065 237.97 193.076 237.337 193.474 236.954L196.571 233.965C196.968 233.581 197.601 233.593 197.985 233.99Z" fill="#004070"/>
<path fill-rule="evenodd" clip-rule="evenodd" d="M210.303 244.668C210.686 245.066 210.675 245.699 210.277 246.082L206.664 249.569C206.267 249.953 205.634 249.941 205.25 249.544C204.867 249.146 204.878 248.513 205.275 248.13L208.889 244.643C209.286 244.26 209.919 244.271 210.303 244.668Z" fill="#004070"/>
<path fill-rule="evenodd" clip-rule="evenodd" d="M207.49 239.944C207.873 240.342 207.862 240.975 207.465 241.358L201.786 246.837C201.389 247.221 200.756 247.21 200.372 246.812C199.989 246.415 200 245.782 200.398 245.398L206.076 239.919C206.473 239.535 207.106 239.547 207.49 239.944Z" fill="#004070"/>
<path fill-rule="evenodd" clip-rule="evenodd" d="M203.644 236.215C204.028 236.613 204.016 237.246 203.619 237.629L197.941 243.108C197.543 243.492 196.91 243.481 196.527 243.083C196.143 242.686 196.155 242.053 196.552 241.669L202.23 236.19C202.628 235.806 203.261 235.818 203.644 236.215Z" fill="#004070"/>
<path d="M178.132 231.42L175.395 214.596L184.703 214.596L185.798 230.325L178.132 231.42Z" fill="#AAC9E7"/>
<path fill-rule="evenodd" clip-rule="evenodd" d="M174.219 213.596L185.636 213.596L186.86 231.184L177.303 232.549L174.219 213.596ZM176.571 215.596L178.962 230.292L184.736 229.467L183.77 215.596L176.571 215.596Z" fill="#004070"/>
<path d="M400.53 231.9C395.529 228.218 398.881 222.802 399.478 220.266C403.388 215.336 410.337 213.511 411.496 214.389C414.934 215.88 421.847 219.959 421.988 224.347C422.165 229.832 416.178 233.456 413.468 233.543C410.758 233.63 414.212 235.578 412.223 237.015C410.235 238.452 406.782 236.504 400.53 231.9Z" fill="white"/>
<path fill-rule="evenodd" clip-rule="evenodd" d="M411.978 213.508C413.758 214.289 416.38 215.707 418.606 217.503C419.738 218.416 420.798 219.449 421.59 220.573C422.381 221.694 422.944 222.958 422.988 224.315C423.089 227.453 421.424 229.995 419.473 231.719C417.575 233.396 415.221 234.463 413.561 234.54C413.688 234.854 413.873 235.347 413.876 235.874C413.879 236.608 413.547 237.293 412.809 237.826C411.34 238.887 409.504 238.539 407.553 237.629C405.558 236.699 403.058 235.004 399.937 232.706C398.541 231.677 397.682 230.491 397.23 229.221C396.781 227.963 396.756 226.692 396.914 225.52C397.071 224.352 397.417 223.247 397.742 222.308C397.842 222.021 397.937 221.757 398.024 221.514C398.239 220.916 398.41 220.44 398.504 220.037L398.555 219.82L398.694 219.645C400.784 217.01 403.658 215.232 406.142 214.223C407.387 213.717 408.566 213.392 409.538 213.254C410.022 213.185 410.482 213.158 410.886 213.19C411.219 213.217 411.628 213.291 411.978 213.508ZM413.376 234.046C413.376 234.046 413.376 234.049 413.377 234.055C413.376 234.049 413.375 234.046 413.376 234.046ZM400.393 220.725C400.263 221.2 400.065 221.75 399.866 222.304C399.787 222.525 399.707 222.747 399.632 222.964C399.318 223.869 399.026 224.823 398.896 225.787C398.766 226.746 398.803 227.677 399.114 228.55C399.421 229.411 400.019 230.282 401.123 231.095C404.253 233.4 406.606 234.981 408.398 235.816C410.233 236.672 411.118 236.58 411.638 236.205C411.88 236.03 411.877 235.933 411.876 235.891C411.876 235.888 411.876 235.886 411.876 235.883C411.875 235.729 411.807 235.538 411.649 235.151L411.646 235.142C411.582 234.986 411.491 234.762 411.436 234.539C411.382 234.316 411.322 233.94 411.484 233.544C411.662 233.105 412.019 232.855 412.362 232.724C412.682 232.602 413.052 232.556 413.436 232.544C414.483 232.51 416.443 231.727 418.148 230.22C419.825 228.739 421.064 226.725 420.989 224.379C420.962 223.541 420.608 222.65 419.956 221.726C419.305 220.803 418.395 219.902 417.351 219.06C415.261 217.375 412.756 216.025 411.098 215.306L410.988 215.259L410.931 215.216C410.908 215.209 410.846 215.193 410.728 215.184C410.515 215.167 410.211 215.178 409.82 215.234C409.041 215.345 408.021 215.619 406.895 216.076C404.691 216.971 402.204 218.516 400.393 220.725Z" fill="#004070"/>
</svg>
