<svg width="444" height="314" viewBox="0 0 444 314" fill="none" xmlns="http://www.w3.org/2000/svg">
<g clip-path="url(#clip0_5294_36940)">
<path fill-rule="evenodd" clip-rule="evenodd" d="M92.3228 50.8811C92.3228 50.8536 92.3228 50.8261 92.323 50.7986V50.9637C92.3228 50.9362 92.3228 50.9087 92.3228 50.8811ZM105.313 37.8905C100.166 37.8905 95.7187 40.8837 93.6157 45.2244H128.247C128.247 45.2244 128.247 45.2244 128.247 45.2244L196.019 45.2245C193.917 40.8838 189.469 37.8905 184.322 37.8905C183.454 37.8905 182.606 37.9756 181.786 38.1379C179.42 34.9368 175.619 32.8611 171.332 32.8611C168.015 32.8611 164.988 34.1045 162.692 36.1507C160.57 28.6885 153.703 23.2236 145.56 23.2236C145.311 23.2236 145.064 23.2287 144.817 23.2388C144.571 23.2287 144.323 23.2236 144.074 23.2236C135.932 23.2236 129.066 28.6878 126.943 36.1493C124.647 34.1039 121.621 32.8611 118.304 32.8611C114.018 32.8611 110.217 34.9369 107.851 38.1382C107.03 37.9757 106.182 37.8905 105.313 37.8905Z" fill="#B1E7F8"/>
<path fill-rule="evenodd" clip-rule="evenodd" d="M429.769 38.6634H391.604C391.422 37.9069 391.325 37.117 391.325 36.3046C391.325 30.7656 395.815 26.2754 401.354 26.2754C405.94 26.2754 409.806 29.3525 411.002 33.5545C412.295 32.4024 413.999 31.7024 415.867 31.7024C418.281 31.7024 420.421 32.8715 421.754 34.6743C422.216 34.5829 422.693 34.535 423.182 34.535C426.08 34.535 428.584 36.2198 429.769 38.6634Z" fill="#B1E7F8"/>
<path fill-rule="evenodd" clip-rule="evenodd" d="M0 108.591H51.1556C51.4 107.577 51.5295 106.519 51.5295 105.43C51.5295 98.0051 45.5108 91.9863 38.0862 91.9863C31.9403 91.9863 26.7576 96.1106 25.1548 101.743C23.4221 100.199 21.1379 99.2608 18.6347 99.2608C15.3991 99.2608 12.5296 100.828 10.7436 103.244C10.1243 103.122 9.48405 103.058 8.82875 103.058C4.94451 103.058 1.58775 105.316 0 108.591Z" fill="#B1E7F8"/>
<path fill-rule="evenodd" clip-rule="evenodd" d="M406.335 240.562L408.748 240.562L408.748 238.939L406.335 238.939L406.335 240.562ZM396.685 240.562L401.51 240.562L401.51 238.939L396.685 238.939L396.685 240.562ZM387.034 240.562L391.86 240.562L391.86 238.939L387.034 238.939L387.034 240.562ZM377.384 240.562L382.209 240.562L382.209 238.939L377.384 238.939L377.384 240.562ZM367.734 240.562L372.559 240.562L372.559 238.939L367.734 238.939L367.734 240.562ZM358.084 240.562L362.909 240.562L362.909 238.939L358.084 238.939L358.084 240.562ZM348.433 240.562L353.259 240.562L353.259 238.939L348.433 238.939L348.433 240.562ZM338.783 240.562L343.608 240.562L343.608 238.939L338.783 238.939L338.783 240.562ZM329.133 240.562L333.958 240.562L333.958 238.939L329.133 238.939L329.133 240.562ZM319.483 240.562L324.308 240.562L324.308 238.939L319.483 238.939L319.483 240.562ZM309.832 240.562L314.657 240.562L314.657 238.939L309.832 238.939L309.832 240.562ZM300.182 240.562L305.007 240.562L305.007 238.939L300.182 238.939L300.182 240.562ZM290.532 240.562L295.357 240.562L295.357 238.939L290.532 238.939L290.532 240.562ZM280.882 240.562L285.707 240.562L285.707 238.939L280.882 238.939L280.882 240.562ZM273.644 240.562L276.056 240.562L276.056 238.939L273.644 238.939L273.644 240.562Z" fill="#00B6ED"/>
<path fill-rule="evenodd" clip-rule="evenodd" d="M407.162 229.145L409.615 229.145L409.615 227.522L407.162 227.522L407.162 229.145ZM397.349 229.145L402.255 229.145L402.255 227.522L397.349 227.522L397.349 229.145ZM387.536 229.145L392.442 229.145L392.442 227.522L387.536 227.522L387.536 229.145ZM377.723 229.145L382.629 229.145L382.629 227.522L377.723 227.522L377.723 229.145ZM367.91 229.145L372.816 229.145L372.816 227.522L367.91 227.522L367.91 229.145ZM358.097 229.145L363.003 229.145L363.003 227.522L358.097 227.522L358.097 229.145ZM348.283 229.145L353.19 229.145L353.19 227.522L348.283 227.522L348.283 229.145ZM338.47 229.145L343.377 229.145L343.377 227.522L338.47 227.522L338.47 229.145ZM328.657 229.145L333.564 229.145L333.564 227.522L328.657 227.522L328.657 229.145ZM318.844 229.145L323.751 229.145L323.751 227.522L318.844 227.522L318.844 229.145ZM309.031 229.145L313.938 229.145L313.938 227.522L309.031 227.522L309.031 229.145ZM299.218 229.145L304.125 229.145L304.125 227.522L299.218 227.522L299.218 229.145ZM289.405 229.145L294.311 229.145L294.311 227.522L289.405 227.522L289.405 229.145ZM279.592 229.145L284.498 229.145L284.498 227.522L279.592 227.522L279.592 229.145ZM269.779 229.145L274.685 229.145L274.685 227.522L269.779 227.522L269.779 229.145ZM262.419 229.145L264.872 229.145L264.872 227.522L262.419 227.522L262.419 229.145Z" fill="#00B6ED"/>
<path fill-rule="evenodd" clip-rule="evenodd" d="M414.101 202.878L416.555 202.878L416.555 201.255L414.101 201.255L414.101 202.878ZM404.288 202.878L409.195 202.878L409.195 201.255L404.288 201.255L404.288 202.878ZM394.475 202.878L399.382 202.878L399.382 201.255L394.475 201.255L394.475 202.878ZM384.662 202.878L389.569 202.878L389.569 201.255L384.662 201.255L384.662 202.878ZM374.849 202.878L379.756 202.878L379.756 201.255L374.849 201.255L374.849 202.878ZM365.036 202.878L369.943 202.878L369.943 201.255L365.036 201.255L365.036 202.878ZM355.223 202.878L360.129 202.878L360.129 201.255L355.223 201.255L355.223 202.878ZM345.41 202.878L350.316 202.878L350.316 201.255L345.41 201.255L345.41 202.878ZM335.597 202.878L340.503 202.878L340.503 201.255L335.597 201.255L335.597 202.878ZM325.784 202.878L330.69 202.878L330.69 201.255L325.784 201.255L325.784 202.878ZM315.971 202.878L320.877 202.878L320.877 201.255L315.971 201.255L315.971 202.878ZM306.157 202.878L311.064 202.878L311.064 201.255L306.157 201.255L306.157 202.878ZM296.344 202.878L301.251 202.878L301.251 201.255L296.344 201.255L296.344 202.878ZM286.531 202.878L291.438 202.878L291.438 201.255L286.531 201.255L286.531 202.878ZM276.718 202.878L281.625 202.878L281.625 201.255L276.718 201.255L276.718 202.878ZM269.358 202.878L271.812 202.878L271.812 201.255L269.358 201.255L269.358 202.878Z" fill="#00B6ED"/>
<path fill-rule="evenodd" clip-rule="evenodd" d="M411.499 216.58L413.952 216.58L413.952 214.957L411.499 214.957L411.499 216.58ZM401.686 216.58L406.592 216.58L406.592 214.957L401.686 214.957L401.686 216.58ZM391.873 216.58L396.779 216.58L396.779 214.957L391.873 214.957L391.873 216.58ZM382.06 216.58L386.966 216.58L386.966 214.957L382.06 214.957L382.06 216.58ZM372.247 216.58L377.153 216.58L377.153 214.957L372.247 214.957L372.247 216.58ZM362.433 216.58L367.34 216.58L367.34 214.957L362.433 214.957L362.433 216.58ZM352.62 216.58L357.527 216.58L357.527 214.957L352.62 214.957L352.62 216.58ZM342.807 216.58L347.714 216.58L347.714 214.957L342.807 214.957L342.807 216.58ZM332.994 216.58L337.901 216.58L337.901 214.957L332.994 214.957L332.994 216.58ZM323.181 216.58L328.088 216.58L328.088 214.957L323.181 214.957L323.181 216.58ZM313.368 216.58L318.275 216.58L318.275 214.957L313.368 214.957L313.368 216.58ZM303.555 216.58L308.461 216.58L308.461 214.957L303.555 214.957L303.555 216.58ZM293.742 216.58L298.648 216.58L298.648 214.957L293.742 214.957L293.742 216.58ZM283.929 216.58L288.835 216.58L288.835 214.957L283.929 214.957L283.929 216.58ZM274.116 216.58L279.022 216.58L279.022 214.957L274.116 214.957L274.116 216.58ZM266.756 216.58L269.209 216.58L269.209 214.957L266.756 214.957L266.756 216.58Z" fill="#00B6ED"/>
<path fill-rule="evenodd" clip-rule="evenodd" d="M425.392 188.796L427.832 188.796L427.832 187.173L425.392 187.173L425.392 188.796ZM415.633 188.796L420.513 188.796L420.513 187.173L415.633 187.173L415.633 188.796ZM405.874 188.796L410.754 188.796L410.754 187.173L405.874 187.173L405.874 188.796ZM396.115 188.796L400.994 188.796L400.994 187.173L396.115 187.173L396.115 188.796ZM386.356 188.796L391.235 188.796L391.235 187.173L386.356 187.173L386.356 188.796ZM376.596 188.796L381.476 188.796L381.476 187.173L376.596 187.173L376.596 188.796ZM366.837 188.796L371.717 188.796L371.717 187.173L366.837 187.173L366.837 188.796ZM357.078 188.796L361.958 188.796L361.958 187.173L357.078 187.173L357.078 188.796ZM347.319 188.796L352.199 188.796L352.199 187.173L347.319 187.173L347.319 188.796ZM337.56 188.796L342.439 188.796L342.439 187.173L337.56 187.173L337.56 188.796ZM327.801 188.796L332.68 188.796L332.68 187.173L327.801 187.173L327.801 188.796ZM318.042 188.796L322.921 188.796L322.921 187.173L318.042 187.173L318.042 188.796ZM308.282 188.796L313.162 188.796L313.162 187.173L308.282 187.173L308.282 188.796ZM298.523 188.796L303.403 188.796L303.403 187.173L298.523 187.173L298.523 188.796ZM288.764 188.796L293.644 188.796L293.644 187.173L288.764 187.173L288.764 188.796ZM279.005 188.796L283.885 188.796L283.885 187.173L279.005 187.173L279.005 188.796ZM271.686 188.796L274.125 188.796L274.125 187.173L271.686 187.173L271.686 188.796Z" fill="#00B6ED"/>
<path fill-rule="evenodd" clip-rule="evenodd" d="M434.067 177.519L436.507 177.519L436.507 175.896L434.067 175.896L434.067 177.519ZM424.308 177.519L429.187 177.519L429.187 175.896L424.308 175.896L424.308 177.519ZM414.549 177.519L419.428 177.519L419.428 175.896L414.549 175.896L414.549 177.519ZM404.79 177.519L409.669 177.519L409.669 175.896L404.79 175.896L404.79 177.519ZM395.03 177.519L399.91 177.519L399.91 175.896L395.03 175.896L395.03 177.519ZM385.271 177.519L390.151 177.519L390.151 175.896L385.271 175.896L385.271 177.519ZM375.512 177.519L380.392 177.519L380.392 175.896L375.512 175.896L375.512 177.519ZM365.753 177.519L370.633 177.519L370.633 175.896L365.753 175.896L365.753 177.519ZM355.994 177.519L360.873 177.519L360.873 175.896L355.994 175.896L355.994 177.519ZM346.235 177.519L351.114 177.519L351.114 175.896L346.235 175.896L346.235 177.519ZM336.476 177.519L341.355 177.519L341.355 175.896L336.476 175.896L336.476 177.519ZM326.716 177.519L331.596 177.519L331.596 175.896L326.716 175.896L326.716 177.519ZM316.957 177.519L321.837 177.519L321.837 175.896L316.957 175.896L316.957 177.519ZM307.198 177.519L312.078 177.519L312.078 175.896L307.198 175.896L307.198 177.519ZM297.439 177.519L302.319 177.519L302.319 175.896L297.439 175.896L297.439 177.519ZM287.68 177.519L292.559 177.519L292.559 175.896L287.68 175.896L287.68 177.519ZM280.36 177.519L282.8 177.519L282.8 175.896L280.36 175.896L280.36 177.519Z" fill="#00B6ED"/>
<path fill-rule="evenodd" clip-rule="evenodd" d="M421.923 151.495L424.362 151.495L424.362 149.873L421.923 149.873L421.923 151.495ZM412.163 151.495L417.043 151.495L417.043 149.873L412.163 149.873L412.163 151.495ZM402.404 151.495L407.284 151.495L407.284 149.873L402.404 149.873L402.404 151.495ZM392.645 151.495L397.525 151.495L397.525 149.873L392.645 149.873L392.645 151.495ZM382.886 151.495L387.765 151.495L387.765 149.873L382.886 149.873L382.886 151.495ZM373.127 151.495L378.006 151.495L378.006 149.873L373.127 149.873L373.127 151.495ZM363.368 151.495L368.247 151.495L368.247 149.873L363.368 149.873L363.368 151.495ZM353.608 151.495L358.488 151.495L358.488 149.873L353.608 149.873L353.608 151.495ZM343.849 151.495L348.729 151.495L348.729 149.873L343.849 149.873L343.849 151.495ZM334.09 151.495L338.97 151.495L338.97 149.873L334.09 149.873L334.09 151.495ZM324.331 151.495L329.211 151.495L329.211 149.873L324.331 149.873L324.331 151.495ZM314.572 151.495L319.451 151.495L319.451 149.873L314.572 149.873L314.572 151.495ZM304.813 151.495L309.692 151.495L309.692 149.873L304.813 149.873L304.813 151.495ZM295.054 151.495L299.933 151.495L299.933 149.873L295.054 149.873L295.054 151.495ZM285.294 151.495L290.174 151.495L290.174 149.873L285.294 149.873L285.294 151.495ZM275.535 151.495L280.415 151.495L280.415 149.873L275.535 149.873L275.535 151.495ZM268.216 151.495L270.656 151.495L270.656 149.873L268.216 149.873L268.216 151.495Z" fill="#00B6ED"/>
<path fill-rule="evenodd" clip-rule="evenodd" d="M441.875 163.64L444.314 163.64L444.314 162.017L441.875 162.017L441.875 163.64ZM432.116 163.64L436.995 163.64L436.995 162.017L432.116 162.017L432.116 163.64ZM422.356 163.64L427.236 163.64L427.236 162.017L422.356 162.017L422.356 163.64ZM412.597 163.64L417.477 163.64L417.477 162.017L412.597 162.017L412.597 163.64ZM402.838 163.64L407.718 163.64L407.718 162.017L402.838 162.017L402.838 163.64ZM393.079 163.64L397.958 163.64L397.958 162.017L393.079 162.017L393.079 163.64ZM383.32 163.64L388.199 163.64L388.199 162.017L383.32 162.017L383.32 163.64ZM373.561 163.64L378.44 163.64L378.44 162.017L373.561 162.017L373.561 163.64ZM363.801 163.64L368.681 163.64L368.681 162.017L363.801 162.017L363.801 163.64ZM354.042 163.64L358.922 163.64L358.922 162.017L354.042 162.017L354.042 163.64ZM344.283 163.64L349.163 163.64L349.163 162.017L344.283 162.017L344.283 163.64ZM334.524 163.64L339.404 163.64L339.404 162.017L334.524 162.017L334.524 163.64ZM324.765 163.64L329.644 163.64L329.644 162.017L324.765 162.017L324.765 163.64ZM315.006 163.64L319.885 163.64L319.885 162.017L315.006 162.017L315.006 163.64ZM305.247 163.64L310.126 163.64L310.126 162.017L305.247 162.017L305.247 163.64ZM295.487 163.64L300.367 163.64L300.367 162.017L295.487 162.017L295.487 163.64ZM288.168 163.64L290.608 163.64L290.608 162.017L288.168 162.017L288.168 163.64Z" fill="#00B6ED"/>
<path d="M170.51 238.211C160.636 244.423 149.562 241.597 145.508 238.619C145.199 238.392 145.13 237.968 145.331 237.641C147.618 233.925 149.841 233.916 150.7 234.41C153.582 227.224 158.504 224.275 160.605 223.7L161.956 220.072L182.067 212.125C182.967 225.6 180.836 231.715 170.51 238.211Z" fill="white"/>
<path fill-rule="evenodd" clip-rule="evenodd" d="M182.803 210.962L182.877 212.071C183.329 218.837 183.034 223.894 181.246 228.102C179.445 232.338 176.181 235.603 170.943 238.897C165.837 242.109 160.424 242.982 155.773 242.671C151.143 242.36 147.204 240.871 145.028 239.272C144.355 238.778 144.234 237.877 144.641 237.216C146.604 234.025 148.75 233.154 150.242 233.403C153.076 226.89 157.566 223.887 159.984 223.044L161.322 219.45L182.803 210.962ZM162.591 220.693L161.221 224.372L160.82 224.482C158.982 224.986 154.248 227.743 151.454 234.712L151.106 235.579L150.296 235.113C150.005 234.946 148.229 234.514 146.056 238.014C147.952 239.377 151.543 240.761 155.881 241.052C160.25 241.344 165.31 240.524 170.079 237.524C175.167 234.323 178.131 231.282 179.752 227.468C181.294 223.841 181.666 219.417 181.326 213.29L162.591 220.693Z" fill="#004070"/>
<path d="M261.846 97.0151C260.824 89.5748 265.797 75.0711 268.41 68.7493L243.609 55.8018C239.111 57.6254 230.151 65.3209 230.297 81.5145C230.48 101.756 263.122 106.315 261.846 97.0151Z" fill="white"/>
<path fill-rule="evenodd" clip-rule="evenodd" d="M243.652 54.9092L269.444 68.3738L269.16 69.0595C267.864 72.1937 265.98 77.3669 264.548 82.6743C263.106 88.0185 262.163 93.3628 262.649 96.905C262.845 98.3322 262.378 99.5379 261.42 100.44C260.496 101.311 259.159 101.862 257.636 102.16C254.583 102.757 250.476 102.399 246.376 101.118C238.207 98.5648 229.582 92.1605 229.486 81.522C229.337 64.9959 238.497 56.999 243.304 55.0501L243.652 54.9092ZM243.575 56.6994C239.271 58.6461 230.969 66.0627 231.108 81.5074C231.195 91.1109 238.982 97.107 246.86 99.569C250.784 100.795 254.61 101.098 257.324 100.567C258.685 100.301 259.69 99.8404 260.307 99.2591C260.891 98.7098 261.165 98.0235 261.042 97.1256C260.507 93.2275 261.539 87.5999 262.981 82.2517C264.334 77.2377 266.082 72.3498 267.38 69.1269L243.575 56.6994Z" fill="#005072"/>
<path fill-rule="evenodd" clip-rule="evenodd" d="M234.438 172.321C207.369 159.288 177.911 158.09 150.949 161.29C116.582 165.369 103.544 150.746 101.321 142.924C97.3705 149.631 107.334 158.583 112.809 162.221C109.272 162.348 97.3465 155.611 91.8262 152.226C90.5366 157.438 104.638 173.798 164.705 177.537C188.538 179.02 207.216 183.45 221.89 189.208L234.438 172.321Z" fill="#40CE97"/>
<path d="M178.466 306.621C184.469 282.85 200.777 253.643 208.181 242.011L267.612 264.814C264.411 271.84 252.184 291.349 228.892 313.186C199.777 340.481 170.962 336.335 178.466 306.621Z" fill="#0081A2"/>
<path fill-rule="evenodd" clip-rule="evenodd" d="M207.853 241.017L268.708 264.367L268.35 265.152C265.096 272.293 252.798 291.887 229.447 313.778C214.819 327.491 200.101 333.474 189.838 332.086C184.662 331.387 180.6 328.802 178.361 324.388C176.139 320.01 175.776 313.959 177.679 306.423C183.714 282.524 200.079 253.229 207.497 241.576L207.853 241.017ZM208.511 243.007C200.967 254.972 185.129 283.549 179.252 306.82C177.403 314.141 177.828 319.751 179.808 323.654C181.771 327.522 185.326 329.839 190.055 330.478C199.602 331.769 213.849 326.176 228.337 312.594C250.747 291.585 262.85 272.767 266.505 265.259L208.511 243.007Z" fill="#005072"/>
<path d="M205.779 242.702C203.858 238.003 203.778 219.323 203.978 210.57L277.217 200.896C280.919 193.179 288.743 183.344 290.424 205.733C292.525 233.719 291.624 228.191 284.12 251.685C276.616 275.18 208.18 248.576 205.779 242.702Z" fill="#AAC9E7"/>
<path fill-rule="evenodd" clip-rule="evenodd" d="M288.901 194.091C289.999 196.341 290.811 200.052 291.233 205.673C292.281 219.627 292.595 225.36 291.673 230.536C291.211 233.129 290.442 235.566 289.334 238.793C289.079 239.537 288.805 240.324 288.512 241.166C287.531 243.984 286.335 247.419 284.894 251.933C282.866 258.281 276.744 261.1 269.129 261.828C261.488 262.558 252.053 261.228 242.845 258.996C233.625 256.76 224.568 253.604 217.658 250.634C214.204 249.149 211.271 247.705 209.116 246.438C208.04 245.806 207.141 245.208 206.463 244.661C205.818 244.141 205.263 243.583 205.028 243.01C204.5 241.717 204.127 239.563 203.853 237.018C203.575 234.442 203.391 231.372 203.273 228.187C203.037 221.815 203.067 214.94 203.167 210.552L203.183 209.857L276.678 200.149C277.59 198.302 278.727 196.353 279.964 194.752C280.627 193.894 281.331 193.119 282.059 192.51C282.781 191.906 283.566 191.432 284.391 191.236C285.243 191.034 286.11 191.136 286.915 191.643C287.694 192.133 288.349 192.961 288.901 194.091ZM281.248 195.744C280.013 197.343 278.858 199.351 277.949 201.247L277.759 201.643L204.775 211.284C204.687 215.658 204.672 222.122 204.894 228.127C205.011 231.293 205.194 234.321 205.466 236.844C205.741 239.396 206.098 241.339 206.53 242.396C206.596 242.557 206.857 242.895 207.482 243.398C208.074 243.876 208.899 244.428 209.938 245.039C212.015 246.26 214.881 247.674 218.298 249.143C225.13 252.079 234.101 255.206 243.228 257.419C252.367 259.635 261.598 260.918 268.975 260.213C276.377 259.505 281.623 256.839 283.348 251.439C284.797 246.903 286.001 243.442 286.983 240.623C287.274 239.784 287.547 239.003 287.799 238.266C288.905 235.047 289.637 232.712 290.075 230.252C290.954 225.322 290.668 219.826 289.615 205.794C289.197 200.221 288.4 196.765 287.443 194.803C286.967 193.828 286.483 193.288 286.05 193.016C285.644 192.76 285.229 192.705 284.766 192.815C284.276 192.931 283.715 193.24 283.1 193.755C282.49 194.265 281.865 194.945 281.248 195.744Z" fill="#005072"/>
<path d="M211.182 178.783L201.127 150.451C201.167 150.031 201.209 149.6 201.252 149.16C191.492 154.559 179.8 159.239 172.161 161.853L184.168 208.151C179.065 219.898 168.86 221.741 162.257 219.898C151.751 203.774 134.885 165.782 142.746 140.086C149.907 116.676 202.167 96.4136 209.54 95.5098C212.191 93.9941 220.341 93.7299 224.089 93.7874C221.928 90.6088 222.088 86.2438 222.438 84.4587C236.726 87.2228 244.099 81.8098 246 78.7578L259.958 92.9237L263.109 84.4587L268.062 92.4054C282.47 91.2998 289.473 93.2116 291.174 94.3057C291.716 95.2001 292.194 96.2699 292.612 97.4917L307.233 123.501L309.934 108.299L331.545 99.3156C337.301 117.908 343.797 158.035 327.636 179.626C325.127 182.978 321.414 185.168 317.628 184.41C313.169 183.517 308.007 180.338 301.229 173.6C297.523 169.916 294.701 166.545 292.942 164.442C292.747 164.21 292.565 163.993 292.397 163.793C291.826 168.947 291.305 173.088 290.993 175.564C290.863 176.595 290.77 177.338 290.724 177.746C290.244 182.03 289.623 194.734 289.373 200.55L205.329 206.769C205.029 205.041 204.819 199.997 206.38 193.639C207.94 187.282 210.232 181.086 211.182 178.783Z" fill="#AAC9E7"/>
<path fill-rule="evenodd" clip-rule="evenodd" d="M245.856 77.4561L259.642 91.4479L262.925 82.6297L268.491 91.5606C275.493 91.0504 280.743 91.253 284.485 91.7266C288.275 92.2063 290.603 92.9745 291.613 93.6242L291.771 93.7257L291.868 93.886C292.437 94.8249 292.929 95.9267 293.355 97.1591L306.83 121.13L309.213 107.721L332.057 98.2252L332.321 99.0765C335.217 108.433 338.295 123.188 338.621 138.33C338.945 153.446 336.529 169.099 328.286 180.113C325.677 183.599 321.682 186.05 317.469 185.206C312.772 184.266 307.47 180.949 300.658 174.176C297.366 170.904 294.768 167.879 292.992 165.766C292.505 170.05 292.071 173.495 291.798 175.663L291.798 175.666C291.668 176.701 291.575 177.437 291.53 177.837C291.054 182.087 290.435 194.757 290.184 200.585L290.153 201.306L204.656 207.633L204.53 206.908C204.208 205.058 204.008 199.9 205.592 193.447C207.104 187.29 209.292 181.29 210.314 178.763L200.317 150.595C191.092 155.553 180.45 159.834 173.135 162.376L185.023 208.219L184.912 208.475C179.624 220.65 168.97 222.614 162.039 220.68L161.744 220.598L161.577 220.342C156.284 212.218 149.409 198.621 144.839 183.822C140.276 169.045 137.968 152.931 141.97 139.849C143.826 133.782 148.569 128.004 154.636 122.759C160.717 117.502 168.205 112.715 175.676 108.647C183.149 104.576 190.627 101.214 196.702 98.8106C199.739 97.609 202.431 96.6454 204.6 95.9525C206.642 95.3004 208.265 94.8735 209.283 94.7266C210.054 94.3212 211.105 94.0246 212.247 93.7982C213.482 93.5534 214.898 93.3769 216.333 93.2513C218.565 93.0559 220.877 92.981 222.686 92.971C222.007 91.5632 221.664 90.0577 221.515 88.6891C221.32 86.8957 221.451 85.276 221.642 84.3034L221.798 83.5093L222.592 83.663C236.64 86.3806 243.633 81.0261 245.312 78.3297L245.856 77.4561ZM246.095 80.0105C243.385 83.3213 236.006 87.6632 223.118 85.4096C223.03 86.2307 222.999 87.3257 223.129 88.5135C223.306 90.1443 223.779 91.8885 224.76 93.3321L225.638 94.6234L224.077 94.5995C222.224 94.571 219.278 94.6223 216.474 94.8677C215.072 94.9904 213.719 95.1606 212.563 95.3898C211.387 95.6229 210.488 95.9037 209.943 96.215L209.801 96.296L209.639 96.3159C208.8 96.4188 207.24 96.8127 205.094 97.4982C202.966 98.1779 200.309 99.1284 197.299 100.319C191.277 102.701 183.86 106.037 176.452 110.072C169.04 114.108 161.66 118.832 155.697 123.987C149.721 129.153 145.246 134.686 143.522 140.324C139.663 152.938 141.858 168.669 146.389 183.343C150.865 197.837 157.578 211.166 162.768 219.196C169.003 220.801 178.438 219.001 183.312 208.083L171.187 161.329L171.899 161.086C179.509 158.482 191.153 153.819 200.86 148.451L202.21 147.704L202.06 149.24C202.023 149.617 201.987 149.987 201.952 150.35L212.051 178.805L211.932 179.093C210.993 181.368 208.717 187.525 207.168 193.834C205.817 199.336 205.822 203.811 206.033 205.904L288.594 199.795C288.861 193.717 289.453 181.804 289.918 177.656C289.964 177.243 290.058 176.497 290.187 175.475L290.188 175.464C290.5 172.988 291.02 168.852 291.591 163.704L291.799 161.823L293.018 163.271C293.187 163.472 293.369 163.69 293.563 163.922L293.564 163.923C295.322 166.023 298.124 169.369 301.802 173.025C308.545 179.729 313.566 182.77 317.787 183.615C321.147 184.288 324.579 182.358 326.987 179.141C334.904 168.563 337.32 153.357 336.998 138.365C336.687 123.85 333.811 109.677 331.03 100.409L310.655 108.878L307.635 125.874L291.869 97.8255L291.845 97.7554C291.467 96.6523 291.046 95.6964 290.582 94.8976C289.771 94.449 287.775 93.7786 284.281 93.3364C280.581 92.868 275.284 92.6657 268.124 93.2152L267.634 93.2528L263.294 86.2894L260.274 94.4011L246.095 80.0105Z" fill="#005072"/>
<path d="M309.634 239.939C243.6 205.388 213.484 222.549 206.68 235.448C197.375 283.473 329.445 313.187 338.449 285.201C345.653 262.812 322.241 245.698 309.634 239.939Z" fill="#0081A2"/>
<path fill-rule="evenodd" clip-rule="evenodd" d="M207.454 235.718C205.276 247.247 211.512 257.795 222.588 266.786C233.691 275.798 249.501 283.101 265.932 288.05C282.36 292.998 299.334 295.571 312.729 295.174C319.43 294.976 325.187 294.036 329.52 292.312C333.857 290.587 336.655 288.127 337.677 284.95C341.164 274.113 337.27 264.522 330.848 256.852C324.417 249.171 315.521 243.518 309.297 240.675L309.277 240.666L309.258 240.656C276.324 223.424 252.447 219.142 236.022 220.705C219.69 222.26 210.747 229.584 207.454 235.718ZM309.991 239.208C276.899 221.897 252.708 217.487 235.868 219.09C219.027 220.693 209.519 228.323 205.962 235.067L205.906 235.173L205.883 235.291C203.474 247.729 210.253 258.864 221.566 268.046C232.89 277.238 248.916 284.619 265.464 289.603C282.016 294.589 299.167 297.199 312.777 296.796C319.578 296.595 325.543 295.64 330.12 293.82C334.693 292.001 337.992 289.267 339.221 285.447C342.938 273.896 338.728 263.735 332.092 255.811C325.474 247.906 316.372 242.126 309.991 239.208Z" fill="#005072"/>
<path d="M300.629 346.009L252.604 327.698C260.288 304.756 277.417 287.043 285.021 281.054C299.728 268.961 331.065 249.958 338.749 270.689C346.433 291.419 316.537 329.54 300.629 346.009Z" fill="#0081A2"/>
<path fill-rule="evenodd" clip-rule="evenodd" d="M209.803 94.6729C210.019 94.6616 210.297 94.6632 210.546 94.7492C210.97 94.8955 211.195 95.3574 211.048 95.7809C210.906 96.194 210.463 96.418 210.048 96.2931C210.04 96.2927 209.992 96.2878 209.887 96.2933C209.737 96.3012 209.527 96.3266 209.252 96.3752C208.705 96.472 207.964 96.6493 207.046 96.9083C205.214 97.4251 202.733 98.251 199.804 99.3526C193.947 101.555 186.334 104.845 178.581 108.931C170.824 113.019 162.953 117.89 156.564 123.249C150.158 128.622 145.33 134.415 143.522 140.324C139.663 152.938 141.858 168.669 146.389 183.343C150.865 197.837 157.578 211.166 162.768 219.196C169.003 220.801 178.438 219.001 183.312 208.083L171.187 161.33L171.899 161.086C179.274 158.562 190.441 154.105 199.96 148.944C204.721 146.363 209.041 143.621 212.263 140.875C215.519 138.101 217.512 135.442 217.884 133.052C217.953 132.609 218.368 132.306 218.811 132.375C219.254 132.444 219.557 132.859 219.487 133.301C219.02 136.301 216.627 139.288 213.316 142.11C209.971 144.96 205.541 147.764 200.733 150.37C191.414 155.423 180.561 159.795 173.135 162.376L185.023 208.219L184.912 208.475C179.624 220.65 168.97 222.615 162.039 220.681L161.744 220.598L161.577 220.342C156.284 212.219 149.409 198.621 144.839 183.822C140.276 169.045 137.968 152.932 141.97 139.849C143.915 133.493 149.029 127.452 155.521 122.006C162.029 116.547 170.01 111.614 177.824 107.496C185.642 103.376 193.318 100.058 199.233 97.8338C202.189 96.722 204.715 95.8798 206.605 95.3466C207.549 95.0805 208.348 94.8874 208.97 94.7774C209.28 94.7225 209.561 94.6855 209.803 94.6729Z" fill="#004070"/>
<path d="M309.967 87.4072C305.13 101.057 309.795 109.209 312.732 111.16C315.151 113.168 326.275 111.461 318.951 109.32C311.626 107.179 309.91 93.8194 309.967 87.4072Z" fill="white"/>
<path fill-rule="evenodd" clip-rule="evenodd" d="M309.396 92.3081C307.077 102.883 310.96 109.008 313.181 110.484L313.216 110.508L313.25 110.535C313.425 110.681 313.738 110.835 314.206 110.962C314.663 111.086 315.212 111.169 315.81 111.211C317.01 111.295 318.325 111.207 319.332 111.001C319.752 110.915 320.09 110.814 320.333 110.712C320.019 110.537 319.505 110.327 318.722 110.098C314.632 108.903 312.262 104.646 310.914 100.2C310.124 97.5965 309.65 94.8189 309.396 92.3081ZM320.65 110.937C320.65 110.937 320.645 110.933 320.64 110.923C320.648 110.932 320.651 110.937 320.65 110.937ZM312.249 111.813C308.905 109.554 304.302 100.962 309.202 87.1357L310.778 87.414C310.75 90.5627 311.159 95.4197 312.466 99.7294C313.793 104.102 315.944 107.596 319.178 108.541C320.119 108.816 320.831 109.102 321.318 109.41C321.745 109.68 322.3 110.163 322.214 110.888C322.174 111.232 321.994 111.494 321.813 111.674C321.634 111.853 321.417 111.99 321.203 112.097C320.777 112.312 320.233 112.473 319.657 112.59C318.497 112.828 317.034 112.923 315.697 112.83C315.026 112.783 314.367 112.687 313.781 112.528C313.222 112.376 312.673 112.153 312.249 111.813Z" fill="#005072"/>
<path d="M65.7842 245.851C42.3783 280.653 24.5238 274.853 18.5223 267.603C19.2939 278.933 31.7042 280.754 37.8129 280.249C35.2408 283.486 28.8106 290.366 16.5933 286.825C18.5223 294.075 39.6876 304.55 85.0748 252.933C133.613 197.733 172.058 217.359 223.967 230.17C236.285 231.973 316.138 234.585 307.56 180.598C305.502 167.648 297.37 167.277 292.655 167.952L290.582 181.426C274.292 192.386 231.536 204.998 188.279 190.715C136.195 173.516 95.0416 202.349 65.7842 245.851Z" fill="#40CE97"/>
<path d="M242.333 45.2261C240.728 29.1785 248.594 21.0331 252.727 18.9663C263.085 5.83643 275.644 16.778 280.628 23.8901C289.199 55.9853 275.657 69.9305 271.875 71.6683C265.128 74.7684 244.156 66.3799 241.421 52.7029C237.934 35.2655 244.338 65.2857 242.333 45.2261Z" fill="white"/>
<path fill-rule="evenodd" clip-rule="evenodd" d="M268.989 13.081C274.253 15.1454 278.753 19.7999 281.293 23.4233L281.375 23.5409L281.412 23.6796C285.734 39.8626 284.498 51.5442 281.647 59.4377C280.223 63.3804 278.399 66.3693 276.673 68.4935C274.963 70.5992 273.315 71.8986 272.214 72.4044C270.295 73.2858 267.515 73.3065 264.503 72.7319C261.457 72.1509 258.04 70.9357 254.762 69.1921C248.243 65.7246 242.063 60.0478 240.625 52.8608C240.19 50.6816 239.907 49.2374 239.743 48.343C239.662 47.8984 239.607 47.5772 239.578 47.3658C239.565 47.2671 239.552 47.1616 239.55 47.0716L239.55 47.0687C239.549 47.0392 239.546 46.9259 239.579 46.8001L239.579 46.7977C239.591 46.7528 239.652 46.5185 239.884 46.3461C240.029 46.2386 240.214 46.1766 240.411 46.1865C240.591 46.1954 240.725 46.2607 240.802 46.3086C240.942 46.3954 241.02 46.5031 241.041 46.532C241.073 46.5769 241.096 46.6172 241.109 46.6416C241.135 46.6914 241.156 46.7401 241.17 46.7744C241.2 46.8468 241.23 46.9339 241.26 47.0225C241.321 47.2033 241.397 47.4485 241.482 47.725C241.516 47.8373 241.552 47.9557 241.589 48.0788C241.665 48.3278 241.747 48.5962 241.832 48.8726C241.769 47.9244 241.669 46.7483 241.525 45.3057C239.909 29.1421 247.718 20.6724 252.201 18.3232C254.844 15.02 257.673 13.1629 260.55 12.4103C263.464 11.6479 266.339 12.042 268.989 13.081ZM242.376 53.2477C243.929 59.4205 249.418 64.5115 255.524 67.7596C258.675 69.4353 261.937 70.5908 264.807 71.1381C267.71 71.6919 270.081 71.5986 271.536 70.9299C272.327 70.5668 273.789 69.4713 275.414 67.4706C277.024 65.4884 278.758 62.6592 280.121 58.8865C282.836 51.3712 284.086 40.0768 279.881 24.2378C277.424 20.7689 273.193 16.4725 268.396 14.5917C265.989 13.6475 263.47 13.3236 260.961 13.9801C258.454 14.636 255.868 16.2932 253.364 19.4677L253.252 19.6099L253.09 19.6909C249.276 21.5979 241.566 29.4107 243.14 45.1443C243.391 47.6581 243.513 49.4082 243.537 50.5734C243.549 51.1534 243.538 51.6115 243.501 51.9561C243.483 52.1275 243.456 52.2933 243.414 52.442C243.377 52.5705 243.304 52.7829 243.135 52.9613C243.041 53.0608 242.903 53.164 242.718 53.2173C242.599 53.2516 242.483 53.2587 242.376 53.2477Z" fill="#005072"/>
<path d="M282.088 30.0894C278.007 15.8049 266.835 15.7015 260.915 17.4365C260.643 17.5163 260.37 17.5832 260.09 17.6284L255.116 18.4305L237.715 4.50945L241.752 1.02907C242.408 0.463963 243.24 0.117457 244.105 0.0721679C272.06 -1.39268 282.773 19.8118 282.088 30.0894Z" fill="#005072"/>
<path d="M214.797 102.851C195.538 95.4638 197.838 54.0209 218.276 16.4894C222.506 8.72049 230.098 3.49882 238.653 1.24753C239.025 1.14951 239.418 1.20118 239.749 1.39762C249.694 7.29408 263.624 17.7125 256.741 21.154C247.988 25.5306 247.623 63.6438 248.718 85.1623C249.812 106.681 241.422 113.063 214.797 102.851Z" fill="#005072"/>
<path d="M260.428 20.0595L248.703 8.93555L261.48 19.1575L260.428 20.0595Z" fill="white"/>
<path fill-rule="evenodd" clip-rule="evenodd" d="M294.33 147.393C294.775 147.442 295.097 147.843 295.047 148.288L292.657 169.9C292.607 170.345 292.206 170.666 291.761 170.617C291.316 170.568 290.995 170.167 291.044 169.721L293.434 148.11C293.484 147.665 293.885 147.344 294.33 147.393Z" fill="#004070"/>
<path fill-rule="evenodd" clip-rule="evenodd" d="M294.825 277.998C294.973 278.421 294.75 278.883 294.327 279.031C291.184 280.132 287.265 282.416 283.609 284.862C279.966 287.3 276.641 289.859 274.7 291.466C274.354 291.752 273.843 291.703 273.557 291.358C273.272 291.013 273.32 290.501 273.665 290.216C275.645 288.577 279.014 285.985 282.706 283.514C286.385 281.052 290.445 278.671 293.791 277.5C294.214 277.352 294.677 277.575 294.825 277.998Z" fill="#005072"/>
<path d="M310.143 94.5556C308.372 93.2674 308.449 90.7919 308.845 89.1301C308.994 88.506 309.464 88.0267 310.045 87.7531C315 85.4176 322.794 81.1984 325.842 84.0296C329.125 87.0784 332.247 99.1206 331.626 104.753C331.004 110.386 320.979 112.219 316.341 109.931C312.631 108.101 313.728 106.653 314.74 106.158C310.688 105.992 310.873 102.91 311.472 101.39C308.837 99.9943 309.488 96.2522 310.143 94.5556Z" fill="white"/>
<path fill-rule="evenodd" clip-rule="evenodd" d="M322.762 82.2778C324.116 82.2407 325.418 82.5289 326.394 83.4354C327.336 84.31 328.2 85.7546 328.957 87.4276C329.724 89.1217 330.416 91.1313 330.981 93.21C332.104 97.3413 332.759 101.876 332.432 104.843C332.064 108.176 328.958 110.194 325.706 111.094C322.417 112.005 318.533 111.917 315.982 110.659C315.01 110.179 314.299 109.699 313.811 109.214C313.322 108.728 313.017 108.194 312.962 107.622C312.929 107.284 312.984 106.984 313.091 106.721C312.687 106.602 312.327 106.443 312.009 106.247C311.308 105.813 310.86 105.223 310.607 104.579C310.227 103.61 310.299 102.562 310.51 101.738C309.294 100.82 308.847 99.4286 308.764 98.1378C308.687 96.9334 308.914 95.7224 309.195 94.8149C308.41 94.0469 308.028 93.0656 307.88 92.1071C307.706 90.9836 307.842 89.8383 308.056 88.9423C308.275 88.0226 308.953 87.371 309.699 87.0195C310.171 86.797 310.674 86.5548 311.2 86.3016C313.388 85.2475 315.975 84.0017 318.4 83.1852C319.907 82.6777 321.409 82.3149 322.762 82.2778ZM312.068 102.194C311.928 102.772 311.903 103.439 312.117 103.985C312.25 104.323 312.477 104.629 312.863 104.867C313.254 105.109 313.85 105.307 314.751 105.347C315.696 105.331 317.175 105.22 318.543 104.941C319.234 104.801 319.872 104.623 320.39 104.405C320.924 104.181 321.251 103.948 321.409 103.744C321.684 103.39 322.194 103.326 322.548 103.601C322.901 103.877 322.965 104.386 322.69 104.74C322.281 105.266 321.655 105.634 321.019 105.901C320.367 106.175 319.617 106.379 318.867 106.531C317.462 106.817 315.974 106.938 314.954 106.965C314.651 107.152 314.567 107.355 314.577 107.466C314.585 107.547 314.639 107.749 314.955 108.064C315.274 108.38 315.817 108.768 316.7 109.203C318.787 110.233 322.235 110.372 325.273 109.531C328.348 108.679 330.566 106.964 330.819 104.665C331.113 101.998 330.519 97.6957 329.415 93.6355C328.867 91.6184 328.202 89.6938 327.479 88.0965C326.747 86.4781 325.99 85.2742 325.29 84.6243C324.742 84.1153 323.927 83.8691 322.807 83.8998C321.686 83.9305 320.359 84.2377 318.917 84.723C316.599 85.5037 314.133 86.6907 311.948 87.7425C311.41 88.0017 310.888 88.2526 310.391 88.4873C309.976 88.6828 309.713 88.99 309.634 89.3185C309.452 90.0843 309.352 91.0076 309.483 91.8593C309.614 92.7015 309.959 93.4183 310.62 93.8998L311.124 94.2665L310.9 94.848C310.602 95.6187 310.308 96.859 310.383 98.034C310.454 99.1309 310.829 100.044 311.686 100.578C312.74 100.568 314.308 100.466 315.809 100.194C316.611 100.048 317.374 99.8574 318.022 99.6145C318.68 99.3676 319.159 99.0889 319.448 98.8003C319.765 98.4835 320.278 98.4835 320.595 98.8003C320.912 99.1172 320.912 99.6309 320.595 99.9477C320.072 100.47 319.349 100.85 318.592 101.134C317.824 101.422 316.959 101.634 316.098 101.79C314.657 102.052 313.173 102.165 312.068 102.194Z" fill="#005072"/>
<path fill-rule="evenodd" clip-rule="evenodd" d="M318.667 91.419C318.916 91.7918 318.815 92.2955 318.442 92.5441C315.827 94.2874 312.069 94.8404 310.524 94.9106C310.077 94.9309 309.697 94.5845 309.677 94.1369C309.657 93.6893 310.003 93.31 310.451 93.2896C311.881 93.2246 315.289 92.6958 317.542 91.194C317.915 90.9454 318.419 91.0462 318.667 91.419Z" fill="#005072"/>
<path d="M172.364 313.559H332.19V365.578H172.364V313.559Z" fill="white"/>
</g>
<defs>
<clipPath id="clip0_5294_36940">
<rect width="444" height="314" fill="white"/>
</clipPath>
</defs>
</svg>
