<svg width="546" height="289" viewBox="0 0 546 289" fill="none" xmlns="http://www.w3.org/2000/svg">
<path fill-rule="evenodd" clip-rule="evenodd" d="M492.589 249.538H495.97V247.262H492.589V249.538ZM479.066 249.538H485.827V247.262H479.066V249.538ZM465.542 249.538H472.304V247.262H465.542V249.538ZM452.019 249.538H458.781V247.262H452.019V249.538ZM438.496 249.538H445.257V247.262H438.496V249.538ZM424.972 249.538H431.734V247.262H424.972V249.538ZM411.449 249.538H418.211V247.262H411.449V249.538ZM397.926 249.538L404.688 249.538V247.262L397.926 247.262V249.538ZM384.403 249.538H391.164V247.262H384.403V249.538ZM370.879 249.538H377.641V247.262H370.879V249.538ZM357.356 249.538H364.118V247.262H357.356V249.538ZM343.833 249.538H350.594V247.262H343.833V249.538ZM330.309 249.538H337.071V247.262H330.309V249.538ZM316.786 249.538H323.548V247.262H316.786V249.538ZM306.644 249.538H310.024V247.262H306.644V249.538Z" fill="#00B6ED"/>
<path fill-rule="evenodd" clip-rule="evenodd" d="M493.747 233.52H497.185V231.243H493.747V233.52ZM479.996 233.52H486.872L486.872 231.243H479.996V233.52ZM466.244 233.52H473.12V231.243H466.244V233.52ZM452.493 233.52H459.369V231.243H452.493V233.52ZM438.742 233.52H445.617V231.243H438.742L438.742 233.52ZM424.99 233.52H431.866L431.866 231.243H424.99V233.52ZM411.239 233.52H418.114V231.243H411.239V233.52ZM397.487 233.52H404.363V231.243H397.487V233.52ZM383.736 233.52H390.611V231.243H383.736V233.52ZM369.984 233.52H376.86V231.243H369.984V233.52ZM356.233 233.52H363.108V231.243H356.233V233.52ZM342.481 233.52H349.357V231.243H342.481V233.52ZM328.73 233.52H335.605V231.243H328.73V233.52ZM314.978 233.52H321.854V231.243H314.978V233.52ZM301.227 233.52H308.102V231.243H301.227V233.52ZM290.913 233.52H294.351V231.243H290.913L290.913 233.52Z" fill="#00B6ED"/>
<path fill-rule="evenodd" clip-rule="evenodd" d="M503.473 196.671H506.91V194.395H503.473V196.671ZM489.721 196.671H496.597V194.395H489.721V196.671ZM475.97 196.671H482.845V194.395H475.97V196.671ZM462.218 196.671H469.094V194.395H462.218V196.671ZM448.467 196.671H455.342V194.395H448.467V196.671ZM434.715 196.671H441.591V194.395H434.715V196.671ZM420.964 196.671H427.839V194.395H420.964V196.671ZM407.212 196.671H414.088V194.395H407.212V196.671ZM393.461 196.671L400.336 196.671V194.395H393.461V196.671ZM379.709 196.671H386.585V194.395H379.709V196.671ZM365.958 196.671H372.833V194.395H365.958V196.671ZM352.206 196.671H359.082V194.395H352.206V196.671ZM338.455 196.671H345.33V194.395H338.455V196.671ZM324.703 196.671H331.579V194.395H324.703V196.671ZM310.952 196.671H317.828V194.395H310.952V196.671ZM300.638 196.671H304.076L304.076 194.395H300.638L300.638 196.671Z" fill="#00B6ED"/>
<path fill-rule="evenodd" clip-rule="evenodd" d="M499.826 215.895H503.264V213.619H499.826V215.895ZM486.074 215.895H492.95V213.619H486.074V215.895ZM472.323 215.895H479.199V213.619H472.323V215.895ZM458.571 215.895H465.447V213.619H458.571V215.895ZM444.82 215.895H451.696V213.619H444.82V215.895ZM431.068 215.895H437.944V213.619H431.068V215.895ZM417.317 215.895H424.193V213.619H417.317V215.895ZM403.566 215.895H410.441V213.619H403.566V215.895ZM389.814 215.895H396.69V213.619H389.814V215.895ZM376.063 215.895H382.938V213.619H376.063V215.895ZM362.311 215.895H369.187V213.619H362.311V215.895ZM348.56 215.895H355.435V213.619H348.56V215.895ZM334.808 215.895H341.684V213.619H334.808V215.895ZM321.057 215.895H327.932V213.619H321.057V215.895ZM307.305 215.895H314.181V213.619H307.305V215.895ZM296.992 215.895H300.429V213.619H296.992L296.992 215.895Z" fill="#00B6ED"/>
<path fill-rule="evenodd" clip-rule="evenodd" d="M519.295 176.914H522.714V174.638H519.295V176.914ZM505.619 176.914H512.457V174.638H505.619V176.914ZM491.943 176.914H498.781V174.638H491.943V176.914ZM478.267 176.914H485.105V174.638H478.267V176.914ZM464.591 176.914H471.429V174.638H464.591V176.914ZM450.916 176.914H457.753V174.638H450.916V176.914ZM437.24 176.914H444.078V174.638H437.24V176.914ZM423.564 176.914H430.402V174.638H423.564V176.914ZM409.888 176.914H416.726V174.638H409.888V176.914ZM396.212 176.914H403.05V174.638H396.212V176.914ZM382.536 176.914H389.374V174.638H382.536V176.914ZM368.86 176.914H375.698V174.638H368.86V176.914ZM355.184 176.914H362.022V174.638H355.184V176.914ZM341.508 176.914H348.346V174.638H341.508V176.914ZM327.832 176.914H334.67V174.638H327.832V176.914ZM314.157 176.914H320.995V174.638H314.157V176.914ZM303.9 176.914H307.319V174.638H303.9V176.914Z" fill="#00B6ED"/>
<path fill-rule="evenodd" clip-rule="evenodd" d="M531.451 161.094H534.87V158.817H531.451V161.094ZM517.775 161.094H524.613V158.817H517.775V161.094ZM504.1 161.094H510.937V158.817H504.1V161.094ZM490.424 161.094H497.262L497.262 158.817H490.424V161.094ZM476.748 161.094H483.586V158.817H476.748L476.748 161.094ZM463.072 161.094H469.91V158.817H463.072L463.072 161.094ZM449.396 161.094H456.234V158.817H449.396L449.396 161.094ZM435.72 161.094H442.558V158.817H435.72V161.094ZM422.044 161.094H428.882V158.817H422.044V161.094ZM408.368 161.094H415.206V158.817H408.368V161.094ZM394.692 161.094H401.53V158.817H394.692V161.094ZM381.017 161.094H387.854V158.817H381.017V161.094ZM367.341 161.094H374.179V158.817H367.341V161.094ZM353.665 161.094H360.503V158.817H353.665V161.094ZM339.989 161.094H346.827V158.817H339.989V161.094ZM326.313 161.094H333.151V158.817H326.313V161.094ZM316.056 161.094H319.475V158.817H316.056V161.094Z" fill="#00B6ED"/>
<path fill-rule="evenodd" clip-rule="evenodd" d="M514.433 124.584H517.852V122.307L514.433 122.307V124.584ZM500.757 124.584L507.595 124.584V122.307L500.757 122.307V124.584ZM487.081 124.584L493.919 124.584V122.307L487.081 122.307V124.584ZM473.405 124.584L480.243 124.584V122.307L473.405 122.307V124.584ZM459.729 124.584L466.567 124.584V122.307L459.729 122.307V124.584ZM446.053 124.584L452.891 124.584V122.307L446.053 122.307V124.584ZM432.377 124.584L439.215 124.584V122.307L432.377 122.307V124.584ZM418.701 124.584L425.539 124.584V122.307L418.701 122.307V124.584ZM405.025 124.584L411.863 124.584V122.307L405.025 122.307V124.584ZM391.35 124.584L398.188 124.584V122.307L391.35 122.307V124.584ZM377.674 124.584L384.512 124.584V122.307L377.674 122.307V124.584ZM363.998 124.584L370.836 124.584V122.307L363.998 122.307V124.584ZM350.322 124.584L357.16 124.584V122.307L350.322 122.307V124.584ZM336.646 124.584L343.484 124.584V122.307L336.646 122.307V124.584ZM322.97 124.584L329.808 124.584V122.307L322.97 122.307V124.584ZM309.294 124.584L316.132 124.584V122.307L309.294 122.307V124.584ZM299.037 124.584L302.456 124.584V122.307L299.037 122.307V124.584Z" fill="#00B6ED"/>
<path fill-rule="evenodd" clip-rule="evenodd" d="M542.392 141.621H545.811V139.345H542.392V141.621ZM528.716 141.621H535.554V139.345L528.716 139.345V141.621ZM515.04 141.621H521.878V139.345H515.04V141.621ZM501.364 141.621H508.202V139.345H501.364V141.621ZM487.689 141.621H494.527V139.345H487.689V141.621ZM474.013 141.621H480.851V139.345H474.013V141.621ZM460.337 141.621H467.175V139.345H460.337V141.621ZM446.661 141.621H453.499V139.345H446.661V141.621ZM432.985 141.621H439.823V139.345L432.985 139.345V141.621ZM419.309 141.621L426.147 141.621V139.345H419.309V141.621ZM405.633 141.621H412.471V139.345L405.633 139.345V141.621ZM391.957 141.621H398.795V139.345H391.957V141.621ZM378.281 141.621H385.119V139.345H378.281V141.621ZM364.606 141.621H371.444V139.345H364.606V141.621ZM350.93 141.621H357.768V139.345H350.93V141.621ZM337.254 141.621H344.092V139.345H337.254V141.621ZM326.997 141.621H330.416V139.345H326.997V141.621Z" fill="#00B6ED"/>
<mask id="path-2-inside-1_5317_36990" fill="white">
<path d="M316.228 89.2146C316.228 102.024 305.844 112.408 293.034 112.408C280.225 112.408 269.841 102.024 269.841 89.2146C269.841 76.4051 280.225 66.021 293.034 66.021C305.844 66.021 316.228 76.4051 316.228 89.2146Z"/>
</mask>
<path d="M316.228 89.2146C316.228 102.024 305.844 112.408 293.034 112.408C280.225 112.408 269.841 102.024 269.841 89.2146C269.841 76.4051 280.225 66.021 293.034 66.021C305.844 66.021 316.228 76.4051 316.228 89.2146Z" fill="#40CE97" stroke="#005072" stroke-width="4" mask="url(#path-2-inside-1_5317_36990)"/>
<path fill-rule="evenodd" clip-rule="evenodd" d="M274.408 91.9204C275.202 101.533 283.255 109.086 293.072 109.086C302.889 109.086 310.942 101.533 311.735 91.9204H274.408Z" fill="#1EA9A1"/>
<path fill-rule="evenodd" clip-rule="evenodd" d="M287.599 74.0815C281.045 75.8369 276.219 81.8175 276.219 88.9253C276.219 92.683 277.568 96.1256 279.807 98.7954C279.233 96.7417 278.924 94.5636 278.924 92.3076C278.924 84.7978 282.346 78.1503 287.599 74.0815Z" fill="#FFF2D0"/>
<mask id="path-5-inside-2_5317_36990" fill="white">
<path d="M226.058 149.93C226.058 132.292 240.356 117.994 257.994 117.994H329.953C347.591 117.994 361.89 132.292 361.89 149.93V257.35C361.89 263.764 356.69 268.964 350.276 268.964H237.671C231.257 268.964 226.058 263.764 226.058 257.35V149.93Z"/>
</mask>
<path d="M226.058 149.93C226.058 132.292 240.356 117.994 257.994 117.994H329.953C347.591 117.994 361.89 132.292 361.89 149.93V257.35C361.89 263.764 356.69 268.964 350.276 268.964H237.671C231.257 268.964 226.058 263.764 226.058 257.35V149.93Z" fill="white" stroke="#005072" stroke-width="4" mask="url(#path-5-inside-2_5317_36990)"/>
<mask id="path-6-inside-3_5317_36990" fill="white">
<path d="M242.05 111.654C242.05 105.666 246.904 100.812 252.892 100.812H335.055C341.043 100.812 345.897 105.666 345.897 111.654C345.897 117.641 341.043 122.496 335.055 122.496H252.892C246.904 122.496 242.05 117.641 242.05 111.654Z"/>
</mask>
<path d="M242.05 111.654C242.05 105.666 246.904 100.812 252.892 100.812H335.055C341.043 100.812 345.897 105.666 345.897 111.654C345.897 117.641 341.043 122.496 335.055 122.496H252.892C246.904 122.496 242.05 117.641 242.05 111.654Z" fill="#D9D9D9" stroke="#005072" stroke-width="4" mask="url(#path-6-inside-3_5317_36990)"/>
<mask id="path-7-inside-4_5317_36990" fill="white">
<path d="M256.794 248.421C256.794 246.266 258.541 244.52 260.696 244.52H292.031C294.186 244.52 295.933 246.266 295.933 248.421V264.536C295.933 266.691 294.186 268.438 292.031 268.438H260.696C258.541 268.438 256.794 266.691 256.794 264.536V248.421Z"/>
</mask>
<path d="M256.794 248.421C256.794 246.266 258.541 244.52 260.696 244.52H292.031C294.186 244.52 295.933 246.266 295.933 248.421V264.536C295.933 266.691 294.186 268.438 292.031 268.438H260.696C258.541 268.438 256.794 266.691 256.794 264.536V248.421Z" fill="#40CE97" stroke="#005072" stroke-width="4" mask="url(#path-7-inside-4_5317_36990)"/>
<path d="M302.456 263.108C302.456 264.341 301.456 265.341 300.222 265.341L261.927 265.341C260.693 265.341 259.693 264.341 259.693 263.108L259.693 256.553L302.456 256.553L302.456 263.108Z" fill="#1EA9A1"/>
<mask id="path-9-inside-5_5317_36990" fill="white">
<path d="M292.308 222.239C292.308 219.878 294.221 217.964 296.582 217.964H336.595C338.956 217.964 340.869 219.878 340.869 222.239V264.887C340.869 267.247 338.956 269.161 336.595 269.161H296.582C294.221 269.161 292.308 267.247 292.308 264.887V222.239Z"/>
</mask>
<path d="M292.308 222.239C292.308 219.878 294.221 217.964 296.582 217.964H336.595C338.956 217.964 340.869 219.878 340.869 222.239V264.887C340.869 267.247 338.956 269.161 336.595 269.161H296.582C294.221 269.161 292.308 267.247 292.308 264.887V222.239Z" fill="#40CE97" stroke="#005072" stroke-width="4" mask="url(#path-9-inside-5_5317_36990)"/>
<path d="M337.973 235.717L295.209 235.717L295.209 226.929L337.973 226.929L337.973 235.717Z" fill="#1EA9A1"/>
<path d="M337.973 250.212L295.209 250.212L295.209 241.424L337.973 241.424L337.973 250.212Z" fill="#1EA9A1"/>
<path d="M337.973 263.108C337.973 264.341 336.973 265.341 335.739 265.341L297.443 265.341C296.21 265.341 295.209 264.341 295.209 263.108L295.209 256.553L337.973 256.553L337.973 263.108Z" fill="#1EA9A1"/>
<path d="M293.438 235.28H340.117" stroke="#005072" stroke-width="2"/>
<path d="M293.438 252.222H340.117" stroke="#005072" stroke-width="2"/>
<mask id="path-15-inside-6_5317_36990" fill="white">
<path d="M255.345 159.187C255.345 156.347 257.648 154.044 260.488 154.044H331.379C334.22 154.044 336.522 156.347 336.522 159.187V200.039C336.522 202.879 334.22 205.182 331.379 205.182H260.488C257.648 205.182 255.345 202.879 255.345 200.039V159.187Z"/>
</mask>
<path d="M255.345 159.187C255.345 156.347 257.648 154.044 260.488 154.044H331.379C334.22 154.044 336.522 156.347 336.522 159.187V200.039C336.522 202.879 334.22 205.182 331.379 205.182H260.488C257.648 205.182 255.345 202.879 255.345 200.039V159.187Z" fill="#00B6ED" stroke="#005072" stroke-width="4" mask="url(#path-15-inside-6_5317_36990)"/>
<path d="M269.931 191.592H321.935M269.931 179.995H321.935M269.931 168.399H321.935" stroke="#005072" stroke-width="2" stroke-linecap="round"/>
<mask id="path-17-outside-7_5317_36990" maskUnits="userSpaceOnUse" x="279.721" y="0" width="156" height="85" fill="black">
<rect fill="white" x="279.721" width="156" height="85"/>
<path d="M419.432 3.9385C417.377 2.00336 414.37 1.48047 411.751 2.53522C400.615 7.02158 382.746 13.3342 379.114 13.4303C373.487 13.5802 368.066 13.6812 362.951 13.7766C358.074 13.8676 353.476 13.9534 349.245 14.0713C337.767 14.3899 328.996 14.9495 324.724 16.5008C319.402 18.4361 299.859 50.6169 292.022 59.7766L314.882 53.8771L326.415 40.9872H335.275C336.803 45.7857 332.593 51.1173 332.593 51.1173L291.09 62.1253C291.09 62.1253 279.535 64.8527 282.089 75.2394C282.089 75.2394 281.323 85.5379 307.212 81.7912C307.866 81.6966 308.485 81.6036 309.099 81.5098C316.838 80.3469 321.482 79.3653 324.967 78.6285C332.154 77.1097 334.417 76.6315 348.727 77.7491C370.528 79.4506 376.302 80.0074 385.158 75.2394C388.399 73.4957 394.128 70.8493 397.472 67.6851C402.085 63.3195 413.468 45.1402 427.914 39.1573C430.648 38.025 432.772 35.5319 432.772 32.5727C432.772 22.316 428.538 12.5141 421.071 5.48245L419.432 3.9385Z"/>
</mask>
<path d="M419.432 3.9385C417.377 2.00336 414.37 1.48047 411.751 2.53522C400.615 7.02158 382.746 13.3342 379.114 13.4303C373.487 13.5802 368.066 13.6812 362.951 13.7766C358.074 13.8676 353.476 13.9534 349.245 14.0713C337.767 14.3899 328.996 14.9495 324.724 16.5008C319.402 18.4361 299.859 50.6169 292.022 59.7766L314.882 53.8771L326.415 40.9872H335.275C336.803 45.7857 332.593 51.1173 332.593 51.1173L291.09 62.1253C291.09 62.1253 279.535 64.8527 282.089 75.2394C282.089 75.2394 281.323 85.5379 307.212 81.7912C307.866 81.6966 308.485 81.6036 309.099 81.5098C316.838 80.3469 321.482 79.3653 324.967 78.6285C332.154 77.1097 334.417 76.6315 348.727 77.7491C370.528 79.4506 376.302 80.0074 385.158 75.2394C388.399 73.4957 394.128 70.8493 397.472 67.6851C402.085 63.3195 413.468 45.1402 427.914 39.1573C430.648 38.025 432.772 35.5319 432.772 32.5727C432.772 22.316 428.538 12.5141 421.071 5.48245L419.432 3.9385Z" fill="white"/>
<path d="M419.432 3.9385C417.377 2.00336 414.37 1.48047 411.751 2.53522C400.615 7.02158 382.746 13.3342 379.114 13.4303C373.487 13.5802 368.066 13.6812 362.951 13.7766C358.074 13.8676 353.476 13.9534 349.245 14.0713C337.767 14.3899 328.996 14.9495 324.724 16.5008C319.402 18.4361 299.859 50.6169 292.022 59.7766L314.882 53.8771L326.415 40.9872H335.275C336.803 45.7857 332.593 51.1173 332.593 51.1173L291.09 62.1253C291.09 62.1253 279.535 64.8527 282.089 75.2394C282.089 75.2394 281.323 85.5379 307.212 81.7912C307.866 81.6966 308.485 81.6036 309.099 81.5098C316.838 80.3469 321.482 79.3653 324.967 78.6285C332.154 77.1097 334.417 76.6315 348.727 77.7491C370.528 79.4506 376.302 80.0074 385.158 75.2394C388.399 73.4957 394.128 70.8493 397.472 67.6851C402.085 63.3195 413.468 45.1402 427.914 39.1573C430.648 38.025 432.772 35.5319 432.772 32.5727C432.772 22.316 428.538 12.5141 421.071 5.48245L419.432 3.9385Z" stroke="#005072" stroke-width="4" mask="url(#path-17-outside-7_5317_36990)"/>
<path d="M0 267.755L263.103 267.755" stroke="#005072" stroke-width="2"/>
<path d="M116.067 249.541C126.965 249.541 135.799 258.149 135.799 268.768C135.799 279.386 126.965 287.994 116.067 287.994C105.169 287.994 96.334 279.386 96.334 268.768C96.334 258.149 105.169 249.541 116.067 249.541Z" stroke="#005072" stroke-width="2" stroke-linecap="round"/>
<path d="M116.57 286.982L116.57 130.133" stroke="#005072" stroke-width="2" stroke-linecap="round"/>
<path fill-rule="evenodd" clip-rule="evenodd" d="M131.415 95.2432C131.415 95.2034 131.415 95.1637 131.416 95.1239V95.3625C131.415 95.3228 131.415 95.283 131.415 95.2432ZM144.409 82.2494C139.261 82.2494 134.812 85.2433 132.708 89.5849H167.348H200.498H235.137C233.033 85.2433 228.584 82.2494 223.436 82.2494C222.568 82.2494 221.72 82.3344 220.9 82.4967C218.534 79.2945 214.731 77.2179 210.444 77.2179C207.126 77.2179 204.098 78.4616 201.802 80.5082C199.678 73.0445 192.81 67.5786 184.666 67.5786C184.417 67.5786 184.169 67.5837 183.923 67.5938C183.677 67.5837 183.429 67.5786 183.18 67.5786C175.036 67.5786 168.168 73.0438 166.045 80.5069C163.748 78.461 160.721 77.2179 157.404 77.2179C153.116 77.2179 149.314 79.2947 146.947 82.4972C146.126 82.3346 145.278 82.2494 144.409 82.2494Z" fill="#B1E7F8"/>
<path fill-rule="evenodd" clip-rule="evenodd" d="M68.6504 148.966H30.4766C30.2942 148.209 30.1976 147.419 30.1976 146.607C30.1976 141.067 34.689 136.575 40.2293 136.575C44.8155 136.575 48.6828 139.653 49.8789 143.855C51.172 142.703 52.8765 142.003 54.7444 142.003C57.1589 142.003 59.3002 143.173 60.6329 144.976C61.0952 144.885 61.5731 144.837 62.0623 144.837C64.9607 144.837 67.4655 146.522 68.6504 148.966Z" fill="#B1E7F8"/>
</svg>
