<svg width="607" height="245" viewBox="0 0 607 245" fill="none" xmlns="http://www.w3.org/2000/svg">
<path fill-rule="evenodd" clip-rule="evenodd" d="M325.793 90.0004C318.494 85.6027 315.18 76.0646 313.719 66.7724C306.257 62.1746 308.621 54.9505 309.219 53.4458C309.672 52.3044 311.572 52.8504 312.646 53.3424C312.594 49.9775 312.69 47.2032 312.75 45.4854C312.78 44.6232 312.8 44.0272 312.788 43.7562C331.833 9.5282 360.203 31.8966 360.631 41.6594C360.737 44.0928 360.797 48.2255 360.492 53.1163C361.557 52.7036 362.908 52.4807 363.281 53.5133C363.871 55.1467 365.644 62.6386 358.503 67.688C356.721 75.6059 353.577 83.3133 348.12 87.9866C348.351 97.6037 350.767 105.901 358.993 106.218L345.347 157.959L327.721 155.685L314.644 106.218C318.023 106.218 323.037 101.707 325.793 90.0004Z" fill="white"/>
<path fill-rule="evenodd" clip-rule="evenodd" d="M356.35 32.3381C359.432 35.3359 361.506 38.793 361.63 41.6155C361.727 43.8458 361.786 47.4748 361.567 51.8022C361.774 51.7763 361.982 51.765 362.188 51.7736C362.558 51.7892 362.973 51.8715 363.354 52.1008C363.752 52.3409 364.053 52.7064 364.222 53.1736C364.557 54.1005 365.185 56.5486 364.782 59.457C364.384 62.3219 362.985 65.6119 359.394 68.2769C357.621 75.9667 354.526 83.5971 349.132 88.4288C349.278 93.0051 349.942 97.1272 351.453 100.142C352.979 103.188 355.342 105.076 359.032 105.218L360.278 105.266L346.09 159.063L326.926 156.59L313.345 105.218H314.644C315.897 105.218 317.737 104.355 319.663 101.884C321.493 99.5378 323.31 95.8444 324.652 90.4626C317.5 85.7429 314.264 76.3138 312.803 67.3746C309.086 64.9352 307.739 61.8124 307.452 59.0525C307.161 56.2544 307.963 53.8976 308.289 53.0765C308.775 51.8537 310.011 51.7209 310.782 51.7849C311.066 51.8085 311.353 51.8602 311.632 51.9289C311.621 49.1837 311.699 46.9252 311.75 45.4533L311.75 45.4507C311.781 44.5592 311.799 44.0201 311.789 43.7999L311.777 43.5172L311.915 43.2699C316.748 34.5827 322.228 29.3894 327.805 26.714C333.391 24.0347 338.984 23.9245 343.948 25.2448C348.897 26.5611 353.226 29.2987 356.35 32.3381ZM313.791 44.0112C318.446 35.7268 323.606 30.9469 328.671 28.5173C333.774 26.0692 338.871 25.9639 343.434 27.1776C348.011 28.3952 352.045 30.9409 354.956 33.7718C357.909 36.6442 359.541 39.6442 359.632 41.7031C359.737 44.1069 359.796 48.2038 359.494 53.054L359.396 54.6131L360.853 54.0487C361.336 53.8614 361.789 53.7586 362.104 53.7719C362.252 53.7781 362.312 53.8079 362.322 53.8143C362.322 53.8141 362.322 53.8145 362.322 53.8143L362.323 53.8151C362.324 53.8162 362.325 53.8181 362.327 53.8209C362.33 53.8264 362.335 53.8366 362.341 53.8529C362.596 54.5594 363.149 56.674 362.801 59.1822C362.458 61.6518 361.243 64.5256 357.925 66.8714L357.611 67.0933L357.527 67.4683C355.76 75.3194 352.679 82.7663 347.469 87.227L347.109 87.5359L347.12 88.0106C347.237 92.8655 347.903 97.5224 349.664 101.038C351.293 104.289 353.876 106.58 357.724 107.11L344.604 156.855L328.516 154.779L315.901 107.061C317.673 106.629 319.536 105.3 321.24 103.114C323.375 100.377 325.366 96.177 326.766 90.2294L326.933 89.5199L326.309 89.1438C319.424 84.9954 316.162 75.8755 314.707 66.617L314.636 66.1624L314.244 65.921C310.796 63.7966 309.678 61.1286 309.441 58.8457C309.198 56.5062 309.876 54.4985 310.148 53.815C310.148 53.8146 310.149 53.8149 310.148 53.815C310.151 53.8141 310.154 53.8121 310.16 53.8096C310.223 53.7851 310.366 53.7572 310.617 53.7781C311.12 53.8199 311.743 54.0288 312.229 54.2514L313.67 54.9118L313.646 53.327C313.594 49.9887 313.69 47.2356 313.749 45.52L313.752 45.4357C313.772 44.8469 313.79 44.3535 313.791 44.0112Z" fill="#005072"/>
<path fill-rule="evenodd" clip-rule="evenodd" d="M36 36.4521C36 36.4124 36.0001 36.3728 36.0004 36.3332V36.571C36.0001 36.5314 36 36.4917 36 36.4521ZM53.1214 19.3307C46.3378 19.3307 40.4757 23.2757 37.7041 28.9967H172.67C169.899 23.2757 164.037 19.3307 157.253 19.3307C156.109 19.3307 154.992 19.4428 153.911 19.6567C150.792 15.4378 145.782 12.702 140.133 12.702C135.761 12.702 131.772 14.3408 128.746 17.0376C125.948 7.20258 116.898 0 106.166 0C105.838 0 105.512 0.00672712 105.187 0.0200509C104.862 0.00672712 104.536 0 104.208 0C93.4763 0 84.4269 7.20162 81.6286 17.0357C78.603 14.34 74.6145 12.702 70.2434 12.702C64.5942 12.702 59.584 15.4379 56.4656 19.6571C55.384 19.443 54.2658 19.3307 53.1214 19.3307Z" fill="#B1E7F8"/>
<path fill-rule="evenodd" clip-rule="evenodd" d="M261.667 111.327H211.368C211.127 110.33 211 109.289 211 108.218C211 100.918 216.918 95 224.218 95C230.262 95 235.358 99.0557 236.933 104.594C238.637 103.076 240.884 102.153 243.345 102.153C246.527 102.153 249.348 103.694 251.104 106.07C251.713 105.949 252.343 105.886 252.987 105.886C256.806 105.886 260.106 108.107 261.667 111.327Z" fill="#B1E7F8"/>
<path fill-rule="evenodd" clip-rule="evenodd" d="M374.831 28.6035H442.253C442.575 27.267 442.746 25.8716 442.746 24.4363C442.746 14.6509 434.813 6.71826 425.028 6.71826C416.927 6.71826 410.097 12.154 407.984 19.5768C405.7 17.5422 402.69 16.3059 399.391 16.3059C395.126 16.3059 391.344 18.3713 388.99 21.5563C388.174 21.3947 387.33 21.31 386.467 21.31C381.347 21.31 376.923 24.2866 374.831 28.6035Z" fill="#B1E7F8"/>
<path fill-rule="evenodd" clip-rule="evenodd" d="M560.018 228.023L562.991 228.023L562.991 226.023L560.018 226.023L560.018 228.023ZM548.123 228.023L554.07 228.023L554.07 226.023L548.123 226.023L548.123 228.023ZM536.228 228.023L542.175 228.023L542.175 226.023L536.228 226.023L536.228 228.023ZM524.333 228.023L530.281 228.023L530.281 226.023L524.333 226.023L524.333 228.023ZM512.438 228.023L518.386 228.023L518.386 226.023L512.438 226.023L512.438 228.023ZM500.544 228.023L506.491 228.023L506.491 226.023L500.544 226.023L500.544 228.023ZM488.649 228.023L494.596 228.023L494.596 226.023L488.649 226.023L488.649 228.023ZM476.754 228.023L482.701 228.023L482.701 226.023L476.754 226.023L476.754 228.023ZM464.859 228.023L470.807 228.023L470.807 226.023L464.859 226.023L464.859 228.023ZM452.965 228.023L458.912 228.023L458.912 226.023L452.965 226.023L452.965 228.023ZM441.07 228.023L447.017 228.023L447.017 226.023L441.07 226.023L441.07 228.023ZM429.175 228.023L435.122 228.023L435.122 226.023L429.175 226.023L429.175 228.023ZM417.28 228.023L423.228 228.023L423.228 226.023L417.28 226.023L417.28 228.023ZM405.385 228.023L411.333 228.023L411.333 226.023L405.385 226.023L405.385 228.023ZM396.464 228.023L399.438 228.023L399.438 226.023L396.464 226.023L396.464 228.023Z" fill="#00B6ED"/>
<path fill-rule="evenodd" clip-rule="evenodd" d="M561.036 213.95L564.06 213.95L564.06 211.95L561.036 211.95L561.036 213.95ZM548.941 213.95L554.989 213.95L554.989 211.95L548.941 211.95L548.941 213.95ZM536.845 213.95L542.893 213.95L542.893 211.95L536.845 211.95L536.845 213.95ZM524.75 213.95L530.798 213.95L530.798 211.95L524.75 211.95L524.75 213.95ZM512.655 213.95L518.702 213.95L518.702 211.95L512.655 211.95L512.655 213.95ZM500.559 213.95L506.607 213.95L506.607 211.95L500.559 211.95L500.559 213.95ZM488.464 213.95L494.511 213.95L494.511 211.95L488.464 211.95L488.464 213.95ZM476.368 213.95L482.416 213.95L482.416 211.95L476.368 211.95L476.368 213.95ZM464.273 213.95L470.32 213.95L470.32 211.95L464.273 211.95L464.273 213.95ZM452.177 213.95L458.225 213.95L458.225 211.95L452.177 211.95L452.177 213.95ZM440.082 213.95L446.129 213.95L446.129 211.95L440.082 211.95L440.082 213.95ZM427.986 213.95L434.034 213.95L434.034 211.95L427.986 211.95L427.986 213.95ZM415.891 213.95L421.939 213.95L421.939 211.95L415.891 211.95L415.891 213.95ZM403.795 213.95L409.843 213.95L409.843 211.95L403.795 211.95L403.795 213.95ZM391.7 213.95L397.748 213.95L397.748 211.95L391.7 211.95L391.7 213.95ZM382.628 213.95L385.652 213.95L385.652 211.95L382.628 211.95L382.628 213.95Z" fill="#00B6ED"/>
<path fill-rule="evenodd" clip-rule="evenodd" d="M569.59 181.576L572.614 181.576L572.614 179.576L569.59 179.576L569.59 181.576ZM557.495 181.576L563.543 181.576L563.543 179.576L557.495 179.576L557.495 181.576ZM545.399 181.576L551.447 181.576L551.447 179.576L545.399 179.576L545.399 181.576ZM533.304 181.576L539.352 181.576L539.352 179.576L533.304 179.576L533.304 181.576ZM521.209 181.576L527.256 181.576L527.256 179.576L521.209 179.576L521.209 181.576ZM509.113 181.576L515.161 181.576L515.161 179.576L509.113 179.576L509.113 181.576ZM497.018 181.576L503.065 181.576L503.065 179.576L497.018 179.576L497.018 181.576ZM484.922 181.576L490.97 181.576L490.97 179.576L484.922 179.576L484.922 181.576ZM472.827 181.576L478.874 181.576L478.874 179.576L472.827 179.576L472.827 181.576ZM460.731 181.576L466.779 181.576L466.779 179.576L460.731 179.576L460.731 181.576ZM448.636 181.576L454.683 181.576L454.683 179.576L448.636 179.576L448.636 181.576ZM436.54 181.576L442.588 181.576L442.588 179.576L436.54 179.576L436.54 181.576ZM424.445 181.576L430.492 181.576L430.492 179.576L424.445 179.576L424.445 181.576ZM412.349 181.576L418.397 181.576L418.397 179.576L412.349 179.576L412.349 181.576ZM400.254 181.576L406.302 181.576L406.302 179.576L400.254 179.576L400.254 181.576ZM391.182 181.576L394.206 181.576L394.206 179.576L391.182 179.576L391.182 181.576Z" fill="#00B6ED"/>
<path fill-rule="evenodd" clip-rule="evenodd" d="M566.383 198.465L569.407 198.465L569.407 196.465L566.383 196.465L566.383 198.465ZM554.287 198.465L560.335 198.465L560.335 196.465L554.287 196.465L554.287 198.465ZM542.192 198.465L548.24 198.465L548.24 196.465L542.192 196.465L542.192 198.465ZM530.096 198.465L536.144 198.465L536.144 196.465L530.096 196.465L530.096 198.465ZM518.001 198.465L524.049 198.465L524.049 196.465L518.001 196.465L518.001 198.465ZM505.906 198.465L511.953 198.465L511.953 196.465L505.906 196.465L505.906 198.465ZM493.81 198.465L499.858 198.465L499.858 196.465L493.81 196.465L493.81 198.465ZM481.715 198.465L487.762 198.465L487.762 196.465L481.715 196.465L481.715 198.465ZM469.619 198.465L475.667 198.465L475.667 196.465L469.619 196.465L469.619 198.465ZM457.524 198.465L463.571 198.465L463.571 196.465L457.524 196.465L457.524 198.465ZM445.428 198.465L451.476 198.465L451.476 196.465L445.428 196.465L445.428 198.465ZM433.333 198.465L439.38 198.465L439.38 196.465L433.333 196.465L433.333 198.465ZM421.237 198.465L427.285 198.465L427.285 196.465L421.237 196.465L421.237 198.465ZM409.142 198.465L415.19 198.465L415.19 196.465L409.142 196.465L409.142 198.465ZM397.046 198.465L403.094 198.465L403.094 196.465L397.046 196.465L397.046 198.465ZM387.975 198.465L390.999 198.465L390.999 196.465L387.975 196.465L387.975 198.465Z" fill="#00B6ED"/>
<path fill-rule="evenodd" clip-rule="evenodd" d="M583.507 164.217L586.515 164.217L586.515 162.217L583.507 162.217L583.507 164.217ZM571.478 164.217L577.493 164.217L577.493 162.217L571.478 162.217L571.478 164.217ZM559.449 164.217L565.464 164.217L565.464 162.217L559.449 162.217L559.449 164.217ZM547.42 164.217L553.435 164.217L553.435 162.217L547.42 162.217L547.42 164.217ZM535.391 164.217L541.406 164.217L541.406 162.217L535.391 162.217L535.391 164.217ZM523.362 164.217L529.377 164.217L529.377 162.217L523.362 162.217L523.362 164.217ZM511.334 164.217L517.348 164.217L517.348 162.217L511.334 162.217L511.334 164.217ZM499.305 164.217L505.319 164.217L505.319 162.217L499.305 162.217L499.305 164.217ZM487.276 164.217L493.29 164.217L493.29 162.217L487.276 162.217L487.276 164.217ZM475.247 164.217L481.261 164.217L481.261 162.217L475.247 162.217L475.247 164.217ZM463.218 164.217L469.232 164.217L469.232 162.217L463.218 162.217L463.218 164.217ZM451.189 164.217L457.203 164.217L457.203 162.217L451.189 162.217L451.189 164.217ZM439.16 164.217L445.174 164.217L445.174 162.217L439.16 162.217L439.16 164.217ZM427.131 164.217L433.145 164.217L433.145 162.217L427.131 162.217L427.131 164.217ZM415.102 164.217L421.116 164.217L421.116 162.217L415.102 162.217L415.102 164.217ZM403.073 164.217L409.087 164.217L409.087 162.217L403.073 162.217L403.073 164.217ZM394.051 164.217L397.058 164.217L397.058 162.217L394.051 162.217L394.051 164.217Z" fill="#00B6ED"/>
<path fill-rule="evenodd" clip-rule="evenodd" d="M594.2 150.317L597.207 150.317L597.207 148.317L594.2 148.317L594.2 150.317ZM582.171 150.317L588.185 150.317L588.185 148.317L582.171 148.317L582.171 150.317ZM570.142 150.317L576.156 150.317L576.156 148.317L570.142 148.317L570.142 150.317ZM558.113 150.317L564.127 150.317L564.127 148.317L558.113 148.317L558.113 150.317ZM546.084 150.317L552.098 150.317L552.098 148.317L546.084 148.317L546.084 150.317ZM534.055 150.317L540.069 150.317L540.069 148.317L534.055 148.317L534.055 150.317ZM522.026 150.317L528.04 150.317L528.04 148.317L522.026 148.317L522.026 150.317ZM509.997 150.317L516.011 150.317L516.011 148.317L509.997 148.317L509.997 150.317ZM497.968 150.317L503.982 150.317L503.982 148.317L497.968 148.317L497.968 150.317ZM485.939 150.317L491.953 150.317L491.953 148.317L485.939 148.317L485.939 150.317ZM473.91 150.317L479.924 150.317L479.924 148.317L473.91 148.317L473.91 150.317ZM461.881 150.317L467.895 150.317L467.895 148.317L461.881 148.317L461.881 150.317ZM449.852 150.317L455.867 150.317L455.867 148.317L449.852 148.317L449.852 150.317ZM437.823 150.317L443.838 150.317L443.838 148.317L437.823 148.317L437.823 150.317ZM425.794 150.317L431.809 150.317L431.809 148.317L425.794 148.317L425.794 150.317ZM413.765 150.317L419.78 150.317L419.78 148.317L413.765 148.317L413.765 150.317ZM404.743 150.317L407.751 150.317L407.751 148.317L404.743 148.317L404.743 150.317Z" fill="#00B6ED"/>
<path fill-rule="evenodd" clip-rule="evenodd" d="M579.231 118.24L582.238 118.24L582.238 116.24L579.231 116.24L579.231 118.24ZM567.202 118.24L573.216 118.24L573.216 116.24L567.202 116.24L567.202 118.24ZM555.173 118.24L561.187 118.24L561.187 116.24L555.173 116.24L555.173 118.24ZM543.144 118.24L549.158 118.24L549.158 116.24L543.144 116.24L543.144 118.24ZM531.115 118.24L537.129 118.24L537.129 116.24L531.115 116.24L531.115 118.24ZM519.086 118.24L525.1 118.24L525.1 116.24L519.086 116.24L519.086 118.24ZM507.057 118.24L513.071 118.24L513.071 116.24L507.057 116.24L507.057 118.24ZM495.028 118.24L501.042 118.24L501.042 116.24L495.028 116.24L495.028 118.24ZM482.999 118.24L489.013 118.24L489.013 116.24L482.999 116.24L482.999 118.24ZM470.97 118.24L476.984 118.24L476.984 116.24L470.97 116.24L470.97 118.24ZM458.941 118.24L464.955 118.24L464.955 116.24L458.941 116.24L458.941 118.24ZM446.912 118.24L452.926 118.24L452.926 116.24L446.912 116.24L446.912 118.24ZM434.883 118.24L440.897 118.24L440.897 116.24L434.883 116.24L434.883 118.24ZM422.854 118.24L428.868 118.24L428.868 116.24L422.854 116.24L422.854 118.24ZM410.825 118.24L416.839 118.24L416.839 116.24L410.825 116.24L410.825 118.24ZM398.796 118.24L404.81 118.24L404.81 116.24L398.796 116.24L398.796 118.24ZM389.774 118.24L392.781 118.24L392.781 116.24L389.774 116.24L389.774 118.24Z" fill="#00B6ED"/>
<path fill-rule="evenodd" clip-rule="evenodd" d="M603.823 133.209L606.83 133.209L606.83 131.209L603.823 131.209L603.823 133.209ZM591.794 133.209L597.809 133.209L597.809 131.209L591.794 131.209L591.794 133.209ZM579.765 133.209L585.78 133.209L585.78 131.209L579.765 131.209L579.765 133.209ZM567.736 133.209L573.751 133.209L573.751 131.209L567.736 131.209L567.736 133.209ZM555.707 133.209L561.722 133.209L561.722 131.209L555.707 131.209L555.707 133.209ZM543.678 133.209L549.693 133.209L549.693 131.209L543.678 131.209L543.678 133.209ZM531.649 133.209L537.664 133.209L537.664 131.209L531.649 131.209L531.649 133.209ZM519.62 133.209L525.635 133.209L525.635 131.209L519.62 131.209L519.62 133.209ZM507.591 133.209L513.606 133.209L513.606 131.209L507.591 131.209L507.591 133.209ZM495.562 133.209L501.577 133.209L501.577 131.209L495.562 131.209L495.562 133.209ZM483.533 133.209L489.548 133.209L489.548 131.209L483.533 131.209L483.533 133.209ZM471.504 133.209L477.519 133.209L477.519 131.209L471.504 131.209L471.504 133.209ZM459.475 133.209L465.49 133.209L465.49 131.209L459.475 131.209L459.475 133.209ZM447.446 133.209L453.461 133.209L453.461 131.209L447.446 131.209L447.446 133.209ZM435.417 133.209L441.432 133.209L441.432 131.209L435.417 131.209L435.417 133.209ZM423.388 133.209L429.403 133.209L429.403 131.209L423.388 131.209L423.388 133.209ZM414.367 133.209L417.374 133.209L417.374 131.209L414.367 131.209L414.367 133.209Z" fill="#00B6ED"/>
<path d="M178 44.6553H184V144.655H178V44.6553Z" fill="white"/>
<path fill-rule="evenodd" clip-rule="evenodd" d="M182 46.6553H180V142.655H182V46.6553ZM178 44.6553V144.655H184V44.6553H178Z" fill="#005072"/>
<path d="M216.939 195.388C231.191 220.122 268.671 212.852 272.641 184.583L275 167.789H252.105L251.005 173.636C249.441 181.943 238.917 184.684 233.5 178.195L191.889 128.345C190.54 127.275 190.877 123.113 190.454 119.043C190.031 114.974 185.339 114.71 183.046 115.087L175.5 110L174.597 128.466C174.506 130.318 175.448 132.069 177.045 133.013L183.046 136.564L216.939 195.388Z" fill="white"/>
<path fill-rule="evenodd" clip-rule="evenodd" d="M174.588 108.179L183.286 114.043C184.526 113.893 186.237 113.915 187.781 114.453C189.555 115.072 191.187 116.421 191.449 118.94C191.557 119.985 191.617 121.031 191.666 122.013C191.675 122.189 191.683 122.363 191.692 122.534C191.73 123.326 191.766 124.062 191.821 124.738C191.888 125.563 191.98 126.236 192.12 126.749C192.266 127.285 192.425 127.493 192.51 127.561L192.591 127.625L234.268 177.554C239.143 183.394 248.615 180.927 250.022 173.451L251.276 166.789H276.15L273.632 184.722C269.529 213.933 230.799 221.446 216.073 195.887L182.311 137.291L176.535 133.874C174.62 132.741 173.489 130.64 173.598 128.417L174.588 108.179ZM176.412 111.821L175.596 128.515C175.523 129.997 176.277 131.397 177.554 132.153L183.781 135.838L217.806 194.889C231.582 218.799 267.813 211.771 271.651 184.444L273.85 168.789H252.935L251.988 173.821C250.268 182.958 238.691 185.973 232.733 178.836L191.178 129.053C190.647 128.587 190.364 127.913 190.19 127.275C190.001 126.58 189.898 125.758 189.828 124.9C189.77 124.189 189.732 123.412 189.693 122.619C189.685 122.451 189.677 122.282 189.668 122.113C189.62 121.136 189.562 120.136 189.459 119.147C189.298 117.596 188.372 116.778 187.122 116.342C185.815 115.886 184.249 115.902 183.208 116.073L182.816 116.138L176.412 111.821Z" fill="#005072"/>
<path fill-rule="evenodd" clip-rule="evenodd" d="M316.34 45.0619L313.507 54.4761L312.578 53.8745C310.617 48.7035 309.839 43.1585 310.304 37.6475L311.043 28.8766C311.184 27.1984 312.161 25.7042 313.641 24.9013L317.442 22.8395C329.693 16.194 344.521 16.4049 356.578 23.3963L359.016 24.8096C360.496 25.6679 361.435 27.2234 361.504 28.933L361.877 38.1531C362.11 43.9179 361.51 49.6863 360.096 55.28L359.722 56.7613L355.17 38.7534C354.911 37.7287 353.9 37.0824 352.861 37.2781L340.515 39.6042C335.421 44.8301 325.764 49.4243 316.34 45.0619Z" fill="#0081A2"/>
<path fill-rule="evenodd" clip-rule="evenodd" d="M356.077 24.2614C344.321 17.4448 329.864 17.2391 317.919 23.7185L314.118 25.7803C312.934 26.4226 312.152 27.618 312.039 28.9605L311.3 37.7314C310.883 42.6856 311.497 47.668 313.098 52.3655L315.715 43.6704L316.76 44.1544C325.654 48.2713 334.871 43.9621 339.799 38.9063L340.019 38.68L352.676 36.2954C354.234 36.0018 355.751 36.9713 356.14 38.5084L359.694 52.5697C360.674 47.8472 361.073 43.0191 360.877 38.1935L360.505 28.9735C360.449 27.6058 359.698 26.3613 358.514 25.6747L356.077 24.2614ZM316.965 21.9605C329.523 15.1488 344.721 15.365 357.08 22.5312L359.517 23.9445C361.294 24.9744 362.42 26.8411 362.503 28.8926L362.876 38.1127C363.113 43.9736 362.503 49.8381 361.066 55.525L360.691 57.0064H358.752L354.201 38.9985C354.071 38.4861 353.566 38.163 353.046 38.2608L341.006 40.5292C335.879 45.6434 326.442 50.1767 316.975 46.4225L314.081 56.0394L311.759 54.5356L311.643 54.2292C309.629 48.9184 308.83 43.2235 309.307 37.5635L310.046 28.7926C310.216 26.7789 311.388 24.9858 313.164 24.0222L316.965 21.9605Z" fill="#004070"/>
<path d="M412.343 241.389C419.794 193.282 418.313 176.855 416.642 174.655H396.409C400.707 195.189 404.941 215.233 399.448 241.389H412.343Z" fill="white"/>
<path fill-rule="evenodd" clip-rule="evenodd" d="M395.178 173.655H417.138L417.438 174.05C417.775 174.494 418.02 175.157 418.214 175.942C418.415 176.757 418.587 177.818 418.718 179.147C418.982 181.807 419.09 185.618 418.913 190.841C418.559 201.29 417.06 217.466 413.332 241.542L413.2 242.389H398.216L398.469 241.183C403.9 215.321 399.75 195.497 395.464 175.023C395.453 174.969 395.441 174.914 395.43 174.86L395.178 173.655ZM397.64 175.655C401.784 195.465 405.733 215.108 400.674 240.389H411.486C415.112 216.826 416.568 200.992 416.914 190.773C417.089 185.601 416.98 181.886 416.728 179.344C416.602 178.072 416.443 177.113 416.272 176.421C416.19 176.088 416.11 175.838 416.04 175.655H397.64Z" fill="#005072"/>
<path d="M422 176.192C414.435 128.299 372.511 107.212 352.495 102.655L335.473 149.794L319.397 102.655C273.249 107.181 252.571 150.423 248 171.478H272.587V239.5H394.103V176.192H422Z" fill="white"/>
<path fill-rule="evenodd" clip-rule="evenodd" d="M351.854 101.484L335.5 146.775L320.087 101.583L319.299 101.66C295.903 103.954 278.97 116.071 267.334 130.233C255.712 144.379 249.337 160.603 247.023 171.266L246.76 172.478H271.587V240.5H395.103V177.192H423.17L422.988 176.036C415.332 127.572 372.936 106.283 352.716 101.68L351.854 101.484ZM318.707 103.732L335.446 152.813L353.132 103.833C373.093 108.701 412.975 129.353 420.822 175.192H393.103V238.5H273.587V170.478H249.253C251.717 160.086 257.918 144.844 268.879 131.503C280.13 117.809 296.362 106.154 318.707 103.732Z" fill="#005072"/>
<path d="M133 21.6553H231V85.6553H133V21.6553Z" fill="white"/>
<path fill-rule="evenodd" clip-rule="evenodd" d="M229 23.6553H135V83.6553H229V23.6553ZM133 21.6553V85.6553H231V21.6553H133Z" fill="#005072"/>
<path d="M279 91.5C279 95.6421 275.642 99 271.5 99C267.358 99 264 95.6421 264 91.5C264 87.3579 267.358 84 271.5 84C275.642 84 279 87.3579 279 91.5Z" fill="white"/>
<path fill-rule="evenodd" clip-rule="evenodd" d="M271.5 97.5C274.814 97.5 277.5 94.8137 277.5 91.5C277.5 88.1863 274.814 85.5 271.5 85.5C268.186 85.5 265.5 88.1863 265.5 91.5C265.5 94.8137 268.186 97.5 271.5 97.5ZM271.5 99C275.642 99 279 95.6421 279 91.5C279 87.3579 275.642 84 271.5 84C267.358 84 264 87.3579 264 91.5C264 95.6421 267.358 99 271.5 99Z" fill="#005072"/>
<path fill-rule="evenodd" clip-rule="evenodd" d="M271.679 86.8208C272.093 86.8208 272.429 87.1566 272.429 87.5708V95.0335C272.429 95.4477 272.093 95.7835 271.679 95.7835C271.264 95.7835 270.929 95.4477 270.929 95.0335V87.5708C270.929 87.1566 271.264 86.8208 271.679 86.8208Z" fill="#005072"/>
<path fill-rule="evenodd" clip-rule="evenodd" d="M276.16 91.3022C276.16 91.7165 275.824 92.0522 275.41 92.0522L267.947 92.0522C267.533 92.0522 267.197 91.7165 267.197 91.3022C267.197 90.888 267.533 90.5522 267.947 90.5522L275.41 90.5522C275.824 90.5522 276.16 90.888 276.16 91.3022Z" fill="#005072"/>
<path d="M181.821 192.91C181.821 197.831 177.831 201.821 172.91 201.821C167.989 201.821 164 197.831 164 192.91C164 187.989 167.989 184 172.91 184C177.831 184 181.821 187.989 181.821 192.91Z" fill="white"/>
<path fill-rule="evenodd" clip-rule="evenodd" d="M172.91 200.321C177.003 200.321 180.321 197.003 180.321 192.91C180.321 188.818 177.003 185.5 172.91 185.5C168.818 185.5 165.5 188.818 165.5 192.91C165.5 197.003 168.818 200.321 172.91 200.321ZM172.91 201.821C177.831 201.821 181.821 197.831 181.821 192.91C181.821 187.989 177.831 184 172.91 184C167.989 184 164 187.989 164 192.91C164 197.831 167.989 201.821 172.91 201.821Z" fill="#005072"/>
<path fill-rule="evenodd" clip-rule="evenodd" d="M173.123 187.492C173.537 187.492 173.873 187.828 173.873 188.242V197.108C173.873 197.522 173.537 197.858 173.123 197.858C172.709 197.858 172.373 197.522 172.373 197.108V188.242C172.373 187.828 172.709 187.492 173.123 187.492Z" fill="#005072"/>
<path fill-rule="evenodd" clip-rule="evenodd" d="M178.306 192.675C178.306 193.09 177.97 193.425 177.556 193.425L168.69 193.425C168.276 193.425 167.94 193.09 167.94 192.675C167.94 192.261 168.276 191.925 168.69 191.925L177.556 191.925C177.97 191.925 178.306 192.261 178.306 192.675Z" fill="#005072"/>
<path fill-rule="evenodd" clip-rule="evenodd" d="M393.945 123.789C379.518 111.168 363.232 104.374 352.802 102L335.512 149.881L319.182 102C298.876 103.991 283.424 113.363 272.055 125.086V241H393.945V123.789Z" fill="#005072"/>
<path fill-rule="evenodd" clip-rule="evenodd" d="M352.161 100.829L353.023 101.025C363.602 103.433 380.042 110.297 394.603 123.036L394.945 123.335V242H271.055V124.681L271.337 124.39C282.841 112.528 298.503 103.023 319.085 101.005L319.873 100.927L335.539 146.862L352.161 100.829ZM273.055 125.493V240H392.945V124.244C379.131 112.272 363.661 105.669 353.439 103.178L335.485 152.9L318.493 103.076C299.015 105.185 284.114 114.196 273.055 125.493Z" fill="#004070"/>
<path d="M465.57 224.794C494.112 224.794 502.619 235.776 507 245H0C21.2815 228.858 83.0739 193.179 134.83 215.573C220.094 252.467 280.791 199.433 335.246 197.127C389.702 194.82 429.892 224.794 465.57 224.794Z" fill="#40CE97"/>
<path fill-rule="evenodd" clip-rule="evenodd" d="M163.899 42.25H192.642V61.2635H163.899V42.25ZM165.399 43.75V59.7635H191.142V43.75H165.399Z" fill="#005072"/>
<path fill-rule="evenodd" clip-rule="evenodd" d="M181.864 50.2472C182.161 49.9577 182.636 49.9633 182.925 50.2596L192.428 59.9894C192.718 60.2857 192.712 60.7605 192.416 61.05C192.12 61.3394 191.645 61.3338 191.355 61.0375L181.852 51.3077C181.563 51.0114 181.568 50.5366 181.864 50.2472ZM175.002 50.2558C175.293 50.5501 175.291 51.0249 174.997 51.3165L165.177 61.0462C164.882 61.3377 164.407 61.3355 164.116 61.0413C163.824 60.747 163.827 60.2722 164.121 59.9806L173.941 50.2509C174.235 49.9594 174.71 49.9616 175.002 50.2558Z" fill="#005072"/>
<path d="M173.972 52.8306L165.737 44.7121C165.1 44.0843 165.544 43 166.439 43H190.102C190.996 43 191.441 44.0843 190.804 44.7121L182.569 52.8306L178.989 56.5282C178.596 56.9341 177.945 56.9341 177.552 56.5282L173.972 52.8306Z" fill="white"/>
<path fill-rule="evenodd" clip-rule="evenodd" d="M166.439 43.75C166.215 43.75 166.104 44.0211 166.263 44.178L174.505 52.3027L178.091 56.0065C178.189 56.108 178.352 56.108 178.45 56.0065L182.036 52.3027L190.277 44.178C190.436 44.0211 190.325 43.75 190.102 43.75H166.439ZM165.21 45.2462C164.096 44.1475 164.874 42.25 166.439 42.25H190.102C191.667 42.25 192.445 44.1475 191.33 45.2462L183.101 53.3586L179.528 57.0499C178.84 57.7602 177.701 57.7602 177.013 57.0499L173.439 53.3586L165.21 45.2462Z" fill="#005072"/>
<path d="M199.757 63.4323C199.757 67.0595 196.816 69.9999 193.189 69.9999C189.562 69.9999 186.622 67.0595 186.622 63.4323C186.622 59.8051 189.562 56.8647 193.189 56.8647C196.816 56.8647 199.757 59.8051 199.757 63.4323Z" fill="#40CE97"/>
<path fill-rule="evenodd" clip-rule="evenodd" d="M193.189 68.9999C196.264 68.9999 198.757 66.5072 198.757 63.4323C198.757 60.3574 196.264 57.8647 193.189 57.8647C190.114 57.8647 187.622 60.3574 187.622 63.4323C187.622 66.5072 190.114 68.9999 193.189 68.9999ZM193.189 69.9999C196.816 69.9999 199.757 67.0595 199.757 63.4323C199.757 59.8051 196.816 56.8647 193.189 56.8647C189.562 56.8647 186.622 59.8051 186.622 63.4323C186.622 67.0595 189.562 69.9999 193.189 69.9999Z" fill="#005072"/>
<path fill-rule="evenodd" clip-rule="evenodd" d="M193.346 59.4917C193.622 59.4917 193.846 59.7156 193.846 59.9917V66.5266C193.846 66.8027 193.622 67.0266 193.346 67.0266C193.07 67.0266 192.846 66.8027 192.846 66.5266V59.9917C192.846 59.7156 193.07 59.4917 193.346 59.4917Z" fill="#005072"/>
<path fill-rule="evenodd" clip-rule="evenodd" d="M197.113 63.2593C197.113 63.5354 196.889 63.7593 196.613 63.7593L190.078 63.7593C189.802 63.7593 189.578 63.5354 189.578 63.2593C189.578 62.9831 189.802 62.7593 190.078 62.7593L196.613 62.7593C196.889 62.7593 197.113 62.9831 197.113 63.2593Z" fill="#005072"/>
<path d="M468.51 205.255C468.51 211.471 463.471 216.51 457.255 216.51C451.039 216.51 446 211.471 446 205.255C446 199.039 451.039 194 457.255 194C463.471 194 468.51 199.039 468.51 205.255Z" fill="#40CE97"/>
<path fill-rule="evenodd" clip-rule="evenodd" d="M457.255 215.01C462.642 215.01 467.01 210.642 467.01 205.255C467.01 199.867 462.642 195.5 457.255 195.5C451.867 195.5 447.5 199.867 447.5 205.255C447.5 210.642 451.867 215.01 457.255 215.01ZM457.255 216.51C463.471 216.51 468.51 211.471 468.51 205.255C468.51 199.039 463.471 194 457.255 194C451.039 194 446 199.039 446 205.255C446 211.471 451.039 216.51 457.255 216.51Z" fill="#005072"/>
<path fill-rule="evenodd" clip-rule="evenodd" d="M457.524 198.608C457.938 198.608 458.274 198.944 458.274 199.358V210.557C458.274 210.971 457.938 211.307 457.524 211.307C457.109 211.307 456.774 210.971 456.774 210.557V199.358C456.774 198.944 457.109 198.608 457.524 198.608Z" fill="#005072"/>
<path fill-rule="evenodd" clip-rule="evenodd" d="M463.873 204.958C463.873 205.372 463.537 205.708 463.123 205.708L451.924 205.708C451.51 205.708 451.174 205.372 451.174 204.958C451.174 204.544 451.51 204.208 451.924 204.208L463.123 204.208C463.537 204.208 463.873 204.544 463.873 204.958Z" fill="#005072"/>
</svg>
