<svg width="249" height="133" viewBox="0 0 249 133" fill="none" xmlns="http://www.w3.org/2000/svg">
<path fill-rule="evenodd" clip-rule="evenodd" d="M246.036 -1.14046e-08L249 0L249 2L246.036 2L246.036 -1.14046e-08ZM234.179 6.21865e-08L240.107 2.53909e-08L240.107 2L234.179 2L234.179 6.21865e-08ZM222.321 7.61728e-08L228.25 3.93773e-08L228.25 2L222.321 2L222.321 7.61728e-08ZM210.464 1.49764e-07L216.393 1.12968e-07L216.393 2L210.464 2L210.464 1.49764e-07ZM198.607 1.6375e-07L204.536 1.26955e-07L204.536 2L198.607 2L198.607 1.6375e-07ZM186.75 1.77737e-07L192.679 2.00546e-07L192.679 2L186.75 2L186.75 1.77737e-07ZM174.893 2.51327e-07L180.821 2.14532e-07L180.821 2L174.893 2L174.893 2.51327e-07ZM163.036 2.65314e-07L168.964 2.88123e-07L168.964 2L163.036 2L163.036 2.65314e-07ZM151.179 3.38905e-07L157.107 3.02109e-07L157.107 2L151.179 2L151.179 3.38905e-07ZM139.321 3.52891e-07L145.25 3.16096e-07L145.25 2L139.321 2L139.321 3.52891e-07ZM127.464 3.66877e-07L133.393 3.89687e-07L133.393 2L127.464 2L127.464 3.66877e-07ZM115.607 4.40469e-07L121.536 4.03673e-07L121.536 2L115.607 2L115.607 4.40469e-07ZM103.75 4.54456e-07L109.679 4.77265e-07L109.679 2L103.75 2L103.75 4.54456e-07ZM91.8929 5.28047e-07L97.8215 4.91252e-07L97.8215 2L91.8929 2L91.8929 5.28047e-07ZM80.0358 5.42034e-07L85.9643 5.05239e-07L85.9643 2L80.0358 2L80.0358 5.42034e-07ZM68.1786 5.56021e-07L74.1072 5.7883e-07L74.1072 2L68.1786 2L68.1786 5.56021e-07ZM56.3215 6.29613e-07L62.2501 5.92817e-07L62.2501 2L56.3215 2L56.3215 6.29613e-07ZM44.4644 6.43599e-07L50.3929 6.66409e-07L50.3929 2L44.4644 2L44.4644 6.43599e-07ZM32.6072 7.17192e-07L38.5358 6.80396e-07L38.5358 2L32.6072 2L32.6072 7.17192e-07ZM20.7501 7.31179e-07L26.6787 6.94383e-07L26.6787 2L20.7501 2L20.7501 7.31179e-07ZM8.89299 8.0477e-07L14.8216 7.67974e-07L14.8216 2L8.89299 2L8.89299 8.0477e-07ZM1.11827e-06 8.30155e-07L2.96443 7.81961e-07L2.96443 2L1.03155e-06 2L1.11827e-06 8.30155e-07Z" fill="#0081A2"/>
<path fill-rule="evenodd" clip-rule="evenodd" d="M246.036 17L249 17L249 19L246.036 19L246.036 17ZM234.179 17L240.107 17L240.107 19L234.179 19L234.179 17ZM222.321 17L228.25 17L228.25 19L222.321 19L222.321 17ZM210.464 17L216.393 17L216.393 19L210.464 19L210.464 17ZM198.607 17L204.536 17L204.536 19L198.607 19L198.607 17ZM186.75 17L192.679 17L192.679 19L186.75 19L186.75 17ZM174.893 17L180.821 17L180.821 19L174.893 19L174.893 17ZM163.036 17L168.964 17L168.964 19L163.036 19L163.036 17ZM151.179 17L157.107 17L157.107 19L151.179 19L151.179 17ZM139.321 17L145.25 17L145.25 19L139.321 19L139.321 17ZM127.464 17L133.393 17L133.393 19L127.464 19L127.464 17ZM115.607 17L121.536 17L121.536 19L115.607 19L115.607 17ZM103.75 17L109.679 17L109.679 19L103.75 19L103.75 17ZM91.8929 17L97.8214 17L97.8214 19L91.8929 19L91.8929 17ZM80.0358 17L85.9643 17L85.9643 19L80.0358 19L80.0358 17ZM68.1786 17L74.1072 17L74.1072 19L68.1786 19L68.1786 17ZM56.3215 17L62.2501 17L62.2501 19L56.3215 19L56.3215 17ZM44.4644 17L50.3929 17L50.3929 19L44.4644 19L44.4644 17ZM32.6072 17L38.5358 17L38.5358 19L32.6072 19L32.6072 17ZM20.7501 17L26.6787 17L26.6787 19L20.7501 19L20.7501 17ZM8.89296 17L14.8215 17L14.8215 19L8.89296 19L8.89296 17ZM1.29472e-06 17L2.9644 17L2.9644 19L1.208e-06 19L1.29472e-06 17Z" fill="#0081A2"/>
<path fill-rule="evenodd" clip-rule="evenodd" d="M246.036 56L249 56L249 58L246.036 58L246.036 56ZM234.179 56L240.107 56L240.107 58L234.179 58L234.179 56ZM222.321 56L228.25 56L228.25 58L222.321 58L222.321 56ZM210.464 56L216.393 56L216.393 58L210.464 58L210.464 56ZM198.607 56L204.536 56L204.536 58L198.607 58L198.607 56ZM186.75 56L192.679 56L192.679 58L186.75 58L186.75 56ZM174.893 56L180.821 56L180.821 58L174.893 58L174.893 56ZM163.036 56L168.964 56L168.964 58L163.036 58L163.036 56ZM151.179 56L157.107 56L157.107 58L151.179 58L151.179 56ZM139.321 56L145.25 56L145.25 58L139.321 58L139.321 56ZM127.464 56L133.393 56L133.393 58L127.464 58L127.464 56ZM115.607 56L121.536 56L121.536 58L115.607 58L115.607 56ZM103.75 56L109.679 56L109.679 58L103.75 58L103.75 56ZM91.8929 56L97.8214 56L97.8214 58L91.8929 58L91.8929 56ZM80.0358 56L85.9643 56L85.9643 58L80.0358 58L80.0358 56ZM68.1786 56L74.1072 56L74.1072 58L68.1786 58L68.1786 56ZM56.3215 56L62.2501 56L62.2501 58L56.3215 58L56.3215 56ZM44.4644 56L50.3929 56L50.3929 58L44.4644 58L44.4644 56ZM32.6072 56L38.5358 56L38.5358 58L32.6072 58L32.6072 56ZM20.7501 56L26.6787 56L26.6787 58L20.7501 58L20.7501 56ZM8.89296 56L14.8215 56L14.8215 58L8.89296 58L8.89296 56ZM1.29472e-06 56L2.9644 56L2.9644 58L1.208e-06 58L1.29472e-06 56Z" fill="#0081A2"/>
<path fill-rule="evenodd" clip-rule="evenodd" d="M246.036 35L249 35L249 37L246.036 37L246.036 35ZM234.179 35L240.107 35L240.107 37L234.179 37L234.179 35ZM222.321 35L228.25 35L228.25 37L222.321 37L222.321 35ZM210.464 35L216.393 35L216.393 37L210.464 37L210.464 35ZM198.607 35L204.536 35L204.536 37L198.607 37L198.607 35ZM186.75 35L192.679 35L192.679 37L186.75 37L186.75 35ZM174.893 35L180.821 35L180.821 37L174.893 37L174.893 35ZM163.036 35L168.964 35L168.964 37L163.036 37L163.036 35ZM151.179 35L157.107 35L157.107 37L151.179 37L151.179 35ZM139.321 35L145.25 35L145.25 37L139.321 37L139.321 35ZM127.464 35L133.393 35L133.393 37L127.464 37L127.464 35ZM115.607 35L121.536 35L121.536 37L115.607 37L115.607 35ZM103.75 35L109.679 35L109.679 37L103.75 37L103.75 35ZM91.8929 35L97.8214 35L97.8214 37L91.8929 37L91.8929 35ZM80.0358 35L85.9643 35L85.9643 37L80.0358 37L80.0358 35ZM68.1786 35L74.1072 35L74.1072 37L68.1786 37L68.1786 35ZM56.3215 35L62.2501 35L62.2501 37L56.3215 37L56.3215 35ZM44.4644 35L50.3929 35L50.3929 37L44.4644 37L44.4644 35ZM32.6072 35L38.5358 35L38.5358 37L32.6072 37L32.6072 35ZM20.7501 35L26.6787 35L26.6787 37L20.7501 37L20.7501 35ZM8.89296 35L14.8215 35L14.8215 37L8.89296 37L8.89296 35ZM1.29472e-06 35L2.9644 35L2.9644 37L1.208e-06 37L1.29472e-06 35Z" fill="#0081A2"/>
<path fill-rule="evenodd" clip-rule="evenodd" d="M246.036 76L249 76L249 78L246.036 78L246.036 76ZM234.179 76L240.107 76L240.107 78L234.179 78L234.179 76ZM222.321 76L228.25 76L228.25 78L222.321 78L222.321 76ZM210.464 76L216.393 76L216.393 78L210.464 78L210.464 76ZM198.607 76L204.536 76L204.536 78L198.607 78L198.607 76ZM186.75 76L192.679 76L192.679 78L186.75 78L186.75 76ZM174.893 76L180.821 76L180.821 78L174.893 78L174.893 76ZM163.036 76L168.964 76L168.964 78L163.036 78L163.036 76ZM151.179 76L157.107 76L157.107 78L151.179 78L151.179 76ZM139.321 76L145.25 76L145.25 78L139.321 78L139.321 76ZM127.464 76L133.393 76L133.393 78L127.464 78L127.464 76ZM115.607 76L121.536 76L121.536 78L115.607 78L115.607 76ZM103.75 76L109.679 76L109.679 78L103.75 78L103.75 76ZM91.8929 76L97.8214 76L97.8214 78L91.8929 78L91.8929 76ZM80.0358 76L85.9643 76L85.9643 78L80.0358 78L80.0358 76ZM68.1786 76L74.1072 76L74.1072 78L68.1786 78L68.1786 76ZM56.3215 76L62.2501 76L62.2501 78L56.3215 78L56.3215 76ZM44.4644 76L50.3929 76L50.3929 78L44.4644 78L44.4644 76ZM32.6072 76L38.5358 76L38.5358 78L32.6072 78L32.6072 76ZM20.7501 76L26.6787 76L26.6787 78L20.7501 78L20.7501 76ZM8.89296 76L14.8215 76L14.8215 78L8.89296 78L8.89296 76ZM1.29472e-06 76L2.9644 76L2.9644 78L1.208e-06 78L1.29472e-06 76Z" fill="#0081A2"/>
<path fill-rule="evenodd" clip-rule="evenodd" d="M246.036 93L249 93L249 95L246.036 95L246.036 93ZM234.179 93L240.107 93L240.107 95L234.179 95L234.179 93ZM222.321 93L228.25 93L228.25 95L222.321 95L222.321 93ZM210.464 93L216.393 93L216.393 95L210.464 95L210.464 93ZM198.607 93L204.536 93L204.536 95L198.607 95L198.607 93ZM186.75 93L192.679 93L192.679 95L186.75 95L186.75 93ZM174.893 93L180.821 93L180.821 95L174.893 95L174.893 93ZM163.036 93L168.964 93L168.964 95L163.036 95L163.036 93ZM151.179 93L157.107 93L157.107 95L151.179 95L151.179 93ZM139.321 93L145.25 93L145.25 95L139.321 95L139.321 93ZM127.464 93L133.393 93L133.393 95L127.464 95L127.464 93ZM115.607 93L121.536 93L121.536 95L115.607 95L115.607 93ZM103.75 93L109.679 93L109.679 95L103.75 95L103.75 93ZM91.8929 93L97.8214 93L97.8214 95L91.8929 95L91.8929 93ZM80.0358 93L85.9643 93L85.9643 95L80.0358 95L80.0358 93ZM68.1786 93L74.1072 93L74.1072 95L68.1786 95L68.1786 93ZM56.3215 93L62.2501 93L62.2501 95L56.3215 95L56.3215 93ZM44.4644 93L50.3929 93L50.3929 95L44.4644 95L44.4644 93ZM32.6072 93L38.5358 93L38.5358 95L32.6072 95L32.6072 93ZM20.7501 93L26.6787 93L26.6787 95L20.7501 95L20.7501 93ZM8.89296 93L14.8215 93L14.8215 95L8.89296 95L8.89296 93ZM1.29472e-06 93L2.9644 93L2.9644 95L1.208e-06 95L1.29472e-06 93Z" fill="#0081A2"/>
<path fill-rule="evenodd" clip-rule="evenodd" d="M246.036 131L249 131L249 133L246.036 133L246.036 131ZM234.179 131L240.107 131L240.107 133L234.179 133L234.179 131ZM222.321 131L228.25 131L228.25 133L222.321 133L222.321 131ZM210.464 131L216.393 131L216.393 133L210.464 133L210.464 131ZM198.607 131L204.536 131L204.536 133L198.607 133L198.607 131ZM186.75 131L192.679 131L192.679 133L186.75 133L186.75 131ZM174.893 131L180.821 131L180.821 133L174.893 133L174.893 131ZM163.036 131L168.964 131L168.964 133L163.036 133L163.036 131ZM151.179 131L157.107 131L157.107 133L151.179 133L151.179 131ZM139.321 131L145.25 131L145.25 133L139.321 133L139.321 131ZM127.464 131L133.393 131L133.393 133L127.464 133L127.464 131ZM115.607 131L121.536 131L121.536 133L115.607 133L115.607 131ZM103.75 131L109.679 131L109.679 133L103.75 133L103.75 131ZM91.8929 131L97.8214 131L97.8214 133L91.8929 133L91.8929 131ZM80.0358 131L85.9643 131L85.9643 133L80.0358 133L80.0358 131ZM68.1786 131L74.1072 131L74.1072 133L68.1786 133L68.1786 131ZM56.3215 131L62.2501 131L62.2501 133L56.3215 133L56.3215 131ZM44.4644 131L50.3929 131L50.3929 133L44.4644 133L44.4644 131ZM32.6072 131L38.5358 131L38.5358 133L32.6072 133L32.6072 131ZM20.7501 131L26.6787 131L26.6787 133L20.7501 133L20.7501 131ZM8.89296 131L14.8215 131L14.8215 133L8.89296 133L8.89296 131ZM1.29472e-06 131L2.9644 131L2.9644 133L1.208e-06 133L1.29472e-06 131Z" fill="#0081A2"/>
<path fill-rule="evenodd" clip-rule="evenodd" d="M246.036 113L249 113L249 115L246.036 115L246.036 113ZM234.179 113L240.107 113L240.107 115L234.179 115L234.179 113ZM222.321 113L228.25 113L228.25 115L222.321 115L222.321 113ZM210.464 113L216.393 113L216.393 115L210.464 115L210.464 113ZM198.607 113L204.536 113L204.536 115L198.607 115L198.607 113ZM186.75 113L192.679 113L192.679 115L186.75 115L186.75 113ZM174.893 113L180.821 113L180.821 115L174.893 115L174.893 113ZM163.036 113L168.964 113L168.964 115L163.036 115L163.036 113ZM151.179 113L157.107 113L157.107 115L151.179 115L151.179 113ZM139.321 113L145.25 113L145.25 115L139.321 115L139.321 113ZM127.464 113L133.393 113L133.393 115L127.464 115L127.464 113ZM115.607 113L121.536 113L121.536 115L115.607 115L115.607 113ZM103.75 113L109.679 113L109.679 115L103.75 115L103.75 113ZM91.8929 113L97.8214 113L97.8214 115L91.8929 115L91.8929 113ZM80.0358 113L85.9643 113L85.9643 115L80.0358 115L80.0358 113ZM68.1786 113L74.1072 113L74.1072 115L68.1786 115L68.1786 113ZM56.3215 113L62.2501 113L62.2501 115L56.3215 115L56.3215 113ZM44.4644 113L50.3929 113L50.3929 115L44.4644 115L44.4644 113ZM32.6072 113L38.5358 113L38.5358 115L32.6072 115L32.6072 113ZM20.7501 113L26.6787 113L26.6787 115L20.7501 115L20.7501 113ZM8.89296 113L14.8215 113L14.8215 115L8.89296 115L8.89296 113ZM1.29472e-06 113L2.9644 113L2.9644 115L1.208e-06 115L1.29472e-06 113Z" fill="#0081A2"/>
</svg>
