<svg width="112" height="127" viewBox="0 0 112 127" fill="none" xmlns="http://www.w3.org/2000/svg">
<path d="M39.2986 52.2673L39.2986 57.5036L34.3395 56.199C29.4741 54.919 24.2911 56.1633 20.5371 59.5126L19.3734 60.5508C16.6503 62.9804 14.2724 65.7711 12.3061 68.8455L7.91365 75.7129L4.08236 55.5899C1.99815 44.6431 10.3903 34.5024 21.5337 34.5024C31.345 34.5024 39.2986 42.456 39.2986 52.2673Z" fill="#00B6ED"/>
<path d="M75.5874 40.8467L75.5874 59.4205L62.9696 57.7199C61.9091 57.5769 60.8316 57.6243 59.7877 57.8597L48.616 60.3789L39.2986 57.5038L38.0455 42.4016C37.136 31.4413 45.7863 22.0436 56.7842 22.0436C67.1689 22.0436 75.5874 30.462 75.5874 40.8467Z" fill="#0081A2"/>
<path d="M91.9624 35.4603L92.484 35.4603C102.682 35.4603 110.481 44.5483 108.934 54.628L105.501 64.691L103.049 71.8789L91.9993 59.4453C88.976 56.0434 84.0371 55.1121 79.9825 57.1792L75.5874 59.4199L74.9996 54.6336C73.7484 44.4453 81.6975 35.4603 91.9624 35.4603Z" fill="#40CE97"/>
<path d="M65.222 13.4174C65.222 18.9385 60.8174 23.3347 55.4815 23.3347C50.1456 23.3347 45.741 18.9385 45.741 13.4174C45.741 7.89623 50.1456 3.5 55.4815 3.5C60.8174 3.5 65.222 7.89623 65.222 13.4174Z" fill="white" stroke="#005072" stroke-width="7"/>
<path d="M102.492 25.8764C102.492 31.2778 97.9877 35.7937 92.2607 35.7937C86.5337 35.7937 82.0298 31.2778 82.0298 25.8764C82.0298 20.4749 86.5337 15.959 92.2607 15.959C97.9877 15.959 102.492 20.4749 102.492 25.8764Z" fill="white" stroke="#005072" stroke-width="7"/>
<path d="M29.9138 25.8764C29.9138 31.2778 25.41 35.7937 19.6829 35.7937C13.9559 35.7937 9.45203 31.2778 9.45203 25.8764C9.45203 20.4749 13.9559 15.959 19.6829 15.959C25.41 15.959 29.9138 20.4749 29.9138 25.8764Z" fill="white" stroke="#005072" stroke-width="7"/>
<path d="M38.3909 65.2131L35.6355 63.7322C31.4451 61.4801 26.2483 62.4918 23.2088 66.1513L18.8044 71.454C15.2386 75.7471 15.877 82.1282 20.2225 85.6299L20.829 86.1186M38.3909 65.2131L20.829 86.1186M38.3909 65.2131L47.6245 68.0563M20.829 86.1186L29.9721 97.6584M47.6245 68.0563L39.9095 80.9123C39.0007 82.4265 39.1526 84.3506 40.2877 85.7035V85.7035C40.8773 86.4062 41.6836 86.8933 42.58 87.0881L42.7335 87.1215C44.5901 87.525 46.5037 86.7455 47.5499 85.1596L50.7386 80.326C52.0553 78.3301 54.3583 77.2143 56.7407 77.4181L58.4349 77.563C61.17 77.7969 63.7523 78.9238 65.7838 80.7701L85.1021 98.3274M47.6245 68.0563L60.1605 65.4315C60.8527 65.2865 61.561 65.234 62.267 65.2753L75.5064 66.0493M85.1021 98.3274L90.8957 84.9479M85.1021 98.3274L85.2248 98.4459C86.3769 99.5585 86.8295 101.211 86.4049 102.756V102.756C85.9435 104.434 84.5317 105.68 82.809 105.928L79.8516 106.355M90.8957 84.9479L95.9725 81.0858C98.2383 79.3622 98.6097 76.0972 96.7889 73.9086L87.9341 63.2654C86.3175 61.3223 83.505 60.8913 81.3807 62.2612L75.5064 66.0493M90.8957 84.9479L75.5064 66.0493M56.6771 121.156L59.9136 122.909C61.1867 123.598 62.7039 123.672 64.0378 123.109V123.109C65.3395 122.56 66.3309 121.463 66.7447 120.112L67.4496 117.811M67.4496 117.811L61.2034 111.54M67.4496 117.811V117.811C70.8872 118.7 74.239 116.105 74.239 112.554V111.54M74.239 111.54L63.9191 102.258M74.239 111.54L74.4923 111.604C77.6808 112.414 80.595 109.56 79.8516 106.355V106.355M79.8516 106.355L66.0917 92.5575" stroke="#005072" stroke-width="6" stroke-linecap="round"/>
<path d="M30.13 101.87L35.1004 97.2871" stroke="#005072" stroke-width="6" stroke-linecap="round"/>
<path d="M47.9404 120.2L53.7392 114.854" stroke="#005072" stroke-width="6" stroke-linecap="round"/>
<path d="M40.485 115.618L49.5973 107.217" stroke="#005072" stroke-width="6" stroke-linecap="round"/>
<path d="M34.6862 109.507L43.7985 101.105" stroke="#005072" stroke-width="6" stroke-linecap="round"/>
</svg>
