<svg width="123" height="129" viewBox="0 0 123 129" fill="none" xmlns="http://www.w3.org/2000/svg">
<path d="M11.7888 32H108.155V109.5C108.155 113.09 105.245 116 101.655 116H18.2888C14.699 116 11.7888 113.09 11.7888 109.5V32Z" stroke="#005072" stroke-width="7"/>
<mask id="path-2-inside-1_1227_15699" fill="white">
<rect x="22.4286" y="56" width="75.087" height="49" rx="5"/>
</mask>
<rect x="22.4286" y="56" width="75.087" height="49" rx="5" fill="#00B6ED" stroke="#00B6ED" stroke-width="14" mask="url(#path-2-inside-1_1227_15699)"/>
<path d="M9.26398 7C11.6043 1.8 13.1646 0 16.0901 0H32.1801L24.3789 29H0C2.11284 23.8333 6.9236 12.2 9.26398 7Z" fill="#0081A2"/>
<path d="M113.118 7C110.778 1.8 109.217 0 106.292 0H90.2018L98.003 29H122.382C120.269 23.8333 115.458 12.2 113.118 7Z" fill="#0081A2"/>
<path d="M48.7578 29L51.1957 0H70.6988L73.1367 29H48.7578Z" fill="#0081A2"/>
<path d="M90.2019 0H70.6988L73.1367 29H98.0031L90.2019 0Z" fill="#40CE97"/>
<path d="M32.1801 0H51.1956L48.7577 29H24.3788L32.1801 0Z" fill="#40CE97"/>
<path d="M0 36.8106V29H24.3789V36.8106C24.3789 43.5426 18.9215 49 12.1894 49C5.4574 49 0 43.5426 0 36.8106Z" fill="#0081A2"/>
<path d="M48.7578 37.3106V29H73.1367V37.3106C73.1367 44.0426 67.6793 49.5 60.9473 49.5C54.2152 49.5 48.7578 44.0426 48.7578 37.3106Z" fill="#0081A2"/>
<path d="M98.0031 36.8106V29H122.382V36.8106C122.382 43.5426 116.925 49 110.193 49C103.461 49 98.0031 43.5426 98.0031 36.8106Z" fill="#0081A2"/>
<path d="M24.3788 36.8106V29H48.7577V36.8106C48.7577 43.5426 43.3003 49 36.5682 49C29.8362 49 24.3788 43.5426 24.3788 36.8106Z" fill="#40CE97"/>
<path d="M73.1366 37.0668V29H98.003V37.0668C98.003 43.9335 92.4365 49.5 85.5698 49.5C78.7031 49.5 73.1366 43.9335 73.1366 37.0668Z" fill="#40CE97"/>
<path d="M52.1708 91V81C52.1708 79.3431 53.514 78 55.1708 78H63.7982C65.455 78 66.7982 79.3431 66.7982 81V91" stroke="#005072" stroke-width="7"/>
<path d="M44.2087 89H74.7602C75.7791 89 76.6351 89.7659 76.7479 90.7785L79.8314 118.446C80.1615 121.409 77.8428 124 74.8621 124H44.1068C41.1261 124 38.8074 121.409 39.1376 118.446L42.2211 90.7785C42.3339 89.7659 43.1899 89 44.2087 89Z" fill="#1EA9A1" stroke="#005072" stroke-width="7"/>
</svg>
