<svg width="123" height="128" viewBox="0 0 123 128" fill="none" xmlns="http://www.w3.org/2000/svg">
<path fill-rule="evenodd" clip-rule="evenodd" d="M104.655 35.5H15.2888V109.5C15.2888 111.157 16.632 112.5 18.2888 112.5H101.655C103.312 112.5 104.655 111.157 104.655 109.5V35.5ZM8.28882 28.5V109.5C8.28882 115.023 12.766 119.5 18.2888 119.5H101.655C107.178 119.5 111.655 115.023 111.655 109.5V28.5H8.28882Z" fill="#005072"/>
<path d="M22.4286 61C22.4286 58.2386 24.6672 56 27.4286 56H92.5155C95.277 56 97.5155 58.2386 97.5155 61V100C97.5155 102.761 95.277 105 92.5155 105H27.4286C24.6672 105 22.4286 102.761 22.4286 100V61Z" fill="#00B6ED"/>
<path fill-rule="evenodd" clip-rule="evenodd" d="M29.4286 63V98H90.5155V63H29.4286ZM27.4286 56C24.6672 56 22.4286 58.2386 22.4286 61V100C22.4286 102.761 24.6672 105 27.4286 105H92.5155C95.277 105 97.5155 102.761 97.5155 100V61C97.5155 58.2386 95.277 56 92.5155 56H27.4286Z" fill="#00B6ED"/>
<path d="M9.26398 7C11.6043 1.8 13.1646 0 16.0901 0H32.1801L24.3789 29H0C2.11284 23.8333 6.9236 12.2 9.26398 7Z" fill="#0081A2"/>
<path d="M113.118 7C110.778 1.8 109.217 0 106.292 0H90.2018L98.003 29H122.382C120.269 23.8333 115.458 12.2 113.118 7Z" fill="#0081A2"/>
<path d="M48.7578 29L51.1957 0H70.6988L73.1367 29H48.7578Z" fill="#0081A2"/>
<path d="M90.2019 0H70.6988L73.1367 29H98.0031L90.2019 0Z" fill="#40CE97"/>
<path d="M32.1801 0H51.1956L48.7577 29H24.3788L32.1801 0Z" fill="#40CE97"/>
<path d="M0 36.8106V29H24.3789V36.8106C24.3789 43.5426 18.9215 49 12.1894 49C5.4574 49 0 43.5426 0 36.8106Z" fill="#0081A2"/>
<path d="M48.7578 37.3106V29H73.1367V37.3106C73.1367 44.0426 67.6793 49.5 60.9473 49.5C54.2152 49.5 48.7578 44.0426 48.7578 37.3106Z" fill="#0081A2"/>
<path d="M98.0031 36.8106V29H122.382V36.8106C122.382 43.5426 116.925 49 110.193 49C103.461 49 98.0031 43.5426 98.0031 36.8106Z" fill="#0081A2"/>
<path d="M24.3788 36.8106V29H48.7577V36.8106C48.7577 43.5426 43.3003 49 36.5682 49C29.8362 49 24.3788 43.5426 24.3788 36.8106Z" fill="#40CE97"/>
<path d="M73.1366 37.0668V29H98.003V37.0668C98.003 43.9335 92.4365 49.5 85.5698 49.5C78.7031 49.5 73.1366 43.9335 73.1366 37.0668Z" fill="#40CE97"/>
<path fill-rule="evenodd" clip-rule="evenodd" d="M55.6708 81.5V91H48.6708V81C48.6708 77.4101 51.581 74.5 55.1708 74.5H63.7982C67.388 74.5 70.2982 77.4101 70.2982 81V91H63.2982V81.5H55.6708Z" fill="#005072"/>
<path d="M44.2087 89H74.7602C75.779 89 76.635 89.7659 76.7478 90.7785L79.8313 118.446C80.1615 121.409 77.8428 124 74.8621 124H44.1068C41.126 124 38.8074 121.409 39.1375 118.446L42.221 90.7785C42.3338 89.7659 43.1898 89 44.2087 89Z" fill="#1EA9A1"/>
<path fill-rule="evenodd" clip-rule="evenodd" d="M80.2263 90.3908C79.916 87.6062 77.562 85.5 74.7602 85.5H44.2087C41.4069 85.5 39.0529 87.6062 38.7425 90.3908L35.6591 118.059C35.0978 123.095 39.0396 127.5 44.1068 127.5H74.8621C79.9293 127.5 83.871 123.095 83.3098 118.059L80.2263 90.3908ZM73.418 92.5L76.3529 118.834C76.4519 119.723 75.7563 120.5 74.8621 120.5H44.1068C43.2126 120.5 42.517 119.723 42.616 118.834L45.5508 92.5H73.418Z" fill="#005072"/>
</svg>
