<svg width="106" height="112" viewBox="0 0 106 112" fill="none" xmlns="http://www.w3.org/2000/svg">
<path fill-rule="evenodd" clip-rule="evenodd" d="M94.1107 27.283H9.77762V94.842C9.77762 98.1904 12.4921 100.905 15.8406 100.905H88.0477C91.3962 100.905 94.1107 98.1904 94.1107 94.842V27.283ZM7.1792 24.6846V94.842C7.1792 99.6255 11.057 103.503 15.8406 103.503H88.0477C92.8312 103.503 96.7091 99.6255 96.7091 94.842V24.6846H7.1792Z" fill="#005072"/>
<path d="M19.4262 52.8341C19.4262 50.4424 21.3652 48.5034 23.7569 48.5034H80.1314C82.5232 48.5034 84.4621 50.4424 84.4621 52.8341V86.6136C84.4621 89.0054 82.5232 90.9443 80.1314 90.9443H23.7569C21.3652 90.9443 19.4262 89.0054 19.4262 86.6136V52.8341Z" fill="#00B6ED"/>
<path fill-rule="evenodd" clip-rule="evenodd" d="M47.7856 68.8577C47.0681 68.8577 46.4864 69.4394 46.4864 70.1569V78.8184H43.888V70.1569C43.888 68.0043 45.633 66.2593 47.7856 66.2593H55.2581C57.4107 66.2593 59.1558 68.0043 59.1558 70.1569V78.8184H56.5573V70.1569C56.5573 69.4394 55.9757 68.8577 55.2581 68.8577H47.7856Z" fill="#005072"/>
<path d="M38.2909 77.0861H64.7528C65.6352 77.0861 66.3766 77.7495 66.4744 78.6265L69.1451 102.591C69.431 105.156 67.4227 107.401 64.841 107.401H38.2026C35.6209 107.401 33.6126 105.156 33.8986 102.591L36.5693 78.6265C36.667 77.7495 37.4084 77.0861 38.2909 77.0861Z" fill="#1EA9A1"/>
<path fill-rule="evenodd" clip-rule="evenodd" d="M67.7656 78.4826C67.5945 76.9478 66.2971 75.7869 64.7528 75.7869H38.2909C36.7466 75.7869 35.4491 76.9478 35.2781 78.4826L32.6073 102.447C32.2356 105.782 34.8464 108.7 38.2026 108.7H64.841C68.1973 108.7 70.808 105.782 70.4363 102.447L67.7656 78.4826ZM64.7528 78.3853C64.9734 78.3853 65.1587 78.5511 65.1832 78.7704L67.8539 102.735C68.054 104.531 66.6482 106.102 64.841 106.102H38.2026C36.3954 106.102 34.9896 104.531 35.1898 102.735L37.8605 78.7704C37.8849 78.5511 38.0703 78.3853 38.2909 78.3853H64.7528Z" fill="#005072"/>
<path fill-rule="evenodd" clip-rule="evenodd" d="M44.3425 0L42.231 25.1181V32.3162C42.231 38.1471 46.9578 42.874 52.7887 42.874C58.6196 42.874 63.3465 38.1471 63.3465 32.3162V25.1181L61.2349 0H44.3425Z" fill="#0081A2"/>
<path fill-rule="evenodd" clip-rule="evenodd" d="M13.9363 0C11.4024 0 10.051 1.55905 8.0239 6.06298C5.99681 10.5669 1.83001 20.643 0 25.1181V31.8831C0 37.714 4.72688 42.4409 10.5578 42.4409C16.3887 42.4409 21.1155 37.714 21.1155 31.8831L21.1155 25.1181L27.8725 0H13.9363Z" fill="#0081A2"/>
<path fill-rule="evenodd" clip-rule="evenodd" d="M92.0637 0C94.5976 0 95.949 1.55905 97.976 6.06298C100.003 10.5669 104.17 20.643 106 25.1181L106 25.1181V31.8831C106 37.714 101.273 42.4409 95.4422 42.4409C89.6113 42.4409 84.8844 37.714 84.8844 31.8831L84.8844 25.1181L78.1274 0H92.0637Z" fill="#0081A2"/>
<path fill-rule="evenodd" clip-rule="evenodd" d="M61.2353 0H78.1278L84.8847 25.1181H63.3469L61.2353 0ZM27.8728 0.000293931H44.3429L42.2314 25.1184L42.2313 25.1184V31.8834C42.2313 37.7143 37.5044 42.4412 31.6735 42.4412C25.8426 42.4412 21.1157 37.7143 21.1157 31.8834V25.1184L21.1158 25.1184L27.8728 0.000293931ZM63.3468 32.1053V25.1184H84.8847V32.1053C84.8847 38.0528 80.0632 42.8743 74.1157 42.8743C68.1682 42.8743 63.3468 38.0528 63.3468 32.1053Z" fill="#40CE97"/>
</svg>
